G04*
G04 #@! TF.GenerationSoftware,Altium Limited,Altium Designer,26.10.1 (5)*
G04*
G04 Layer_Physical_Order=4*
G04 Layer_Color=16711680*
G04 Board_Origin=80872512|74071984*
%FSLAX44Y44*%
%MOMM*%
G71*
G04*
G04 #@! TF.SameCoordinates,5802A6DE-2B60-438B-A6B9-6B7F125FFCDA*
G04*
G04*
G04 #@! TF.FilePolarity,Positive*
G04*
G01*
G75*
%ADD11C,0.2000*%
%ADD13C,0.2540*%
%ADD92C,1.7250*%
%ADD93R,1.7250X1.7250*%
%ADD94C,1.6500*%
%ADD95C,2.1900*%
%ADD96C,1.8750*%
%ADD97C,0.6500*%
%ADD98O,0.9000X2.4000*%
%ADD99O,0.9000X1.7000*%
%ADD100C,1.5200*%
%ADD101R,1.5200X1.5200*%
%ADD102C,1.3370*%
%ADD103R,1.3370X1.3370*%
%ADD104R,1.6500X1.6500*%
%ADD105C,1.5000*%
%ADD106R,1.6500X1.6500*%
%ADD107C,1.3000*%
%ADD108C,0.6000*%
%ADD109C,3.0000*%
%ADD110C,1.0000*%
G36*
X716599Y545220D02*
Y545220D01*
X717859Y545196D01*
X722746Y544811D01*
X728742Y543372D01*
X734439Y541012D01*
X739696Y537790D01*
X744385Y533786D01*
X748389Y529097D01*
X751611Y523840D01*
X753971Y518143D01*
X755410Y512147D01*
X755795Y507260D01*
X755819Y506000D01*
X755819Y506000D01*
X755819Y504730D01*
X755820Y44262D01*
X755820Y44254D01*
X755820Y43000D01*
X755796Y41740D01*
X755409Y36828D01*
X753964Y30808D01*
X751595Y25089D01*
X748360Y19810D01*
X744339Y15102D01*
X739632Y11082D01*
X734353Y7847D01*
X728633Y5478D01*
X722613Y4032D01*
X716711Y3568D01*
X716441Y3622D01*
X43806Y3622D01*
X42536Y3622D01*
X41277Y3648D01*
X36483Y4025D01*
X30579Y5443D01*
X24970Y7766D01*
X19793Y10939D01*
X15176Y14882D01*
X11233Y19499D01*
X8061Y24675D01*
X5737Y30285D01*
X4320Y36189D01*
X3943Y40983D01*
X3916Y42242D01*
X3916Y43511D01*
X3916Y506881D01*
X3865Y507139D01*
X4317Y512890D01*
X5724Y518751D01*
X8031Y524319D01*
X11180Y529459D01*
X15095Y534042D01*
X19678Y537956D01*
X24817Y541105D01*
X30386Y543412D01*
X36247Y544819D01*
X40997Y545193D01*
X42255Y545220D01*
X42255Y545220D01*
X43525Y545220D01*
X715346Y545220D01*
X716599Y545220D01*
D02*
G37*
%LPC*%
G36*
X266961Y528220D02*
X264565D01*
X262251Y527600D01*
X260176Y526402D01*
X258482Y524708D01*
X257284Y522633D01*
X256663Y520319D01*
Y517923D01*
X257284Y515608D01*
X258482Y513533D01*
X260176Y511839D01*
X262251Y510641D01*
X264565Y510021D01*
X266961D01*
X269276Y510641D01*
X271351Y511839D01*
X273045Y513533D01*
X274243Y515608D01*
X274863Y517923D01*
Y520319D01*
X274243Y522633D01*
X273045Y524708D01*
X271351Y526402D01*
X269276Y527600D01*
X266961Y528220D01*
D02*
G37*
G36*
X241961D02*
X239565D01*
X237251Y527600D01*
X235176Y526402D01*
X233482Y524708D01*
X232284Y522633D01*
X231663Y520319D01*
Y517923D01*
X232284Y515608D01*
X233482Y513533D01*
X235176Y511839D01*
X237251Y510641D01*
X239565Y510021D01*
X241961D01*
X244276Y510641D01*
X246351Y511839D01*
X248045Y513533D01*
X249243Y515608D01*
X249863Y517923D01*
Y520319D01*
X249243Y522633D01*
X248045Y524708D01*
X246351Y526402D01*
X244276Y527600D01*
X241961Y528220D01*
D02*
G37*
G36*
X128961D02*
X126565D01*
X124251Y527600D01*
X122176Y526402D01*
X120482Y524708D01*
X119284Y522633D01*
X118664Y520319D01*
Y517923D01*
X119284Y515608D01*
X120482Y513533D01*
X122176Y511839D01*
X124251Y510641D01*
X126565Y510021D01*
X128961D01*
X131276Y510641D01*
X133351Y511839D01*
X135045Y513533D01*
X136243Y515608D01*
X136863Y517923D01*
Y520319D01*
X136243Y522633D01*
X135045Y524708D01*
X133351Y526402D01*
X131276Y527600D01*
X128961Y528220D01*
D02*
G37*
G36*
X103961D02*
X101565D01*
X99251Y527600D01*
X97176Y526402D01*
X95482Y524708D01*
X94284Y522633D01*
X93664Y520319D01*
Y517923D01*
X94284Y515608D01*
X95482Y513533D01*
X97176Y511839D01*
X99251Y510641D01*
X101565Y510021D01*
X103961D01*
X106276Y510641D01*
X108351Y511839D01*
X110045Y513533D01*
X111243Y515608D01*
X111863Y517923D01*
Y520319D01*
X111243Y522633D01*
X110045Y524708D01*
X108351Y526402D01*
X106276Y527600D01*
X103961Y528220D01*
D02*
G37*
G36*
X520184Y509911D02*
X520033D01*
Y500391D01*
X529553D01*
Y500541D01*
X528818Y503285D01*
X527398Y505746D01*
X525389Y507755D01*
X522928Y509175D01*
X520184Y509911D01*
D02*
G37*
G36*
X517494D02*
X517343D01*
X514599Y509175D01*
X512138Y507755D01*
X510129Y505746D01*
X508709Y503285D01*
X507974Y500541D01*
Y500391D01*
X517494D01*
Y509911D01*
D02*
G37*
G36*
X381184D02*
X381034D01*
Y500391D01*
X390554D01*
Y500541D01*
X389818Y503285D01*
X388398Y505746D01*
X386389Y507755D01*
X383928Y509175D01*
X381184Y509911D01*
D02*
G37*
G36*
X378493D02*
X378343D01*
X375599Y509175D01*
X373138Y507755D01*
X371129Y505746D01*
X369709Y503285D01*
X368974Y500541D01*
Y500391D01*
X378493D01*
Y509911D01*
D02*
G37*
G36*
X553614Y508970D02*
X533913D01*
Y489271D01*
X553614D01*
Y508970D01*
D02*
G37*
G36*
X495060D02*
X492467D01*
X489962Y508299D01*
X487715Y507002D01*
X485882Y505169D01*
X484585Y502923D01*
X483913Y500417D01*
Y497824D01*
X484585Y495319D01*
X485882Y493073D01*
X487715Y491239D01*
X489962Y489942D01*
X492467Y489271D01*
X495060D01*
X497565Y489942D01*
X499812Y491239D01*
X501645Y493073D01*
X502942Y495319D01*
X503614Y497824D01*
Y500417D01*
X502942Y502923D01*
X501645Y505169D01*
X499812Y507002D01*
X497565Y508299D01*
X495060Y508970D01*
D02*
G37*
G36*
X414613D02*
X394913D01*
Y489271D01*
X414613D01*
Y508970D01*
D02*
G37*
G36*
X356060D02*
X353467D01*
X350961Y508299D01*
X348715Y507002D01*
X346881Y505169D01*
X345585Y502923D01*
X344913Y500417D01*
Y497824D01*
X345585Y495319D01*
X346881Y493073D01*
X348715Y491239D01*
X350961Y489942D01*
X353467Y489271D01*
X356060D01*
X358565Y489942D01*
X360812Y491239D01*
X362645Y493073D01*
X363942Y495319D01*
X364613Y497824D01*
Y500417D01*
X363942Y502923D01*
X362645Y505169D01*
X360812Y507002D01*
X358565Y508299D01*
X356060Y508970D01*
D02*
G37*
G36*
X529553Y497850D02*
X520033D01*
Y488330D01*
X520184D01*
X522928Y489066D01*
X525389Y490486D01*
X527398Y492495D01*
X528818Y494956D01*
X529553Y497700D01*
Y497850D01*
D02*
G37*
G36*
X517494D02*
X507974D01*
Y497700D01*
X508709Y494956D01*
X510129Y492495D01*
X512138Y490486D01*
X514599Y489066D01*
X517343Y488330D01*
X517494D01*
Y497850D01*
D02*
G37*
G36*
X390554D02*
X381034D01*
Y488330D01*
X381184D01*
X383928Y489066D01*
X386389Y490486D01*
X388398Y492495D01*
X389818Y494956D01*
X390554Y497700D01*
Y497850D01*
D02*
G37*
G36*
X378493D02*
X368974D01*
Y497700D01*
X369709Y494956D01*
X371129Y492495D01*
X373138Y490486D01*
X375599Y489066D01*
X378343Y488330D01*
X378493D01*
Y497850D01*
D02*
G37*
G36*
X708000Y515693D02*
X703669Y515352D01*
X699445Y514338D01*
X695431Y512676D01*
X691727Y510406D01*
X688423Y507584D01*
X685602Y504281D01*
X683332Y500577D01*
X681670Y496563D01*
X680656Y492339D01*
X680315Y488008D01*
X680656Y483677D01*
X681670Y479452D01*
X683332Y475439D01*
X685602Y471735D01*
X688423Y468431D01*
X691727Y465610D01*
X695431Y463340D01*
X699445Y461677D01*
X703669Y460663D01*
X708000Y460322D01*
X712331Y460663D01*
X716555Y461677D01*
X720569Y463340D01*
X724273Y465610D01*
X727577Y468431D01*
X730398Y471735D01*
X732668Y475439D01*
X734330Y479452D01*
X735344Y483677D01*
X735685Y488008D01*
X735344Y492339D01*
X734330Y496563D01*
X732668Y500577D01*
X730398Y504281D01*
X727577Y507584D01*
X724273Y510406D01*
X720569Y512676D01*
X716555Y514338D01*
X712331Y515352D01*
X708000Y515693D01*
D02*
G37*
G36*
X478220Y473691D02*
X476482D01*
X474804Y473242D01*
X473299Y472373D01*
X472070Y471144D01*
X471201Y469639D01*
X470751Y467960D01*
Y466223D01*
X471201Y464544D01*
X472070Y463039D01*
X473299Y461810D01*
X474121Y461335D01*
Y456280D01*
X473147Y455306D01*
X472447Y453616D01*
Y451786D01*
X473147Y450095D01*
X474441Y448801D01*
X476132Y448101D01*
X477962D01*
X479653Y448801D01*
X480947Y450095D01*
X481647Y451786D01*
Y453616D01*
X480947Y455306D01*
X479973Y456280D01*
Y460984D01*
X481404Y461810D01*
X482632Y463039D01*
X483501Y464544D01*
X483951Y466223D01*
Y467960D01*
X483501Y469639D01*
X482632Y471144D01*
X481404Y472373D01*
X479899Y473242D01*
X478220Y473691D01*
D02*
G37*
G36*
X511069Y451456D02*
X509239D01*
X507548Y450756D01*
X506254Y449462D01*
X505554Y447771D01*
Y445941D01*
X506254Y444251D01*
X507548Y442957D01*
X509239Y442256D01*
X511069D01*
X512760Y442957D01*
X514054Y444251D01*
X514754Y445941D01*
Y447771D01*
X514054Y449462D01*
X512760Y450756D01*
X511069Y451456D01*
D02*
G37*
G36*
X35832Y448036D02*
X35534D01*
Y437391D01*
X46178D01*
Y437689D01*
X45367Y440720D01*
X43798Y443437D01*
X41579Y445655D01*
X38863Y447224D01*
X35832Y448036D01*
D02*
G37*
G36*
X32994D02*
X32695D01*
X29664Y447224D01*
X26948Y445655D01*
X24729Y443437D01*
X23161Y440720D01*
X22348Y437689D01*
Y437391D01*
X32994D01*
Y448036D01*
D02*
G37*
G36*
X561437Y456273D02*
X558843D01*
X556338Y455602D01*
X554092Y454305D01*
X552258Y452471D01*
X550961Y450225D01*
X550290Y447720D01*
Y445126D01*
X550961Y442621D01*
X552258Y440375D01*
X554092Y438541D01*
X556338Y437245D01*
X558843Y436573D01*
X561437D01*
X563942Y437245D01*
X566188Y438541D01*
X568022Y440375D01*
X569319Y442621D01*
X569990Y445126D01*
Y447720D01*
X569319Y450225D01*
X568022Y452471D01*
X566188Y454305D01*
X563942Y455602D01*
X561437Y456273D01*
D02*
G37*
G36*
X46178Y434851D02*
X35534D01*
Y424206D01*
X35832D01*
X38863Y425018D01*
X41579Y426586D01*
X43798Y428805D01*
X45367Y431521D01*
X46178Y434552D01*
Y434851D01*
D02*
G37*
G36*
X32994D02*
X22348D01*
Y434552D01*
X23161Y431521D01*
X24729Y428805D01*
X26948Y426586D01*
X29664Y425018D01*
X32695Y424206D01*
X32994D01*
Y434851D01*
D02*
G37*
G36*
X561561Y431813D02*
X561410D01*
Y422293D01*
X570930D01*
Y422444D01*
X570195Y425188D01*
X568774Y427649D01*
X566765Y429657D01*
X564305Y431078D01*
X561561Y431813D01*
D02*
G37*
G36*
X558870D02*
X558719D01*
X555975Y431078D01*
X553515Y429657D01*
X551506Y427649D01*
X550085Y425188D01*
X549350Y422444D01*
Y422293D01*
X558870D01*
Y431813D01*
D02*
G37*
G36*
X418869Y429600D02*
X417131D01*
X415452Y429150D01*
X413947Y428281D01*
X412719Y427052D01*
X411850Y425547D01*
X411400Y423869D01*
Y422131D01*
X411850Y420452D01*
X412719Y418947D01*
X413947Y417719D01*
X415452Y416850D01*
X417131Y416400D01*
X418869D01*
X420547Y416850D01*
X422052Y417719D01*
X423281Y418947D01*
X423932Y420074D01*
X441252D01*
X441784Y418789D01*
X443078Y417495D01*
X444769Y416795D01*
X446599D01*
X448289Y417495D01*
X449583Y418789D01*
X450284Y420480D01*
Y422310D01*
X449583Y424001D01*
X448289Y425295D01*
X446599Y425995D01*
X444769D01*
X444129Y425730D01*
X443142Y425926D01*
X423932D01*
X423281Y427052D01*
X422052Y428281D01*
X420547Y429150D01*
X418869Y429600D01*
D02*
G37*
G36*
X140869Y436600D02*
X139131D01*
X137452Y436150D01*
X135948Y435281D01*
X134719Y434053D01*
X133850Y432547D01*
X133400Y430869D01*
Y429131D01*
X133850Y427453D01*
X134719Y425947D01*
X135948Y424719D01*
X137452Y423850D01*
X138448Y423583D01*
Y421542D01*
X137964Y421059D01*
X137264Y419368D01*
Y417538D01*
X137964Y415848D01*
X139258Y414553D01*
X140949Y413853D01*
X142779D01*
X144470Y414553D01*
X145764Y415848D01*
X146464Y417538D01*
Y419368D01*
X145764Y421059D01*
X144470Y422353D01*
X143750Y422651D01*
Y424544D01*
X144052Y424719D01*
X145281Y425947D01*
X146150Y427453D01*
X146600Y429131D01*
Y430869D01*
X146150Y432547D01*
X145281Y434053D01*
X144052Y435281D01*
X142548Y436150D01*
X140869Y436600D01*
D02*
G37*
G36*
X570930Y419753D02*
X561410D01*
Y410233D01*
X561561D01*
X564305Y410969D01*
X566765Y412389D01*
X568774Y414398D01*
X570195Y416858D01*
X570930Y419603D01*
Y419753D01*
D02*
G37*
G36*
X558870D02*
X549350D01*
Y419603D01*
X550085Y416858D01*
X551506Y414398D01*
X553515Y412389D01*
X555975Y410969D01*
X558719Y410233D01*
X558870D01*
Y419753D01*
D02*
G37*
G36*
X47830Y414221D02*
X45697D01*
X43637Y413669D01*
X41790Y412602D01*
X40282Y411094D01*
X39216Y409247D01*
X38663Y407187D01*
Y405054D01*
X39216Y402994D01*
X40282Y401147D01*
X41790Y399639D01*
X43637Y398573D01*
X45697Y398021D01*
X47830D01*
X49890Y398573D01*
X51737Y399639D01*
X53245Y401147D01*
X54311Y402994D01*
X54864Y405054D01*
Y407187D01*
X54311Y409247D01*
X53245Y411094D01*
X51737Y412602D01*
X49890Y413669D01*
X47830Y414221D01*
D02*
G37*
G36*
X22830D02*
X20697D01*
X18637Y413669D01*
X16790Y412602D01*
X15282Y411094D01*
X14216Y409247D01*
X13664Y407187D01*
Y405054D01*
X14216Y402994D01*
X15282Y401147D01*
X16790Y399639D01*
X18637Y398573D01*
X20697Y398021D01*
X22830D01*
X24890Y398573D01*
X26737Y399639D01*
X28245Y401147D01*
X29311Y402994D01*
X29864Y405054D01*
Y407187D01*
X29311Y409247D01*
X28245Y411094D01*
X26737Y412602D01*
X24890Y413669D01*
X22830Y414221D01*
D02*
G37*
G36*
X151129Y399124D02*
X149299D01*
X147608Y398424D01*
X146314Y397130D01*
X145614Y395439D01*
Y393609D01*
X146314Y391918D01*
X147608Y390624D01*
X149299Y389924D01*
X151129D01*
X152819Y390624D01*
X154113Y391918D01*
X154814Y393609D01*
Y395439D01*
X154113Y397130D01*
X152819Y398424D01*
X151129Y399124D01*
D02*
G37*
G36*
X511256Y397295D02*
X509426D01*
X507735Y396594D01*
X506441Y395300D01*
X505741Y393610D01*
Y391780D01*
X506441Y390089D01*
X507735Y388795D01*
X509426Y388095D01*
X511256D01*
X512947Y388795D01*
X514241Y390089D01*
X514941Y391780D01*
Y393610D01*
X514241Y395300D01*
X512947Y396594D01*
X511256Y397295D01*
D02*
G37*
G36*
X569990Y405473D02*
X550290D01*
Y385773D01*
X569990D01*
Y405473D01*
D02*
G37*
G36*
X695485Y388085D02*
X686500D01*
Y379100D01*
X695485D01*
Y388085D01*
D02*
G37*
G36*
X683500D02*
X674515D01*
Y379100D01*
X683500D01*
Y388085D01*
D02*
G37*
G36*
X47830Y394221D02*
X45697D01*
X43637Y393669D01*
X41790Y392602D01*
X40282Y391094D01*
X39216Y389247D01*
X38663Y387187D01*
Y385054D01*
X39216Y382994D01*
X40282Y381147D01*
X41790Y379639D01*
X43637Y378573D01*
X45697Y378021D01*
X47830D01*
X49890Y378573D01*
X51737Y379639D01*
X53245Y381147D01*
X54311Y382994D01*
X54864Y385054D01*
Y387187D01*
X54311Y389247D01*
X53245Y391094D01*
X51737Y392602D01*
X49890Y393669D01*
X47830Y394221D01*
D02*
G37*
G36*
X22830D02*
X20697D01*
X18637Y393669D01*
X16790Y392602D01*
X15282Y391094D01*
X14216Y389247D01*
X13664Y387187D01*
Y385054D01*
X14216Y382994D01*
X15282Y381147D01*
X16790Y379639D01*
X18637Y378573D01*
X20697Y378021D01*
X22830D01*
X24890Y378573D01*
X26737Y379639D01*
X28245Y381147D01*
X29311Y382994D01*
X29864Y385054D01*
Y387187D01*
X29311Y389247D01*
X28245Y391094D01*
X26737Y392602D01*
X24890Y393669D01*
X22830Y394221D01*
D02*
G37*
G36*
X711746Y387825D02*
X709054D01*
X706453Y387128D01*
X704122Y385782D01*
X702218Y383878D01*
X700872Y381547D01*
X700175Y378946D01*
Y376254D01*
X700872Y373653D01*
X702218Y371322D01*
X704122Y369418D01*
X706453Y368072D01*
X709054Y367375D01*
X711746D01*
X714347Y368072D01*
X716678Y369418D01*
X718582Y371322D01*
X719928Y373653D01*
X720625Y376254D01*
Y378946D01*
X719928Y381547D01*
X718582Y383878D01*
X716678Y385782D01*
X714347Y387128D01*
X711746Y387825D01*
D02*
G37*
G36*
X695485Y376100D02*
X686500D01*
Y367115D01*
X695485D01*
Y376100D01*
D02*
G37*
G36*
X683500D02*
X674515D01*
Y367115D01*
X683500D01*
Y376100D01*
D02*
G37*
G36*
X47830Y374221D02*
X45697D01*
X43637Y373669D01*
X41790Y372602D01*
X40282Y371094D01*
X39216Y369247D01*
X38663Y367187D01*
Y365054D01*
X39216Y362994D01*
X40282Y361147D01*
X41790Y359639D01*
X43637Y358573D01*
X45697Y358021D01*
X47830D01*
X49890Y358573D01*
X51737Y359639D01*
X53245Y361147D01*
X54311Y362994D01*
X54864Y365054D01*
Y367187D01*
X54311Y369247D01*
X53245Y371094D01*
X51737Y372602D01*
X49890Y373669D01*
X47830Y374221D01*
D02*
G37*
G36*
X22830D02*
X20697D01*
X18637Y373669D01*
X16790Y372602D01*
X15282Y371094D01*
X14216Y369247D01*
X13664Y367187D01*
Y365054D01*
X14216Y362994D01*
X15282Y361147D01*
X16790Y359639D01*
X18637Y358573D01*
X20697Y358021D01*
X22830D01*
X24890Y358573D01*
X26737Y359639D01*
X28245Y361147D01*
X29311Y362994D01*
X29864Y365054D01*
Y367187D01*
X29311Y369247D01*
X28245Y371094D01*
X26737Y372602D01*
X24890Y373669D01*
X22830Y374221D01*
D02*
G37*
G36*
X304180Y357048D02*
X302350D01*
X300659Y356348D01*
X299365Y355054D01*
X298665Y353363D01*
Y351533D01*
X299365Y349842D01*
X300659Y348549D01*
X302350Y347848D01*
X304180D01*
X305870Y348549D01*
X307164Y349842D01*
X307865Y351533D01*
Y353363D01*
X307164Y355054D01*
X305870Y356348D01*
X304180Y357048D01*
D02*
G37*
G36*
X290759Y356292D02*
X288929D01*
X287238Y355592D01*
X285944Y354298D01*
X285244Y352607D01*
Y350777D01*
X285944Y349086D01*
X287238Y347792D01*
X288929Y347092D01*
X290759D01*
X292450Y347792D01*
X293744Y349086D01*
X294444Y350777D01*
Y352607D01*
X293744Y354298D01*
X292450Y355592D01*
X290759Y356292D01*
D02*
G37*
G36*
X711746Y362425D02*
X709054D01*
X706453Y361728D01*
X704122Y360382D01*
X702218Y358478D01*
X700872Y356147D01*
X700175Y353546D01*
Y350854D01*
X700872Y348253D01*
X702218Y345922D01*
X704122Y344018D01*
X706453Y342672D01*
X709054Y341975D01*
X711746D01*
X714347Y342672D01*
X716678Y344018D01*
X718582Y345922D01*
X719928Y348253D01*
X720625Y350854D01*
Y353546D01*
X719928Y356147D01*
X718582Y358478D01*
X716678Y360382D01*
X714347Y361728D01*
X711746Y362425D01*
D02*
G37*
G36*
X686346D02*
X683654D01*
X681053Y361728D01*
X678722Y360382D01*
X676818Y358478D01*
X675472Y356147D01*
X674775Y353546D01*
Y350854D01*
X675472Y348253D01*
X676818Y345922D01*
X678722Y344018D01*
X681053Y342672D01*
X683654Y341975D01*
X686346D01*
X688947Y342672D01*
X691278Y344018D01*
X693182Y345922D01*
X694528Y348253D01*
X695225Y350854D01*
Y353546D01*
X694528Y356147D01*
X693182Y358478D01*
X691278Y360382D01*
X688947Y361728D01*
X686346Y362425D01*
D02*
G37*
G36*
X35832Y348036D02*
X35534D01*
Y337391D01*
X46178D01*
Y337689D01*
X45367Y340720D01*
X43798Y343437D01*
X41579Y345655D01*
X38863Y347224D01*
X35832Y348036D01*
D02*
G37*
G36*
X32994D02*
X32695D01*
X29664Y347224D01*
X26948Y345655D01*
X24729Y343437D01*
X23161Y340720D01*
X22348Y337689D01*
Y337391D01*
X32994D01*
Y348036D01*
D02*
G37*
G36*
X711900Y337191D02*
Y328300D01*
X720791D01*
X720115Y330824D01*
X718742Y333201D01*
X716801Y335142D01*
X714424Y336515D01*
X711900Y337191D01*
D02*
G37*
G36*
X686500D02*
Y328300D01*
X695391D01*
X694715Y330824D01*
X693342Y333201D01*
X691401Y335142D01*
X689024Y336515D01*
X686500Y337191D01*
D02*
G37*
G36*
X708900Y337191D02*
X706376Y336515D01*
X703999Y335142D01*
X702058Y333201D01*
X700685Y330824D01*
X700009Y328300D01*
X708900D01*
Y337191D01*
D02*
G37*
G36*
X683500D02*
X680976Y336515D01*
X678599Y335142D01*
X676658Y333201D01*
X675285Y330824D01*
X674609Y328300D01*
X683500D01*
Y337191D01*
D02*
G37*
G36*
X174851Y340626D02*
X173021D01*
X171330Y339926D01*
X170036Y338632D01*
X169336Y336941D01*
Y335112D01*
X168897Y334455D01*
X168414Y334019D01*
X166896Y333390D01*
X165602Y332096D01*
X164902Y330405D01*
Y328575D01*
X165602Y326885D01*
X166896Y325591D01*
X168587Y324890D01*
X170417D01*
X172107Y325591D01*
X172955Y326438D01*
X173481Y326334D01*
X174775Y325040D01*
X176465Y324339D01*
X178295D01*
X179986Y325040D01*
X181280Y326334D01*
X181980Y328024D01*
Y329854D01*
X181280Y331545D01*
X179986Y332839D01*
X179118Y333199D01*
X178371Y334713D01*
X178536Y335112D01*
Y336941D01*
X177836Y338632D01*
X176542Y339926D01*
X174851Y340626D01*
D02*
G37*
G36*
X46178Y334851D02*
X35534D01*
Y324206D01*
X35832D01*
X38863Y325018D01*
X41579Y326586D01*
X43798Y328805D01*
X45367Y331521D01*
X46178Y334552D01*
Y334851D01*
D02*
G37*
G36*
X32994D02*
X22348D01*
Y334552D01*
X23161Y331521D01*
X24729Y328805D01*
X26948Y326586D01*
X29664Y325018D01*
X32695Y324206D01*
X32994D01*
Y334851D01*
D02*
G37*
G36*
X708900Y325300D02*
X700009D01*
X700685Y322776D01*
X702058Y320399D01*
X703999Y318458D01*
X706376Y317085D01*
X708900Y316409D01*
Y325300D01*
D02*
G37*
G36*
X683500D02*
X674609D01*
X675285Y322776D01*
X676658Y320399D01*
X678599Y318458D01*
X680976Y317085D01*
X683500Y316409D01*
Y325300D01*
D02*
G37*
G36*
X720791D02*
X711900D01*
Y316409D01*
X714424Y317085D01*
X716801Y318458D01*
X718742Y320399D01*
X720115Y322776D01*
X720791Y325300D01*
D02*
G37*
G36*
X695391D02*
X686500D01*
Y316409D01*
X689024Y317085D01*
X691401Y318458D01*
X693342Y320399D01*
X694715Y322776D01*
X695391Y325300D01*
D02*
G37*
G36*
X295101Y335286D02*
X293363D01*
X291684Y334837D01*
X290179Y333968D01*
X288951Y332739D01*
X288082Y331234D01*
X287632Y329555D01*
Y327817D01*
X288082Y326139D01*
X288951Y324634D01*
X290179Y323405D01*
X291684Y322536D01*
X293363Y322086D01*
X295101D01*
X296664Y322505D01*
X297713Y321456D01*
Y319690D01*
X298413Y317999D01*
X299707Y316705D01*
X301398Y316005D01*
X303228D01*
X304919Y316705D01*
X306213Y317999D01*
X306913Y319690D01*
Y321520D01*
X306213Y323211D01*
X304919Y324505D01*
X303228Y325205D01*
X301462D01*
X300413Y326254D01*
X300832Y327817D01*
Y329555D01*
X300382Y331234D01*
X299513Y332739D01*
X298284Y333968D01*
X296779Y334837D01*
X295101Y335286D01*
D02*
G37*
G36*
X231466Y337902D02*
X229636D01*
X227945Y337201D01*
X226651Y335908D01*
X225951Y334217D01*
Y332387D01*
X226651Y330696D01*
X227017Y330330D01*
X227048Y330272D01*
X227212Y330076D01*
X227325Y329920D01*
X227421Y329770D01*
X227500Y329623D01*
X227564Y329481D01*
X227615Y329339D01*
X227653Y329199D01*
X227681Y329057D01*
X227685Y329022D01*
Y328165D01*
X227676Y328072D01*
X227648Y327902D01*
X227617Y327783D01*
X227614Y327777D01*
X227574Y327766D01*
X226068Y326898D01*
X224840Y325669D01*
X223971Y324164D01*
X223521Y322485D01*
Y320747D01*
X223971Y319069D01*
X224840Y317564D01*
X226068Y316335D01*
X227574Y315466D01*
X229252Y315016D01*
X230990D01*
X232668Y315466D01*
X234173Y316335D01*
X235402Y317564D01*
X236271Y319069D01*
X236721Y320747D01*
Y322485D01*
X236271Y324164D01*
X235402Y325669D01*
X234173Y326898D01*
X233215Y327451D01*
X233144Y327514D01*
X233103Y327539D01*
X233088Y327568D01*
X233057Y327656D01*
X233024Y327790D01*
X232995Y327972D01*
X232987Y328065D01*
Y328847D01*
X232991Y328881D01*
X233017Y328999D01*
X233052Y329109D01*
X233097Y329215D01*
X233154Y329321D01*
X233224Y329427D01*
X233312Y329538D01*
X233419Y329652D01*
X233592Y329810D01*
X233670Y329915D01*
X234450Y330696D01*
X235151Y332387D01*
Y334217D01*
X234450Y335908D01*
X233156Y337201D01*
X231466Y337902D01*
D02*
G37*
G36*
X549575Y321169D02*
X547744D01*
X546054Y320469D01*
X544760Y319175D01*
X544059Y317484D01*
Y315654D01*
X543057Y314756D01*
X542000Y314319D01*
X540706Y313025D01*
X540006Y311334D01*
Y309504D01*
X540706Y307813D01*
X542000Y306519D01*
X543691Y305819D01*
X544941D01*
Y304865D01*
X545641Y303174D01*
X546935Y301880D01*
X548626Y301180D01*
X550456D01*
X552147Y301880D01*
X553441Y303174D01*
X554141Y304865D01*
Y306695D01*
X553441Y308385D01*
X552147Y309679D01*
X550456Y310380D01*
X550030D01*
X549558Y311650D01*
X550208Y312232D01*
X551265Y312670D01*
X552559Y313964D01*
X553260Y315654D01*
Y317484D01*
X552559Y319175D01*
X551265Y320469D01*
X549575Y321169D01*
D02*
G37*
G36*
X316825Y307414D02*
X314995D01*
X313305Y306714D01*
X312011Y305420D01*
X311310Y303729D01*
Y301899D01*
X312011Y300209D01*
X313305Y298915D01*
X314995Y298214D01*
X316825D01*
X318516Y298915D01*
X319810Y300209D01*
X320510Y301899D01*
Y303729D01*
X319810Y305420D01*
X318516Y306714D01*
X316825Y307414D01*
D02*
G37*
G36*
X711746Y311625D02*
X709054D01*
X706453Y310928D01*
X704122Y309582D01*
X702218Y307678D01*
X700872Y305347D01*
X700175Y302746D01*
Y300054D01*
X700872Y297453D01*
X702218Y295122D01*
X704122Y293218D01*
X706453Y291872D01*
X709054Y291175D01*
X711746D01*
X714347Y291872D01*
X716678Y293218D01*
X718582Y295122D01*
X719928Y297453D01*
X720625Y300054D01*
Y302746D01*
X719928Y305347D01*
X718582Y307678D01*
X716678Y309582D01*
X714347Y310928D01*
X711746Y311625D01*
D02*
G37*
G36*
X686346D02*
X683654D01*
X681053Y310928D01*
X678722Y309582D01*
X676818Y307678D01*
X675472Y305347D01*
X674775Y302746D01*
Y300054D01*
X675472Y297453D01*
X676818Y295122D01*
X678722Y293218D01*
X681053Y291872D01*
X683654Y291175D01*
X686346D01*
X688947Y291872D01*
X691278Y293218D01*
X693182Y295122D01*
X694528Y297453D01*
X695225Y300054D01*
Y302746D01*
X694528Y305347D01*
X693182Y307678D01*
X691278Y309582D01*
X688947Y310928D01*
X686346Y311625D01*
D02*
G37*
G36*
X686500Y286391D02*
Y277500D01*
X695391D01*
X694715Y280024D01*
X693342Y282401D01*
X691401Y284342D01*
X689024Y285715D01*
X686500Y286391D01*
D02*
G37*
G36*
X683500Y286391D02*
X680976Y285715D01*
X678599Y284342D01*
X676658Y282401D01*
X675285Y280024D01*
X674609Y277500D01*
X683500D01*
Y286391D01*
D02*
G37*
G36*
X711746Y286225D02*
X709054D01*
X706453Y285528D01*
X704122Y284182D01*
X702218Y282278D01*
X700872Y279947D01*
X700175Y277346D01*
Y274654D01*
X700872Y272053D01*
X702218Y269722D01*
X704122Y267818D01*
X706453Y266472D01*
X709054Y265775D01*
X711746D01*
X714347Y266472D01*
X716678Y267818D01*
X718582Y269722D01*
X719928Y272053D01*
X720625Y274654D01*
Y277346D01*
X719928Y279947D01*
X718582Y282278D01*
X716678Y284182D01*
X714347Y285528D01*
X711746Y286225D01*
D02*
G37*
G36*
X683500Y274500D02*
X674609D01*
X675285Y271976D01*
X676658Y269599D01*
X678599Y267658D01*
X680976Y266285D01*
X683500Y265609D01*
Y274500D01*
D02*
G37*
G36*
X695391D02*
X686500D01*
Y265609D01*
X689024Y266285D01*
X691401Y267658D01*
X693342Y269599D01*
X694715Y271976D01*
X695391Y274500D01*
D02*
G37*
G36*
X39000Y315696D02*
X34512Y315343D01*
X30135Y314292D01*
X25976Y312570D01*
X22137Y310217D01*
X18714Y307294D01*
X15791Y303871D01*
X13438Y300032D01*
X11716Y295873D01*
X10665Y291496D01*
X10312Y287008D01*
X10665Y282520D01*
X11716Y278143D01*
X13438Y273984D01*
X15791Y270145D01*
X18714Y266722D01*
X22137Y263799D01*
X25976Y261446D01*
X30135Y259724D01*
X34512Y258673D01*
X39000Y258319D01*
X43488Y258673D01*
X47865Y259724D01*
X52024Y261446D01*
X55863Y263799D01*
X59286Y266722D01*
X62209Y270145D01*
X64562Y273984D01*
X66284Y278143D01*
X67335Y282520D01*
X67688Y287008D01*
X67335Y291496D01*
X66284Y295873D01*
X64562Y300032D01*
X62209Y303871D01*
X59286Y307294D01*
X55863Y310217D01*
X52024Y312570D01*
X47865Y314292D01*
X43488Y315343D01*
X39000Y315696D01*
D02*
G37*
G36*
X363374Y263959D02*
X361544D01*
X359853Y263258D01*
X358559Y261964D01*
X357859Y260274D01*
Y258444D01*
X358559Y256753D01*
X359853Y255459D01*
X361544Y254759D01*
X363374D01*
X365064Y255459D01*
X366358Y256753D01*
X367059Y258444D01*
Y260274D01*
X366358Y261964D01*
X365064Y263258D01*
X363374Y263959D01*
D02*
G37*
G36*
X711900Y260991D02*
Y252100D01*
X720791D01*
X720115Y254624D01*
X718742Y257001D01*
X716801Y258942D01*
X714424Y260315D01*
X711900Y260991D01*
D02*
G37*
G36*
X708900Y260991D02*
X706376Y260315D01*
X703999Y258942D01*
X702058Y257001D01*
X700685Y254624D01*
X700009Y252100D01*
X708900D01*
Y260991D01*
D02*
G37*
G36*
X287490Y261175D02*
X285660D01*
X283970Y260475D01*
X282676Y259181D01*
X281975Y257490D01*
Y255660D01*
X282676Y253969D01*
X283970Y252675D01*
X285660Y251975D01*
X287490D01*
X289181Y252675D01*
X290475Y253969D01*
X291175Y255660D01*
Y257490D01*
X290475Y259181D01*
X289181Y260475D01*
X287490Y261175D01*
D02*
G37*
G36*
X36697Y249412D02*
X36632D01*
Y240543D01*
X45502D01*
Y240607D01*
X44811Y243186D01*
X43476Y245499D01*
X41588Y247386D01*
X39276Y248721D01*
X36697Y249412D01*
D02*
G37*
G36*
X34092D02*
X34027D01*
X31448Y248721D01*
X29136Y247386D01*
X27248Y245499D01*
X25913Y243186D01*
X25222Y240607D01*
Y240543D01*
X34092D01*
Y249412D01*
D02*
G37*
G36*
X686346Y260825D02*
X683654D01*
X681053Y260128D01*
X678722Y258782D01*
X676818Y256878D01*
X675472Y254547D01*
X674775Y251946D01*
Y249254D01*
X675472Y246653D01*
X676818Y244322D01*
X678722Y242418D01*
X681053Y241072D01*
X683654Y240375D01*
X686346D01*
X688947Y241072D01*
X691278Y242418D01*
X693182Y244322D01*
X694528Y246653D01*
X695225Y249254D01*
Y251946D01*
X694528Y254547D01*
X693182Y256878D01*
X691278Y258782D01*
X688947Y260128D01*
X686346Y260825D01*
D02*
G37*
G36*
X708900Y249100D02*
X700009D01*
X700685Y246576D01*
X702058Y244199D01*
X703999Y242258D01*
X706376Y240885D01*
X708900Y240209D01*
Y249100D01*
D02*
G37*
G36*
X720791D02*
X711900D01*
Y240209D01*
X714424Y240885D01*
X716801Y242258D01*
X718742Y244199D01*
X720115Y246576D01*
X720791Y249100D01*
D02*
G37*
G36*
X61973Y248472D02*
X59551D01*
X57211Y247845D01*
X55113Y246634D01*
X53400Y244921D01*
X52189Y242824D01*
X51562Y240484D01*
Y238061D01*
X52189Y235721D01*
X53400Y233624D01*
X55113Y231911D01*
X57211Y230700D01*
X59551Y230072D01*
X61973D01*
X64313Y230700D01*
X66411Y231911D01*
X68124Y233624D01*
X69335Y235721D01*
X69962Y238061D01*
Y240484D01*
X69335Y242824D01*
X68124Y244921D01*
X66411Y246634D01*
X64313Y247845D01*
X61973Y248472D01*
D02*
G37*
G36*
X45502Y238002D02*
X36632D01*
Y229132D01*
X36697D01*
X39276Y229823D01*
X41588Y231159D01*
X43476Y233046D01*
X44811Y235359D01*
X45502Y237938D01*
Y238002D01*
D02*
G37*
G36*
X34092D02*
X25222D01*
Y237938D01*
X25913Y235359D01*
X27248Y233046D01*
X29136Y231159D01*
X31448Y229823D01*
X34027Y229132D01*
X34092D01*
Y238002D01*
D02*
G37*
G36*
X36697Y224013D02*
X36632D01*
Y215142D01*
X45502D01*
Y215207D01*
X44811Y217786D01*
X43476Y220099D01*
X41588Y221987D01*
X39276Y223321D01*
X36697Y224013D01*
D02*
G37*
G36*
X34092D02*
X34027D01*
X31448Y223321D01*
X29136Y221987D01*
X27248Y220099D01*
X25913Y217786D01*
X25222Y215207D01*
Y215142D01*
X34092D01*
Y224013D01*
D02*
G37*
G36*
X711746Y235425D02*
X709054D01*
X706453Y234728D01*
X704122Y233382D01*
X702218Y231478D01*
X700872Y229147D01*
X700175Y226546D01*
Y223854D01*
X700872Y221253D01*
X702218Y218922D01*
X704122Y217018D01*
X706453Y215672D01*
X709054Y214975D01*
X711746D01*
X714347Y215672D01*
X716678Y217018D01*
X718582Y218922D01*
X719928Y221253D01*
X720625Y223854D01*
Y226546D01*
X719928Y229147D01*
X718582Y231478D01*
X716678Y233382D01*
X714347Y234728D01*
X711746Y235425D01*
D02*
G37*
G36*
X686346D02*
X683654D01*
X681053Y234728D01*
X678722Y233382D01*
X676818Y231478D01*
X675472Y229147D01*
X674775Y226546D01*
Y223854D01*
X675472Y221253D01*
X676818Y218922D01*
X678722Y217018D01*
X681053Y215672D01*
X683654Y214975D01*
X686346D01*
X688947Y215672D01*
X691278Y217018D01*
X693182Y218922D01*
X694528Y221253D01*
X695225Y223854D01*
Y226546D01*
X694528Y229147D01*
X693182Y231478D01*
X691278Y233382D01*
X688947Y234728D01*
X686346Y235425D01*
D02*
G37*
G36*
X547773Y229000D02*
X545943D01*
X544252Y228300D01*
X542958Y227006D01*
X542258Y225315D01*
Y223485D01*
X542958Y221794D01*
X544252Y220500D01*
X545241Y220091D01*
X546009Y218626D01*
X545951Y218487D01*
Y216657D01*
X546652Y214967D01*
X547946Y213673D01*
X549636Y212972D01*
X551466D01*
X553157Y213673D01*
X554451Y214967D01*
X555151Y216657D01*
Y218487D01*
X554770Y219409D01*
X555932Y219891D01*
X557225Y221185D01*
X557926Y222875D01*
Y224705D01*
X557225Y226396D01*
X555932Y227690D01*
X554241Y228390D01*
X552411D01*
X550720Y227690D01*
X550397Y227367D01*
X549464Y228300D01*
X547773Y229000D01*
D02*
G37*
G36*
X61973Y223072D02*
X59551D01*
X57211Y222446D01*
X55113Y221234D01*
X53400Y219521D01*
X52189Y217423D01*
X51562Y215084D01*
Y212661D01*
X52189Y210321D01*
X53400Y208224D01*
X55113Y206511D01*
X57211Y205299D01*
X59551Y204673D01*
X61973D01*
X64313Y205299D01*
X66411Y206511D01*
X68124Y208224D01*
X69335Y210321D01*
X69962Y212661D01*
Y215084D01*
X69335Y217423D01*
X68124Y219521D01*
X66411Y221234D01*
X64313Y222446D01*
X61973Y223072D01*
D02*
G37*
G36*
X45502Y212603D02*
X36632D01*
Y203732D01*
X36697D01*
X39276Y204424D01*
X41588Y205758D01*
X43476Y207646D01*
X44811Y209959D01*
X45502Y212537D01*
Y212603D01*
D02*
G37*
G36*
X34092D02*
X25222D01*
Y212537D01*
X25913Y209959D01*
X27248Y207646D01*
X29136Y205758D01*
X31448Y204424D01*
X34027Y203732D01*
X34092D01*
Y212603D01*
D02*
G37*
G36*
X711900Y210191D02*
Y201300D01*
X720791D01*
X720115Y203824D01*
X718742Y206201D01*
X716801Y208142D01*
X714424Y209515D01*
X711900Y210191D01*
D02*
G37*
G36*
X686500D02*
Y201300D01*
X695391D01*
X694715Y203824D01*
X693342Y206201D01*
X691401Y208142D01*
X689024Y209515D01*
X686500Y210191D01*
D02*
G37*
G36*
X708900Y210191D02*
X706376Y209515D01*
X703999Y208142D01*
X702058Y206201D01*
X700685Y203824D01*
X700009Y201300D01*
X708900D01*
Y210191D01*
D02*
G37*
G36*
X683500D02*
X680976Y209515D01*
X678599Y208142D01*
X676658Y206201D01*
X675285Y203824D01*
X674609Y201300D01*
X683500D01*
Y210191D01*
D02*
G37*
G36*
X36697Y198612D02*
X36632D01*
Y189743D01*
X45502D01*
Y189807D01*
X44811Y192386D01*
X43476Y194699D01*
X41588Y196586D01*
X39276Y197921D01*
X36697Y198612D01*
D02*
G37*
G36*
X34092D02*
X34027D01*
X31448Y197921D01*
X29136Y196586D01*
X27248Y194699D01*
X25913Y192386D01*
X25222Y189807D01*
Y189743D01*
X34092D01*
Y198612D01*
D02*
G37*
G36*
X708900Y198300D02*
X700009D01*
X700685Y195776D01*
X702058Y193399D01*
X703999Y191458D01*
X706376Y190085D01*
X708900Y189409D01*
Y198300D01*
D02*
G37*
G36*
X683500D02*
X674609D01*
X675285Y195776D01*
X676658Y193399D01*
X678599Y191458D01*
X680976Y190085D01*
X683500Y189409D01*
Y198300D01*
D02*
G37*
G36*
X720791D02*
X711900D01*
Y189409D01*
X714424Y190085D01*
X716801Y191458D01*
X718742Y193399D01*
X720115Y195776D01*
X720791Y198300D01*
D02*
G37*
G36*
X695391D02*
X686500D01*
Y189409D01*
X689024Y190085D01*
X691401Y191458D01*
X693342Y193399D01*
X694715Y195776D01*
X695391Y198300D01*
D02*
G37*
G36*
X61973Y197673D02*
X59551D01*
X57211Y197045D01*
X55113Y195834D01*
X53400Y194121D01*
X52189Y192024D01*
X51562Y189684D01*
Y187261D01*
X52189Y184921D01*
X53400Y182824D01*
X55113Y181111D01*
X57211Y179900D01*
X59551Y179272D01*
X61973D01*
X64313Y179900D01*
X66411Y181111D01*
X68124Y182824D01*
X69335Y184921D01*
X69962Y187261D01*
Y189684D01*
X69335Y192024D01*
X68124Y194121D01*
X66411Y195834D01*
X64313Y197045D01*
X61973Y197673D01*
D02*
G37*
G36*
X45502Y187202D02*
X36632D01*
Y178333D01*
X36697D01*
X39276Y179023D01*
X41588Y180359D01*
X43476Y182246D01*
X44811Y184559D01*
X45502Y187138D01*
Y187202D01*
D02*
G37*
G36*
X34092D02*
X25222D01*
Y187138D01*
X25913Y184559D01*
X27248Y182246D01*
X29136Y180359D01*
X31448Y179023D01*
X34027Y178333D01*
X34092D01*
Y187202D01*
D02*
G37*
G36*
X208869Y193664D02*
X207039D01*
X205348Y192964D01*
X204054Y191670D01*
X203354Y189979D01*
Y188149D01*
X204054Y186458D01*
X204734Y185777D01*
X205274Y185038D01*
X204734Y184118D01*
X204141Y183524D01*
X203440Y181834D01*
Y180004D01*
X204141Y178313D01*
X205435Y177019D01*
X207125Y176319D01*
X208955D01*
X210646Y177019D01*
X211940Y178313D01*
X212856Y177570D01*
X213320Y177106D01*
X215011Y176405D01*
X216841D01*
X218531Y177106D01*
X219825Y178400D01*
X220526Y180090D01*
Y181920D01*
X219825Y183611D01*
X218531Y184905D01*
X218373Y185699D01*
X218959Y186285D01*
X219659Y187976D01*
Y189805D01*
X218959Y191496D01*
X217665Y192790D01*
X215974Y193490D01*
X214144D01*
X212453Y192790D01*
X211593Y191930D01*
X210559Y192964D01*
X208869Y193664D01*
D02*
G37*
G36*
X36697Y173213D02*
X36632D01*
Y164342D01*
X45502D01*
Y164407D01*
X44811Y166986D01*
X43476Y169299D01*
X41588Y171187D01*
X39276Y172521D01*
X36697Y173213D01*
D02*
G37*
G36*
X34092D02*
X34027D01*
X31448Y172521D01*
X29136Y171187D01*
X27248Y169299D01*
X25913Y166986D01*
X25222Y164407D01*
Y164342D01*
X34092D01*
Y173213D01*
D02*
G37*
G36*
X711746Y184625D02*
X709054D01*
X706453Y183928D01*
X704122Y182582D01*
X702218Y180678D01*
X700872Y178347D01*
X700175Y175746D01*
Y173054D01*
X700872Y170453D01*
X702218Y168122D01*
X704122Y166218D01*
X706453Y164872D01*
X709054Y164175D01*
X711746D01*
X714347Y164872D01*
X716678Y166218D01*
X718582Y168122D01*
X719928Y170453D01*
X720625Y173054D01*
Y175746D01*
X719928Y178347D01*
X718582Y180678D01*
X716678Y182582D01*
X714347Y183928D01*
X711746Y184625D01*
D02*
G37*
G36*
X686346D02*
X683654D01*
X681053Y183928D01*
X678722Y182582D01*
X676818Y180678D01*
X675472Y178347D01*
X674775Y175746D01*
Y173054D01*
X675472Y170453D01*
X676818Y168122D01*
X678722Y166218D01*
X681053Y164872D01*
X683654Y164175D01*
X686346D01*
X688947Y164872D01*
X691278Y166218D01*
X693182Y168122D01*
X694528Y170453D01*
X695225Y173054D01*
Y175746D01*
X694528Y178347D01*
X693182Y180678D01*
X691278Y182582D01*
X688947Y183928D01*
X686346Y184625D01*
D02*
G37*
G36*
X281897Y183832D02*
X280067D01*
X278376Y183132D01*
X277082Y181838D01*
X276382Y180147D01*
Y178317D01*
X277082Y176626D01*
X278376Y175333D01*
X280067Y174632D01*
X281897D01*
X283588Y175333D01*
X284145Y175890D01*
X284664Y176142D01*
X285557Y175441D01*
X285438Y174146D01*
X285109Y173956D01*
X283880Y172728D01*
X283011Y171223D01*
X282561Y169544D01*
Y167806D01*
X283011Y166128D01*
X283880Y164623D01*
X285109Y163394D01*
X286614Y162525D01*
X288292Y162075D01*
X290030D01*
X291709Y162525D01*
X293214Y163394D01*
X294442Y164623D01*
X295311Y166128D01*
X295761Y167806D01*
Y169544D01*
X295311Y171223D01*
X294442Y172728D01*
X293214Y173956D01*
X292671Y174270D01*
X292476Y175849D01*
X293061Y176433D01*
X293761Y178124D01*
Y179954D01*
X293061Y181644D01*
X291767Y182938D01*
X290076Y183639D01*
X288246D01*
X286555Y182938D01*
X285998Y182381D01*
X284882Y181838D01*
X283588Y183132D01*
X281897Y183832D01*
D02*
G37*
G36*
X69962Y172272D02*
X51562D01*
Y153872D01*
X69962D01*
Y172272D01*
D02*
G37*
G36*
X45502Y161803D02*
X36632D01*
Y152933D01*
X36697D01*
X39276Y153624D01*
X41588Y154958D01*
X43476Y156846D01*
X44811Y159159D01*
X45502Y161737D01*
Y161803D01*
D02*
G37*
G36*
X34092D02*
X25222D01*
Y161737D01*
X25913Y159159D01*
X27248Y156846D01*
X29136Y154958D01*
X31448Y153624D01*
X34027Y152933D01*
X34092D01*
Y161803D01*
D02*
G37*
G36*
X686500Y159391D02*
Y150500D01*
X695391D01*
X694715Y153024D01*
X693342Y155401D01*
X691401Y157342D01*
X689024Y158715D01*
X686500Y159391D01*
D02*
G37*
G36*
X683500Y159391D02*
X680976Y158715D01*
X678599Y157342D01*
X676658Y155401D01*
X675285Y153024D01*
X674609Y150500D01*
X683500D01*
Y159391D01*
D02*
G37*
G36*
X711746Y159225D02*
X709054D01*
X706453Y158528D01*
X704122Y157182D01*
X702218Y155278D01*
X700872Y152947D01*
X700175Y150346D01*
Y147654D01*
X700872Y145053D01*
X702218Y142722D01*
X704122Y140818D01*
X706453Y139472D01*
X709054Y138775D01*
X711746D01*
X714347Y139472D01*
X716678Y140818D01*
X718582Y142722D01*
X719928Y145053D01*
X720625Y147654D01*
Y150346D01*
X719928Y152947D01*
X718582Y155278D01*
X716678Y157182D01*
X714347Y158528D01*
X711746Y159225D01*
D02*
G37*
G36*
X683500Y147500D02*
X674609D01*
X675285Y144976D01*
X676658Y142599D01*
X678599Y140658D01*
X680976Y139285D01*
X683500Y138609D01*
Y147500D01*
D02*
G37*
G36*
X695391D02*
X686500D01*
Y138609D01*
X689024Y139285D01*
X691401Y140658D01*
X693342Y142599D01*
X694715Y144976D01*
X695391Y147500D01*
D02*
G37*
G36*
X312516Y121264D02*
X310686D01*
X308995Y120563D01*
X307701Y119270D01*
X307001Y117579D01*
Y115749D01*
X307701Y114058D01*
X308707Y113052D01*
X308960Y112542D01*
X308789Y111475D01*
X307962Y110648D01*
X307262Y108957D01*
Y107127D01*
X307962Y105436D01*
X309256Y104142D01*
X310947Y103442D01*
X312777D01*
X314468Y104142D01*
X315762Y105436D01*
X316462Y107127D01*
Y108957D01*
X315762Y110648D01*
X314755Y111654D01*
X314503Y112164D01*
X314673Y113231D01*
X315500Y114058D01*
X316201Y115749D01*
Y117579D01*
X315500Y119270D01*
X314206Y120563D01*
X312516Y121264D01*
D02*
G37*
G36*
X489922Y119133D02*
X488092D01*
X486401Y118433D01*
X485107Y117139D01*
X484407Y115448D01*
Y113618D01*
X485107Y111927D01*
X486401Y110633D01*
X488092Y109933D01*
X489922D01*
X491613Y110633D01*
X491615Y110635D01*
X493743Y109784D01*
Y109131D01*
X494193Y107452D01*
X495061Y105948D01*
X496290Y104719D01*
X497795Y103850D01*
X499474Y103400D01*
X501212D01*
X502890Y103850D01*
X504395Y104719D01*
X505624Y105948D01*
X506493Y107452D01*
X506943Y109131D01*
Y110869D01*
X506493Y112548D01*
X505624Y114052D01*
X504395Y115281D01*
X502890Y116150D01*
X501212Y116600D01*
X499474D01*
X497795Y116150D01*
X496290Y115281D01*
X495715Y114706D01*
X493557Y115568D01*
X492907Y117139D01*
X491613Y118433D01*
X489922Y119133D01*
D02*
G37*
G36*
X511694Y97453D02*
X509864D01*
X508173Y96752D01*
X506879Y95458D01*
X506179Y93768D01*
Y91938D01*
X506879Y90247D01*
X508173Y88953D01*
X509864Y88253D01*
X511694D01*
X513385Y88953D01*
X514679Y90247D01*
X515379Y91938D01*
Y93768D01*
X514679Y95458D01*
X513385Y96752D01*
X511694Y97453D01*
D02*
G37*
G36*
X241793Y68791D02*
X239863D01*
X238081Y68053D01*
X237408Y67380D01*
X236578Y66788D01*
X235749Y67380D01*
X235075Y68053D01*
X233293Y68791D01*
X231363D01*
X229581Y68053D01*
X228908Y67380D01*
X228078Y66788D01*
X227248Y67380D01*
X226576Y68053D01*
X224793Y68791D01*
X222863D01*
X221081Y68053D01*
X220408Y67380D01*
X219578Y66788D01*
X218748Y67380D01*
X218076Y68053D01*
X216293Y68791D01*
X214363D01*
X212581Y68053D01*
X211908Y67380D01*
X211078Y66788D01*
X210249Y67380D01*
X209576Y68053D01*
X207793Y68791D01*
X205863D01*
X204081Y68053D01*
X203408Y67380D01*
X202578Y66788D01*
X201749Y67380D01*
X201075Y68053D01*
X199293Y68791D01*
X197363D01*
X195581Y68053D01*
X194484Y66956D01*
X194058Y66710D01*
X192915Y66865D01*
X192236Y67544D01*
X191098Y68016D01*
Y66787D01*
X188558D01*
Y68016D01*
X187421Y67544D01*
X186225Y66349D01*
X185754Y65212D01*
X186983D01*
Y62671D01*
X185754D01*
X186225Y61534D01*
X187421Y60339D01*
X188558Y59867D01*
Y61096D01*
X191098D01*
Y59867D01*
X192236Y60339D01*
X192915Y61018D01*
X194058Y61173D01*
X194484Y60927D01*
X195581Y59830D01*
X197363Y59092D01*
X199293D01*
X201075Y59830D01*
X201749Y60503D01*
X202578Y61095D01*
X203408Y60503D01*
X204081Y59830D01*
X205863Y59092D01*
X207793D01*
X209576Y59830D01*
X210249Y60503D01*
X211078Y61095D01*
X211908Y60503D01*
X212581Y59830D01*
X214363Y59092D01*
X216293D01*
X218076Y59830D01*
X218748Y60503D01*
X219578Y61095D01*
X220408Y60503D01*
X221081Y59830D01*
X222863Y59092D01*
X224793D01*
X226576Y59830D01*
X227248Y60503D01*
X228078Y61095D01*
X228908Y60503D01*
X229581Y59830D01*
X231363Y59092D01*
X233293D01*
X235075Y59830D01*
X235749Y60503D01*
X236578Y61095D01*
X237408Y60503D01*
X238081Y59830D01*
X239863Y59092D01*
X241793D01*
X243575Y59830D01*
X244673Y60927D01*
X245098Y61173D01*
X246241Y61018D01*
X246921Y60339D01*
X248058Y59867D01*
Y61096D01*
X250598D01*
Y59867D01*
X251736Y60339D01*
X252931Y61534D01*
X253402Y62671D01*
X252173D01*
Y65212D01*
X253402D01*
X252931Y66349D01*
X251736Y67544D01*
X250598Y68016D01*
Y66787D01*
X248058D01*
Y68016D01*
X246921Y67544D01*
X246241Y66865D01*
X245098Y66710D01*
X244673Y66956D01*
X243575Y68053D01*
X241793Y68791D01*
D02*
G37*
G36*
X507915Y72600D02*
X506085D01*
X504394Y71900D01*
X503100Y70606D01*
X502400Y68915D01*
Y67085D01*
X503100Y65394D01*
X504262Y64233D01*
X503513Y63484D01*
X502812Y61793D01*
Y59963D01*
X503513Y58272D01*
X504807Y56978D01*
X506497Y56278D01*
X508327D01*
X510018Y56978D01*
X511312Y58272D01*
X512012Y59963D01*
Y61793D01*
X511312Y63484D01*
X510151Y64645D01*
X510900Y65394D01*
X511600Y67085D01*
Y68915D01*
X510900Y70606D01*
X509606Y71900D01*
X507915Y72600D01*
D02*
G37*
G36*
X264098Y68575D02*
Y55412D01*
X269929D01*
Y61642D01*
X269687Y63479D01*
X268978Y65192D01*
X267849Y66663D01*
X266378Y67791D01*
X264666Y68500D01*
X264098Y68575D01*
D02*
G37*
G36*
X177598D02*
Y55412D01*
X183429D01*
Y61642D01*
X183187Y63479D01*
X182478Y65192D01*
X181349Y66663D01*
X179879Y67791D01*
X178166Y68500D01*
X177598Y68575D01*
D02*
G37*
G36*
X261558Y68575D02*
X260990Y68500D01*
X259278Y67791D01*
X257807Y66663D01*
X256679Y65192D01*
X255969Y63479D01*
X255727Y61642D01*
Y55412D01*
X261558D01*
Y68575D01*
D02*
G37*
G36*
X175058D02*
X174490Y68500D01*
X172778Y67791D01*
X171307Y66663D01*
X170179Y65192D01*
X169469Y63479D01*
X169227Y61642D01*
Y55412D01*
X175058D01*
Y68575D01*
D02*
G37*
G36*
X241793Y55292D02*
X239863D01*
X238081Y54553D01*
X237408Y53880D01*
X236578Y53288D01*
X235749Y53880D01*
X235075Y54553D01*
X233293Y55292D01*
X231363D01*
X229581Y54553D01*
X228908Y53880D01*
X228078Y53288D01*
X227248Y53880D01*
X226576Y54553D01*
X224793Y55292D01*
X222863D01*
X221081Y54553D01*
X220408Y53880D01*
X219578Y53288D01*
X218748Y53880D01*
X218076Y54553D01*
X216293Y55292D01*
X214363D01*
X212581Y54553D01*
X211908Y53880D01*
X211078Y53288D01*
X210249Y53880D01*
X209576Y54553D01*
X207793Y55292D01*
X205863D01*
X204081Y54553D01*
X203408Y53880D01*
X202578Y53288D01*
X201749Y53880D01*
X201075Y54553D01*
X199293Y55292D01*
X197363D01*
X195581Y54553D01*
X194484Y53456D01*
X194058Y53210D01*
X192915Y53365D01*
X192236Y54044D01*
X191098Y54516D01*
Y53287D01*
X188558D01*
Y54516D01*
X187421Y54044D01*
X186225Y52849D01*
X185754Y51712D01*
X186983D01*
Y49172D01*
X185754D01*
X186225Y48034D01*
X187421Y46838D01*
X188558Y46367D01*
Y47596D01*
X191098D01*
Y46367D01*
X192236Y46838D01*
X192915Y47518D01*
X194058Y47673D01*
X194484Y47427D01*
X195581Y46330D01*
X197363Y45592D01*
X199293D01*
X201075Y46330D01*
X201749Y47003D01*
X202578Y47595D01*
X203408Y47003D01*
X204081Y46330D01*
X205863Y45592D01*
X207793D01*
X209576Y46330D01*
X210249Y47003D01*
X211078Y47595D01*
X211908Y47003D01*
X212581Y46330D01*
X214363Y45592D01*
X216293D01*
X218076Y46330D01*
X218748Y47003D01*
X219578Y47595D01*
X220408Y47003D01*
X221081Y46330D01*
X222863Y45592D01*
X224793D01*
X226576Y46330D01*
X227248Y47003D01*
X228078Y47595D01*
X228908Y47003D01*
X229581Y46330D01*
X231363Y45592D01*
X233293D01*
X235075Y46330D01*
X235749Y47003D01*
X236578Y47595D01*
X237408Y47003D01*
X238081Y46330D01*
X239863Y45592D01*
X241793D01*
X243575Y46330D01*
X244673Y47427D01*
X245098Y47673D01*
X246241Y47518D01*
X246921Y46838D01*
X248058Y46367D01*
Y47596D01*
X250598D01*
Y46367D01*
X251736Y46838D01*
X252931Y48034D01*
X253402Y49172D01*
X252173D01*
Y51712D01*
X253402D01*
X252931Y52849D01*
X251736Y54044D01*
X250598Y54516D01*
Y53287D01*
X248058D01*
Y54516D01*
X246921Y54044D01*
X246241Y53365D01*
X245098Y53210D01*
X244673Y53456D01*
X243575Y54553D01*
X241793Y55292D01*
D02*
G37*
G36*
X52000Y106696D02*
X47512Y106343D01*
X43135Y105292D01*
X38976Y103570D01*
X35137Y101217D01*
X31714Y98294D01*
X28791Y94871D01*
X26438Y91032D01*
X24716Y86873D01*
X23665Y82496D01*
X23312Y78008D01*
X23665Y73520D01*
X24716Y69143D01*
X26438Y64984D01*
X28791Y61145D01*
X31714Y57722D01*
X35137Y54798D01*
X38976Y52446D01*
X43135Y50724D01*
X47512Y49673D01*
X52000Y49320D01*
X56488Y49673D01*
X60865Y50724D01*
X65024Y52446D01*
X68863Y54798D01*
X72286Y57722D01*
X75209Y61145D01*
X77562Y64984D01*
X79284Y69143D01*
X80335Y73520D01*
X80688Y78008D01*
X80335Y82496D01*
X79284Y86873D01*
X77562Y91032D01*
X75209Y94871D01*
X72286Y98294D01*
X68863Y101217D01*
X65024Y103570D01*
X60865Y105292D01*
X56488Y106343D01*
X52000Y106696D01*
D02*
G37*
G36*
X269929Y52871D02*
X264098D01*
Y39708D01*
X264666Y39783D01*
X266378Y40492D01*
X267849Y41620D01*
X268978Y43091D01*
X269687Y44804D01*
X269929Y46642D01*
Y52871D01*
D02*
G37*
G36*
X183429D02*
X177598D01*
Y39708D01*
X178166Y39783D01*
X179879Y40492D01*
X181349Y41620D01*
X182478Y43091D01*
X183187Y44804D01*
X183429Y46642D01*
Y52871D01*
D02*
G37*
G36*
X261558D02*
X255727D01*
Y46642D01*
X255969Y44804D01*
X256679Y43091D01*
X257807Y41620D01*
X259278Y40492D01*
X260990Y39783D01*
X261558Y39708D01*
Y52871D01*
D02*
G37*
G36*
X175058D02*
X169227D01*
Y46642D01*
X169469Y44804D01*
X170179Y43091D01*
X171307Y41620D01*
X172778Y40492D01*
X174490Y39783D01*
X175058Y39708D01*
Y52871D01*
D02*
G37*
G36*
X275821Y40291D02*
X273991D01*
X272300Y39591D01*
X271006Y38297D01*
X270306Y36606D01*
Y34776D01*
X271006Y33085D01*
X272300Y31791D01*
X273991Y31091D01*
X275821D01*
X277512Y31791D01*
X278806Y33085D01*
X279506Y34776D01*
Y36606D01*
X278806Y38297D01*
X277512Y39591D01*
X275821Y40291D01*
D02*
G37*
G36*
X626558Y37931D02*
X626052D01*
X622621Y37012D01*
X619545Y35236D01*
X617034Y32725D01*
X615257Y29648D01*
X614971Y28581D01*
X613609Y28402D01*
X612958Y29529D01*
X611415Y31071D01*
X609526Y32162D01*
X607419Y32727D01*
X605237D01*
X603130Y32162D01*
X601241Y31071D01*
X599698Y29529D01*
X598608Y27639D01*
X598043Y25532D01*
Y23351D01*
X598608Y21244D01*
X599698Y19354D01*
X601241Y17812D01*
X603130Y16721D01*
X605237Y16157D01*
X607419D01*
X609526Y16721D01*
X611415Y17812D01*
X612958Y19354D01*
X613609Y20482D01*
X614971Y20302D01*
X615257Y19235D01*
X617034Y16158D01*
X619545Y13647D01*
X622621Y11871D01*
X626052Y10951D01*
X626558D01*
Y24441D01*
Y37931D01*
D02*
G37*
G36*
X629604D02*
X629098D01*
Y25712D01*
X641318D01*
Y26218D01*
X640399Y29648D01*
X638623Y32725D01*
X636111Y35236D01*
X633035Y37012D01*
X629604Y37931D01*
D02*
G37*
G36*
X483558D02*
X483052D01*
X479621Y37012D01*
X476545Y35236D01*
X474034Y32725D01*
X472257Y29648D01*
X471338Y26218D01*
Y25712D01*
X483558D01*
Y37931D01*
D02*
G37*
G36*
X264098Y31275D02*
Y21611D01*
X269929D01*
Y24341D01*
X269687Y26179D01*
X268978Y27892D01*
X267849Y29362D01*
X266378Y30491D01*
X264666Y31200D01*
X264098Y31275D01*
D02*
G37*
G36*
X177598D02*
Y21611D01*
X183429D01*
Y24341D01*
X183187Y26179D01*
X182478Y27892D01*
X181349Y29362D01*
X179879Y30491D01*
X178166Y31200D01*
X177598Y31275D01*
D02*
G37*
G36*
X261558Y31275D02*
X260990Y31200D01*
X259278Y30491D01*
X257807Y29362D01*
X256679Y27892D01*
X255969Y26179D01*
X255727Y24341D01*
Y21611D01*
X261558D01*
Y31275D01*
D02*
G37*
G36*
X175058D02*
X174490Y31200D01*
X172778Y30491D01*
X171307Y29362D01*
X170179Y27892D01*
X169469Y26179D01*
X169227Y24341D01*
Y21611D01*
X175058D01*
Y31275D01*
D02*
G37*
G36*
X587419Y32727D02*
X585237D01*
X583130Y32162D01*
X581241Y31071D01*
X579698Y29529D01*
X578608Y27639D01*
X578043Y25532D01*
Y23351D01*
X578608Y21244D01*
X579698Y19354D01*
X581241Y17812D01*
X583130Y16721D01*
X585237Y16157D01*
X587419D01*
X589526Y16721D01*
X591415Y17812D01*
X592958Y19354D01*
X594049Y21244D01*
X594613Y23351D01*
Y25532D01*
X594049Y27639D01*
X592958Y29529D01*
X591415Y31071D01*
X589526Y32162D01*
X587419Y32727D01*
D02*
G37*
G36*
X567419D02*
X565237D01*
X563130Y32162D01*
X561241Y31071D01*
X559698Y29529D01*
X558608Y27639D01*
X558043Y25532D01*
Y23351D01*
X558608Y21244D01*
X559698Y19354D01*
X561241Y17812D01*
X563130Y16721D01*
X565237Y16157D01*
X567419D01*
X569526Y16721D01*
X571415Y17812D01*
X572958Y19354D01*
X574049Y21244D01*
X574613Y23351D01*
Y25532D01*
X574049Y27639D01*
X572958Y29529D01*
X571415Y31071D01*
X569526Y32162D01*
X567419Y32727D01*
D02*
G37*
G36*
X547419D02*
X545237D01*
X543130Y32162D01*
X541241Y31071D01*
X539698Y29529D01*
X538608Y27639D01*
X538043Y25532D01*
Y23351D01*
X538608Y21244D01*
X539698Y19354D01*
X541241Y17812D01*
X543130Y16721D01*
X545237Y16157D01*
X547419D01*
X549526Y16721D01*
X551415Y17812D01*
X552958Y19354D01*
X554049Y21244D01*
X554613Y23351D01*
Y25532D01*
X554049Y27639D01*
X552958Y29529D01*
X551415Y31071D01*
X549526Y32162D01*
X547419Y32727D01*
D02*
G37*
G36*
X527419D02*
X525237D01*
X523130Y32162D01*
X521241Y31071D01*
X519698Y29529D01*
X518608Y27639D01*
X518043Y25532D01*
Y23351D01*
X518608Y21244D01*
X519698Y19354D01*
X521241Y17812D01*
X523130Y16721D01*
X525237Y16157D01*
X527419D01*
X529526Y16721D01*
X531415Y17812D01*
X532958Y19354D01*
X534049Y21244D01*
X534613Y23351D01*
Y25532D01*
X534049Y27639D01*
X532958Y29529D01*
X531415Y31071D01*
X529526Y32162D01*
X527419Y32727D01*
D02*
G37*
G36*
X486604Y37931D02*
X486098D01*
Y24441D01*
Y10951D01*
X486604D01*
X490035Y11871D01*
X493111Y13647D01*
X495623Y16158D01*
X496773Y18151D01*
X498043Y17811D01*
Y16157D01*
X514613D01*
Y32727D01*
X498043D01*
Y31072D01*
X496773Y30732D01*
X495623Y32725D01*
X493111Y35236D01*
X490035Y37012D01*
X486604Y37931D01*
D02*
G37*
G36*
X684000Y71696D02*
X679512Y71343D01*
X675135Y70292D01*
X670976Y68570D01*
X667137Y66217D01*
X663714Y63294D01*
X660791Y59871D01*
X658438Y56032D01*
X656716Y51873D01*
X655665Y47496D01*
X655312Y43008D01*
X655665Y38520D01*
X656716Y34143D01*
X658438Y29984D01*
X660791Y26145D01*
X663714Y22722D01*
X667137Y19799D01*
X670976Y17446D01*
X675135Y15724D01*
X679512Y14673D01*
X684000Y14319D01*
X688488Y14673D01*
X692865Y15724D01*
X697024Y17446D01*
X700863Y19799D01*
X704286Y22722D01*
X707209Y26145D01*
X709562Y29984D01*
X711284Y34143D01*
X712335Y38520D01*
X712688Y43008D01*
X712335Y47496D01*
X711284Y51873D01*
X709562Y56032D01*
X707209Y59871D01*
X704286Y63294D01*
X700863Y66217D01*
X697024Y68570D01*
X692865Y70292D01*
X688488Y71343D01*
X684000Y71696D01*
D02*
G37*
G36*
X641318Y23172D02*
X629098D01*
Y10951D01*
X629604D01*
X633035Y11871D01*
X636111Y13647D01*
X638623Y16158D01*
X640399Y19235D01*
X641318Y22666D01*
Y23172D01*
D02*
G37*
G36*
X483558D02*
X471338D01*
Y22666D01*
X472257Y19235D01*
X474034Y16158D01*
X476545Y13647D01*
X479621Y11871D01*
X483052Y10951D01*
X483558D01*
Y23172D01*
D02*
G37*
G36*
X269929Y19072D02*
X264098D01*
Y9408D01*
X264666Y9483D01*
X266378Y10192D01*
X267849Y11321D01*
X268978Y12791D01*
X269687Y14504D01*
X269929Y16342D01*
Y19072D01*
D02*
G37*
G36*
X183429D02*
X177598D01*
Y9408D01*
X178166Y9483D01*
X179879Y10192D01*
X181349Y11321D01*
X182478Y12791D01*
X183187Y14504D01*
X183429Y16342D01*
Y19072D01*
D02*
G37*
G36*
X261558D02*
X255727D01*
Y16342D01*
X255969Y14504D01*
X256679Y12791D01*
X257807Y11321D01*
X259278Y10192D01*
X260990Y9483D01*
X261558Y9408D01*
Y19072D01*
D02*
G37*
G36*
X175058D02*
X169227D01*
Y16342D01*
X169469Y14504D01*
X170179Y12791D01*
X171307Y11321D01*
X172778Y10192D01*
X174490Y9483D01*
X175058Y9408D01*
Y19072D01*
D02*
G37*
%LPD*%
G36*
X232492Y331015D02*
X232272Y330814D01*
X232076Y330604D01*
X231902Y330386D01*
X231752Y330158D01*
X231625Y329922D01*
X231521Y329677D01*
X231440Y329422D01*
X231382Y329159D01*
X231347Y328887D01*
X231336Y328606D01*
X229336Y328759D01*
X229326Y329034D01*
X229294Y329305D01*
X229243Y329572D01*
X229170Y329834D01*
X229077Y330092D01*
X228964Y330345D01*
X228830Y330594D01*
X228675Y330839D01*
X228499Y331079D01*
X228303Y331315D01*
X232492Y331015D01*
D02*
G37*
G36*
X231336Y328466D02*
X231346Y328105D01*
X231375Y327771D01*
X231424Y327465D01*
X231493Y327187D01*
X231581Y326937D01*
X231689Y326716D01*
X231816Y326522D01*
X231963Y326356D01*
X232130Y326218D01*
X232316Y326109D01*
X228320Y326281D01*
X228513Y326374D01*
X228685Y326497D01*
X228838Y326650D01*
X228970Y326833D01*
X229082Y327045D01*
X229173Y327287D01*
X229244Y327559D01*
X229295Y327861D01*
X229326Y328193D01*
X229336Y328554D01*
X231336Y328466D01*
D02*
G37*
D11*
X289161Y168675D02*
Y179039D01*
X280982Y179232D02*
X289161Y179039D01*
X489007Y114533D02*
X500343Y110000D01*
X140000Y430000D02*
X141099Y428901D01*
Y419219D02*
Y428901D01*
Y419219D02*
X141864Y418453D01*
X294232Y328686D02*
X302313Y320605D01*
X230336Y321831D02*
Y333087D01*
X230121Y321616D02*
X230336Y321831D01*
Y333087D02*
X230551Y333302D01*
D13*
X444747Y421395D02*
X445684D01*
X443142Y423000D02*
X444747Y421395D01*
X418000Y423000D02*
X443142D01*
X477351Y467091D02*
Y468835D01*
Y465348D02*
Y467091D01*
X477047Y452701D02*
Y465044D01*
X477351Y465348D01*
Y468835D02*
X478779Y470262D01*
D92*
X685000Y149000D02*
D03*
X710400Y199800D02*
D03*
X685000D02*
D03*
X710400Y250600D02*
D03*
X685000Y276000D02*
D03*
Y326800D02*
D03*
X710400D02*
D03*
Y149000D02*
D03*
Y174400D02*
D03*
X685000D02*
D03*
X710400Y225200D02*
D03*
X685000D02*
D03*
Y250600D02*
D03*
X710400Y276000D02*
D03*
Y301400D02*
D03*
X685000D02*
D03*
X710400Y352200D02*
D03*
X685000D02*
D03*
X710400Y377600D02*
D03*
D93*
X685000D02*
D03*
D94*
X560140Y421023D02*
D03*
X518764Y499120D02*
D03*
X379763D02*
D03*
X354763D02*
D03*
X560140Y446423D02*
D03*
X493764Y499120D02*
D03*
D95*
X627828Y24441D02*
D03*
X484828D02*
D03*
D96*
X34264Y436120D02*
D03*
Y336120D02*
D03*
D97*
X249328Y50441D02*
D03*
X189828Y63941D02*
D03*
X249328D02*
D03*
X189828Y50441D02*
D03*
X198328Y63941D02*
D03*
X206828D02*
D03*
X215328D02*
D03*
X223828D02*
D03*
X232328D02*
D03*
X240828D02*
D03*
Y50441D02*
D03*
X232328D02*
D03*
X223828D02*
D03*
X215328D02*
D03*
X206828D02*
D03*
X198328D02*
D03*
D98*
X262828Y54142D02*
D03*
X176328D02*
D03*
D99*
X262828Y20341D02*
D03*
X176328D02*
D03*
D100*
X35362Y239272D02*
D03*
Y188472D02*
D03*
Y213873D02*
D03*
Y163072D02*
D03*
X60762Y188472D02*
D03*
Y213873D02*
D03*
Y239272D02*
D03*
D101*
Y163072D02*
D03*
D102*
X606328Y24441D02*
D03*
X586328D02*
D03*
X566328D02*
D03*
X546328D02*
D03*
X526328D02*
D03*
D103*
X506328D02*
D03*
D104*
X404763Y499120D02*
D03*
X543764D02*
D03*
D105*
X265763Y519121D02*
D03*
X240763D02*
D03*
X127764D02*
D03*
X102764D02*
D03*
D106*
X560140Y395623D02*
D03*
D107*
X21764Y366121D02*
D03*
Y386120D02*
D03*
Y406120D02*
D03*
X46764Y366121D02*
D03*
Y386120D02*
D03*
Y406120D02*
D03*
D108*
X319339Y116748D02*
D03*
X507000Y68000D02*
D03*
X507412Y60878D02*
D03*
X735837Y533571D02*
D03*
Y518571D02*
D03*
Y503571D02*
D03*
Y473571D02*
D03*
Y458571D02*
D03*
Y443571D02*
D03*
Y428571D02*
D03*
Y413571D02*
D03*
Y398571D02*
D03*
Y383571D02*
D03*
Y368571D02*
D03*
Y353571D02*
D03*
Y338571D02*
D03*
Y323571D02*
D03*
Y308571D02*
D03*
Y293571D02*
D03*
Y278571D02*
D03*
Y263571D02*
D03*
Y248571D02*
D03*
Y233571D02*
D03*
Y218571D02*
D03*
Y203571D02*
D03*
Y188571D02*
D03*
Y173571D02*
D03*
Y158571D02*
D03*
Y143571D02*
D03*
Y128571D02*
D03*
Y113571D02*
D03*
Y98571D02*
D03*
Y83571D02*
D03*
Y68571D02*
D03*
Y53571D02*
D03*
X720837Y533571D02*
D03*
Y518571D02*
D03*
Y458571D02*
D03*
Y443571D02*
D03*
Y428571D02*
D03*
Y413571D02*
D03*
Y398571D02*
D03*
Y368571D02*
D03*
Y263571D02*
D03*
Y233571D02*
D03*
Y158571D02*
D03*
Y128571D02*
D03*
Y113571D02*
D03*
Y98571D02*
D03*
Y83571D02*
D03*
Y68571D02*
D03*
Y53571D02*
D03*
Y8571D02*
D03*
X705837Y533571D02*
D03*
Y518571D02*
D03*
Y443571D02*
D03*
Y428571D02*
D03*
Y413571D02*
D03*
Y398571D02*
D03*
Y128571D02*
D03*
Y113571D02*
D03*
Y98571D02*
D03*
Y83571D02*
D03*
Y68571D02*
D03*
Y8571D02*
D03*
X690837Y533571D02*
D03*
Y518571D02*
D03*
Y458571D02*
D03*
Y443571D02*
D03*
Y428571D02*
D03*
Y413571D02*
D03*
Y398571D02*
D03*
Y128571D02*
D03*
Y113571D02*
D03*
Y98571D02*
D03*
Y83571D02*
D03*
Y8571D02*
D03*
X675837Y503571D02*
D03*
Y488571D02*
D03*
Y473571D02*
D03*
Y458571D02*
D03*
Y443571D02*
D03*
Y428571D02*
D03*
Y413571D02*
D03*
Y398571D02*
D03*
Y128571D02*
D03*
Y113571D02*
D03*
Y98571D02*
D03*
Y83571D02*
D03*
Y8571D02*
D03*
X660837Y488571D02*
D03*
Y473571D02*
D03*
Y458571D02*
D03*
Y443571D02*
D03*
Y428571D02*
D03*
Y413571D02*
D03*
Y398571D02*
D03*
Y338571D02*
D03*
Y263571D02*
D03*
Y218571D02*
D03*
Y203571D02*
D03*
Y143571D02*
D03*
Y128571D02*
D03*
Y113571D02*
D03*
Y98571D02*
D03*
Y83571D02*
D03*
Y68571D02*
D03*
Y8571D02*
D03*
X645837Y488571D02*
D03*
Y473571D02*
D03*
Y458571D02*
D03*
Y443571D02*
D03*
Y428571D02*
D03*
Y413571D02*
D03*
Y398571D02*
D03*
Y383571D02*
D03*
Y368571D02*
D03*
Y323571D02*
D03*
Y233571D02*
D03*
Y218571D02*
D03*
Y203571D02*
D03*
Y143571D02*
D03*
Y128571D02*
D03*
Y113571D02*
D03*
Y98571D02*
D03*
Y83571D02*
D03*
Y68571D02*
D03*
Y53571D02*
D03*
Y38571D02*
D03*
Y8571D02*
D03*
X630837Y533571D02*
D03*
Y518571D02*
D03*
Y503571D02*
D03*
Y488571D02*
D03*
Y473571D02*
D03*
Y458571D02*
D03*
Y443571D02*
D03*
Y428571D02*
D03*
Y413571D02*
D03*
Y398571D02*
D03*
Y383571D02*
D03*
Y368571D02*
D03*
Y353571D02*
D03*
Y308571D02*
D03*
Y233571D02*
D03*
Y203571D02*
D03*
Y143571D02*
D03*
Y128571D02*
D03*
Y113571D02*
D03*
Y98571D02*
D03*
Y83571D02*
D03*
Y68571D02*
D03*
Y53571D02*
D03*
X615837Y488571D02*
D03*
Y473571D02*
D03*
Y458571D02*
D03*
Y443571D02*
D03*
Y428571D02*
D03*
Y413571D02*
D03*
Y398571D02*
D03*
Y383571D02*
D03*
Y368571D02*
D03*
Y353571D02*
D03*
Y338571D02*
D03*
Y293571D02*
D03*
Y233571D02*
D03*
Y218571D02*
D03*
Y143571D02*
D03*
Y128571D02*
D03*
Y113571D02*
D03*
Y98571D02*
D03*
Y68571D02*
D03*
Y53571D02*
D03*
Y8571D02*
D03*
X600837Y488571D02*
D03*
Y473571D02*
D03*
Y458571D02*
D03*
Y443571D02*
D03*
Y428571D02*
D03*
Y413571D02*
D03*
Y398571D02*
D03*
Y383571D02*
D03*
Y368571D02*
D03*
Y353571D02*
D03*
Y338571D02*
D03*
Y323571D02*
D03*
Y233571D02*
D03*
Y218571D02*
D03*
Y203571D02*
D03*
Y143571D02*
D03*
Y128571D02*
D03*
Y113571D02*
D03*
Y98571D02*
D03*
Y8571D02*
D03*
X585837Y503571D02*
D03*
Y488571D02*
D03*
Y473571D02*
D03*
Y458571D02*
D03*
Y443571D02*
D03*
Y428571D02*
D03*
Y413571D02*
D03*
Y398571D02*
D03*
Y383571D02*
D03*
Y368571D02*
D03*
Y353571D02*
D03*
Y338571D02*
D03*
Y308571D02*
D03*
Y158571D02*
D03*
Y143571D02*
D03*
Y128571D02*
D03*
Y113571D02*
D03*
Y98571D02*
D03*
Y53571D02*
D03*
Y38571D02*
D03*
Y8571D02*
D03*
X570837Y533571D02*
D03*
Y518571D02*
D03*
Y503571D02*
D03*
Y488571D02*
D03*
Y473571D02*
D03*
Y458571D02*
D03*
Y368571D02*
D03*
Y353571D02*
D03*
Y338571D02*
D03*
Y113571D02*
D03*
X555837Y533571D02*
D03*
Y518571D02*
D03*
Y473571D02*
D03*
Y368571D02*
D03*
Y353571D02*
D03*
Y338571D02*
D03*
X540837Y533571D02*
D03*
Y473571D02*
D03*
Y458571D02*
D03*
Y428571D02*
D03*
Y413571D02*
D03*
Y383571D02*
D03*
Y368571D02*
D03*
Y353571D02*
D03*
X525837Y533571D02*
D03*
Y473571D02*
D03*
Y458571D02*
D03*
Y428571D02*
D03*
Y413571D02*
D03*
Y383571D02*
D03*
Y368571D02*
D03*
Y353571D02*
D03*
X510837Y533571D02*
D03*
Y473571D02*
D03*
Y458571D02*
D03*
Y428571D02*
D03*
Y413571D02*
D03*
Y383571D02*
D03*
Y368571D02*
D03*
Y353571D02*
D03*
Y338571D02*
D03*
Y113571D02*
D03*
X495837Y533571D02*
D03*
Y383571D02*
D03*
Y338571D02*
D03*
Y128571D02*
D03*
Y98571D02*
D03*
Y83571D02*
D03*
Y68571D02*
D03*
Y53571D02*
D03*
X480837Y503571D02*
D03*
Y488571D02*
D03*
Y413571D02*
D03*
Y338571D02*
D03*
Y323571D02*
D03*
Y158571D02*
D03*
Y128571D02*
D03*
Y53571D02*
D03*
X465837Y503571D02*
D03*
Y488571D02*
D03*
Y473571D02*
D03*
Y353571D02*
D03*
Y338571D02*
D03*
Y323571D02*
D03*
Y173571D02*
D03*
Y158571D02*
D03*
Y143571D02*
D03*
Y128571D02*
D03*
Y113571D02*
D03*
Y83571D02*
D03*
Y68571D02*
D03*
Y53571D02*
D03*
Y23571D02*
D03*
X450837Y503571D02*
D03*
Y488571D02*
D03*
Y353571D02*
D03*
Y338571D02*
D03*
Y323571D02*
D03*
Y188571D02*
D03*
Y173571D02*
D03*
Y158571D02*
D03*
Y143571D02*
D03*
Y128571D02*
D03*
Y113571D02*
D03*
Y83571D02*
D03*
Y68571D02*
D03*
Y53571D02*
D03*
Y23571D02*
D03*
X435837Y503571D02*
D03*
Y338571D02*
D03*
Y323571D02*
D03*
Y203571D02*
D03*
Y188571D02*
D03*
Y113571D02*
D03*
Y53571D02*
D03*
Y23571D02*
D03*
X420837Y473571D02*
D03*
Y383571D02*
D03*
Y338571D02*
D03*
Y323571D02*
D03*
Y203571D02*
D03*
Y68571D02*
D03*
Y53571D02*
D03*
Y23571D02*
D03*
X405837Y473571D02*
D03*
Y458571D02*
D03*
Y413571D02*
D03*
Y368571D02*
D03*
Y353571D02*
D03*
Y323571D02*
D03*
Y203571D02*
D03*
Y188571D02*
D03*
Y98571D02*
D03*
Y83571D02*
D03*
Y68571D02*
D03*
Y53571D02*
D03*
Y23571D02*
D03*
X390837Y518571D02*
D03*
Y473571D02*
D03*
Y458571D02*
D03*
Y443571D02*
D03*
Y413571D02*
D03*
Y398571D02*
D03*
Y353571D02*
D03*
Y23571D02*
D03*
X375838Y518571D02*
D03*
Y473571D02*
D03*
Y458571D02*
D03*
Y443571D02*
D03*
Y428571D02*
D03*
Y308571D02*
D03*
Y23571D02*
D03*
X360838Y533571D02*
D03*
Y473571D02*
D03*
Y458571D02*
D03*
Y443571D02*
D03*
Y428571D02*
D03*
Y203571D02*
D03*
X345838Y533571D02*
D03*
Y518571D02*
D03*
Y488571D02*
D03*
Y473571D02*
D03*
Y458571D02*
D03*
Y443571D02*
D03*
Y428571D02*
D03*
Y413571D02*
D03*
Y143571D02*
D03*
Y128571D02*
D03*
X330838Y533571D02*
D03*
Y518571D02*
D03*
Y503571D02*
D03*
Y488571D02*
D03*
Y473571D02*
D03*
Y458571D02*
D03*
Y443571D02*
D03*
Y428571D02*
D03*
Y413571D02*
D03*
Y158571D02*
D03*
Y128571D02*
D03*
Y113571D02*
D03*
Y8571D02*
D03*
X315837Y533571D02*
D03*
Y518571D02*
D03*
Y503571D02*
D03*
Y488571D02*
D03*
Y473571D02*
D03*
Y458571D02*
D03*
Y443571D02*
D03*
Y428571D02*
D03*
Y413571D02*
D03*
Y23571D02*
D03*
Y8571D02*
D03*
X300837Y533571D02*
D03*
Y518571D02*
D03*
Y503571D02*
D03*
Y488571D02*
D03*
Y473571D02*
D03*
Y458571D02*
D03*
Y443571D02*
D03*
Y413571D02*
D03*
Y398571D02*
D03*
Y383571D02*
D03*
Y38571D02*
D03*
Y8571D02*
D03*
X285837Y533571D02*
D03*
Y518571D02*
D03*
Y503571D02*
D03*
Y398571D02*
D03*
Y383571D02*
D03*
Y128571D02*
D03*
X270837Y533571D02*
D03*
Y413571D02*
D03*
Y383571D02*
D03*
Y368571D02*
D03*
X255837Y533571D02*
D03*
Y488571D02*
D03*
Y473571D02*
D03*
Y458571D02*
D03*
Y443571D02*
D03*
Y413571D02*
D03*
Y383571D02*
D03*
Y293571D02*
D03*
Y278571D02*
D03*
Y143571D02*
D03*
X240837Y533571D02*
D03*
Y503571D02*
D03*
Y488571D02*
D03*
Y473571D02*
D03*
Y458571D02*
D03*
Y443571D02*
D03*
Y308571D02*
D03*
Y293571D02*
D03*
Y173571D02*
D03*
Y143571D02*
D03*
Y23571D02*
D03*
Y8571D02*
D03*
X225837Y533571D02*
D03*
Y518571D02*
D03*
Y503571D02*
D03*
Y488571D02*
D03*
Y473571D02*
D03*
Y458571D02*
D03*
Y443571D02*
D03*
Y383571D02*
D03*
Y293571D02*
D03*
Y248571D02*
D03*
Y143571D02*
D03*
Y98571D02*
D03*
Y23571D02*
D03*
Y8571D02*
D03*
X210837Y533571D02*
D03*
Y518571D02*
D03*
Y503571D02*
D03*
Y488571D02*
D03*
Y473571D02*
D03*
Y458571D02*
D03*
Y443571D02*
D03*
Y383571D02*
D03*
Y293571D02*
D03*
Y278571D02*
D03*
Y263571D02*
D03*
Y248571D02*
D03*
Y98571D02*
D03*
Y83571D02*
D03*
Y23571D02*
D03*
Y8571D02*
D03*
X195837Y533571D02*
D03*
Y518571D02*
D03*
Y503571D02*
D03*
Y488571D02*
D03*
Y473571D02*
D03*
Y458571D02*
D03*
Y443571D02*
D03*
Y383571D02*
D03*
Y368571D02*
D03*
Y308571D02*
D03*
Y293571D02*
D03*
Y278571D02*
D03*
Y263571D02*
D03*
Y248571D02*
D03*
Y158571D02*
D03*
Y143571D02*
D03*
Y23571D02*
D03*
Y8571D02*
D03*
X180837Y533571D02*
D03*
Y518571D02*
D03*
Y503571D02*
D03*
Y488571D02*
D03*
Y473571D02*
D03*
Y158571D02*
D03*
Y143571D02*
D03*
X165837Y533571D02*
D03*
Y518571D02*
D03*
Y503571D02*
D03*
Y488571D02*
D03*
Y473571D02*
D03*
Y38571D02*
D03*
Y8571D02*
D03*
X150837Y533571D02*
D03*
Y518571D02*
D03*
Y503571D02*
D03*
Y488571D02*
D03*
Y473571D02*
D03*
Y443571D02*
D03*
Y53571D02*
D03*
Y38571D02*
D03*
Y23571D02*
D03*
Y8571D02*
D03*
X135837Y533571D02*
D03*
Y503571D02*
D03*
Y443571D02*
D03*
Y353571D02*
D03*
Y338571D02*
D03*
Y323571D02*
D03*
Y98571D02*
D03*
Y83571D02*
D03*
Y53571D02*
D03*
Y38571D02*
D03*
Y23571D02*
D03*
Y8571D02*
D03*
X120837Y443571D02*
D03*
Y353571D02*
D03*
Y338571D02*
D03*
Y323571D02*
D03*
Y248571D02*
D03*
Y218571D02*
D03*
Y173571D02*
D03*
Y98571D02*
D03*
Y83571D02*
D03*
Y8571D02*
D03*
X105837Y503571D02*
D03*
Y488571D02*
D03*
Y473571D02*
D03*
Y443571D02*
D03*
Y353571D02*
D03*
Y338571D02*
D03*
Y323571D02*
D03*
Y248571D02*
D03*
Y218571D02*
D03*
Y188571D02*
D03*
Y173571D02*
D03*
Y98571D02*
D03*
Y83571D02*
D03*
Y68571D02*
D03*
Y53571D02*
D03*
Y38571D02*
D03*
Y23571D02*
D03*
Y8571D02*
D03*
X90837Y503571D02*
D03*
Y488571D02*
D03*
Y473571D02*
D03*
Y458571D02*
D03*
Y383571D02*
D03*
Y368571D02*
D03*
Y353571D02*
D03*
Y338571D02*
D03*
Y323571D02*
D03*
Y263571D02*
D03*
Y248571D02*
D03*
Y218571D02*
D03*
Y188571D02*
D03*
Y173571D02*
D03*
Y143571D02*
D03*
Y128571D02*
D03*
Y113571D02*
D03*
Y98571D02*
D03*
Y83571D02*
D03*
Y68571D02*
D03*
Y53571D02*
D03*
Y38571D02*
D03*
Y23571D02*
D03*
Y8571D02*
D03*
X75837Y368571D02*
D03*
Y353571D02*
D03*
Y338571D02*
D03*
Y323571D02*
D03*
Y263571D02*
D03*
Y248571D02*
D03*
Y218571D02*
D03*
Y188571D02*
D03*
Y158571D02*
D03*
Y128571D02*
D03*
Y113571D02*
D03*
Y53571D02*
D03*
Y38571D02*
D03*
Y23571D02*
D03*
Y8571D02*
D03*
X60837Y533571D02*
D03*
Y518571D02*
D03*
Y503571D02*
D03*
Y398571D02*
D03*
Y368571D02*
D03*
Y353571D02*
D03*
Y338571D02*
D03*
Y323571D02*
D03*
Y263571D02*
D03*
Y143571D02*
D03*
Y128571D02*
D03*
Y113571D02*
D03*
Y38571D02*
D03*
Y23571D02*
D03*
Y8571D02*
D03*
X45838Y533571D02*
D03*
Y518571D02*
D03*
Y473571D02*
D03*
Y458571D02*
D03*
Y353571D02*
D03*
Y143571D02*
D03*
Y128571D02*
D03*
Y113571D02*
D03*
Y38571D02*
D03*
Y23571D02*
D03*
Y8571D02*
D03*
X30838Y473571D02*
D03*
Y458571D02*
D03*
Y413571D02*
D03*
Y398571D02*
D03*
Y353571D02*
D03*
Y143571D02*
D03*
Y128571D02*
D03*
Y113571D02*
D03*
Y53571D02*
D03*
Y38571D02*
D03*
Y23571D02*
D03*
X15838Y503571D02*
D03*
Y473571D02*
D03*
Y458571D02*
D03*
Y443571D02*
D03*
Y428571D02*
D03*
Y353571D02*
D03*
Y338571D02*
D03*
Y323571D02*
D03*
Y263571D02*
D03*
Y248571D02*
D03*
Y233571D02*
D03*
Y218571D02*
D03*
Y203571D02*
D03*
Y188571D02*
D03*
Y173571D02*
D03*
Y158571D02*
D03*
Y143571D02*
D03*
Y128571D02*
D03*
Y113571D02*
D03*
Y98571D02*
D03*
Y83571D02*
D03*
Y68571D02*
D03*
Y53571D02*
D03*
Y38571D02*
D03*
Y23571D02*
D03*
X533549Y331789D02*
D03*
X581334Y323895D02*
D03*
X437240Y450622D02*
D03*
X493758Y363798D02*
D03*
X576535Y297164D02*
D03*
X488613Y313537D02*
D03*
X483513Y246160D02*
D03*
X402448Y425624D02*
D03*
X424574Y370663D02*
D03*
X362202Y410979D02*
D03*
X377368Y401981D02*
D03*
X338670Y403096D02*
D03*
X426011Y279492D02*
D03*
X416578Y253192D02*
D03*
X341415Y351657D02*
D03*
X385595Y325862D02*
D03*
X361224Y267520D02*
D03*
X577924Y236420D02*
D03*
X581346Y204980D02*
D03*
X577762Y224009D02*
D03*
X488255Y204009D02*
D03*
X486942Y145724D02*
D03*
X572994Y130497D02*
D03*
X610511Y85993D02*
D03*
X487177Y139249D02*
D03*
X528534Y95230D02*
D03*
X483444Y238281D02*
D03*
X476050Y233582D02*
D03*
X411172Y216632D02*
D03*
X386886Y197252D02*
D03*
X373815Y173306D02*
D03*
X421769Y125233D02*
D03*
X484097Y65370D02*
D03*
X437534Y64914D02*
D03*
X408711Y124655D02*
D03*
X357738Y89524D02*
D03*
X342019Y63443D02*
D03*
X333790Y363909D02*
D03*
X317997Y347357D02*
D03*
X303544Y360105D02*
D03*
X289922Y359611D02*
D03*
X277252Y479707D02*
D03*
X244659Y390149D02*
D03*
X238380Y411222D02*
D03*
X261907Y313988D02*
D03*
X315680Y268392D02*
D03*
X329540D02*
D03*
X328521Y252508D02*
D03*
X308234Y301980D02*
D03*
X315210Y252026D02*
D03*
X286028Y248870D02*
D03*
X223909Y308542D02*
D03*
X232442Y271767D02*
D03*
X251274Y248232D02*
D03*
X182851Y449810D02*
D03*
Y459206D02*
D03*
X168013Y449810D02*
D03*
Y459206D02*
D03*
X35092Y501222D02*
D03*
X147903Y460629D02*
D03*
X137694Y374643D02*
D03*
X134012Y248547D02*
D03*
X130883Y367337D02*
D03*
X129814Y418937D02*
D03*
X117589Y391238D02*
D03*
X318995Y177489D02*
D03*
X329020Y145911D02*
D03*
X291776Y145520D02*
D03*
X288491Y220379D02*
D03*
X284696Y187321D02*
D03*
X277208Y144269D02*
D03*
X330036Y77094D02*
D03*
X319744Y107927D02*
D03*
X285984Y54663D02*
D03*
X290108Y16616D02*
D03*
X275374Y27835D02*
D03*
X232955Y218348D02*
D03*
X229051Y210197D02*
D03*
X134168Y215354D02*
D03*
X134275Y180005D02*
D03*
X238144Y155581D02*
D03*
X189216Y81834D02*
D03*
X150227Y90429D02*
D03*
X123523Y29901D02*
D03*
X544606Y310419D02*
D03*
X549541Y305780D02*
D03*
X553326Y223790D02*
D03*
X546858Y224400D02*
D03*
X280982Y179232D02*
D03*
X510154Y446856D02*
D03*
X510341Y392695D02*
D03*
X289161Y179039D02*
D03*
X286575Y256575D02*
D03*
X315910Y302814D02*
D03*
X362459Y259359D02*
D03*
X208040Y180919D02*
D03*
X489007Y114533D02*
D03*
X141864Y418453D02*
D03*
X445684Y421395D02*
D03*
X230551Y333302D02*
D03*
X477047Y452701D02*
D03*
X173936Y336027D02*
D03*
X169501Y329490D02*
D03*
X177380Y328939D02*
D03*
X215926Y181005D02*
D03*
X215059Y188890D02*
D03*
X207954Y189064D02*
D03*
X302313Y320605D02*
D03*
X289844Y351692D02*
D03*
X303265Y352448D02*
D03*
X150214Y394524D02*
D03*
X274906Y35691D02*
D03*
X548660Y316569D02*
D03*
X550551Y217572D02*
D03*
X510779Y92853D02*
D03*
X311601Y116664D02*
D03*
X311862Y108042D02*
D03*
D109*
X657000Y522000D02*
D03*
X606000Y523000D02*
D03*
D110*
X289161Y168675D02*
D03*
X500343Y110000D02*
D03*
X140000Y430000D02*
D03*
X418000Y423000D02*
D03*
X477351Y467091D02*
D03*
X230121Y321616D02*
D03*
X294232Y328686D02*
D03*
M02*
