G04*
G04 #@! TF.GenerationSoftware,Altium Limited,Altium Designer,26.10.1 (5)*
G04*
G04 Layer_Color=32768*
G04 Board_Origin=80872512|74071984*
%FSLAX44Y44*%
%MOMM*%
G71*
G04*
G04 #@! TF.SameCoordinates,5802A6DE-2B60-438B-A6B9-6B7F125FFCDA*
G04*
G04*
G04 #@! TF.FilePolarity,Positive*
G04*
G01*
G75*
%ADD10C,0.4000*%
%ADD11C,0.2000*%
%ADD13C,0.2540*%
%ADD112C,0.3810*%
%ADD113C,0.0254*%
%ADD114C,0.9000*%
%ADD115C,0.7000*%
D10*
X580315Y2195269D02*
X570318D01*
Y2187771D01*
X575317D01*
X570318D01*
Y2180274D01*
X585313Y2195269D02*
X590312D01*
X587812D01*
Y2180274D01*
X585313D01*
X590312D01*
X597809Y2195269D02*
Y2180274D01*
X607806D01*
X622801Y2195269D02*
X612804D01*
Y2180274D01*
X622801D01*
X612804Y2187771D02*
X617803D01*
X637796Y2192770D02*
X635297Y2195269D01*
X630299D01*
X627800Y2192770D01*
Y2190270D01*
X630299Y2187771D01*
X635297D01*
X637796Y2185272D01*
Y2182773D01*
X635297Y2180274D01*
X630299D01*
X627800Y2182773D01*
X1060318Y2201347D02*
Y2186352D01*
X1067816D01*
X1070315Y2188851D01*
Y2191350D01*
X1067816Y2193849D01*
X1060318D01*
X1067816D01*
X1070315Y2196348D01*
Y2198848D01*
X1067816Y2201347D01*
X1060318D01*
X1082811D02*
X1077812D01*
X1075313Y2198848D01*
Y2188851D01*
X1077812Y2186352D01*
X1082811D01*
X1085310Y2188851D01*
Y2198848D01*
X1082811Y2201347D01*
X1090309Y2186352D02*
Y2196348D01*
X1095307Y2201347D01*
X1100305Y2196348D01*
Y2186352D01*
Y2193849D01*
X1090309D01*
X1105304Y2186352D02*
Y2201347D01*
X1112801D01*
X1115300Y2198848D01*
Y2193849D01*
X1112801Y2191350D01*
X1105304D01*
X1110302D02*
X1115300Y2186352D01*
X1120299Y2201347D02*
Y2186352D01*
X1127796D01*
X1130295Y2188851D01*
Y2198848D01*
X1127796Y2201347D01*
X1120299D01*
X1150289D02*
X1155287D01*
X1152788D01*
Y2186352D01*
X1150289D01*
X1155287D01*
X1162785D02*
Y2201347D01*
X1172782Y2186352D01*
Y2201347D01*
X1187777D02*
X1177780D01*
Y2193849D01*
X1182779D01*
X1177780D01*
Y2186352D01*
X1200273Y2201347D02*
X1195275D01*
X1192775Y2198848D01*
Y2188851D01*
X1195275Y2186352D01*
X1200273D01*
X1202772Y2188851D01*
Y2198848D01*
X1200273Y2201347D01*
D11*
X1209341Y1171793D02*
G03*
X1208858Y1172276I-483J0D01*
G01*
X1209261Y1128099D02*
G03*
X1209383Y1128221I0J122D01*
G01*
X799147Y1097183D02*
X1209533D01*
X799147D02*
Y1209417D01*
X1128710Y1172787D02*
Y1209439D01*
X798820Y1172276D02*
X1208858D01*
X799824Y1132028D02*
X1208279D01*
X799147Y1209417D02*
X1209533D01*
Y1097183D02*
Y1209417D01*
D13*
X1689089Y1627252D02*
Y1612017D01*
X1696707D01*
X1699246Y1614556D01*
Y1617095D01*
X1696707Y1619635D01*
X1689089D01*
X1696707D01*
X1699246Y1622174D01*
Y1624713D01*
X1696707Y1627252D01*
X1689089D01*
X1706864Y1612017D02*
X1711942D01*
X1714481Y1614556D01*
Y1619635D01*
X1711942Y1622174D01*
X1706864D01*
X1704324Y1619635D01*
Y1614556D01*
X1706864Y1612017D01*
X1722099Y1622174D02*
X1727177D01*
X1729716Y1619635D01*
Y1612017D01*
X1722099D01*
X1719559Y1614556D01*
X1722099Y1617095D01*
X1729716D01*
X1734794Y1622174D02*
Y1612017D01*
Y1617095D01*
X1737334Y1619635D01*
X1739873Y1622174D01*
X1742412D01*
X1760186Y1627252D02*
Y1612017D01*
X1752569D01*
X1750029Y1614556D01*
Y1619635D01*
X1752569Y1622174D01*
X1760186D01*
X1780500Y1627252D02*
Y1612017D01*
X1790656D01*
X1798274Y1622174D02*
X1803352D01*
X1805891Y1619635D01*
Y1612017D01*
X1798274D01*
X1795735Y1614556D01*
X1798274Y1617095D01*
X1805891D01*
X1810970Y1622174D02*
Y1614556D01*
X1813509Y1612017D01*
X1821127D01*
Y1609478D01*
X1818587Y1606939D01*
X1816048D01*
X1821127Y1612017D02*
Y1622174D01*
X1833822Y1612017D02*
X1828744D01*
X1826205Y1614556D01*
Y1619635D01*
X1828744Y1622174D01*
X1833822D01*
X1836362Y1619635D01*
Y1617095D01*
X1826205D01*
X1841440Y1622174D02*
Y1612017D01*
Y1617095D01*
X1843979Y1619635D01*
X1846518Y1622174D01*
X1849057D01*
X1882067Y1624713D02*
X1879528Y1627252D01*
X1874449D01*
X1871910Y1624713D01*
Y1622174D01*
X1874449Y1619635D01*
X1879528D01*
X1882067Y1617095D01*
Y1614556D01*
X1879528Y1612017D01*
X1874449D01*
X1871910Y1614556D01*
X1889684Y1624713D02*
Y1622174D01*
X1887145D01*
X1892224D01*
X1889684D01*
Y1614556D01*
X1892224Y1612017D01*
X1902380Y1622174D02*
X1907459D01*
X1909998Y1619635D01*
Y1612017D01*
X1902380D01*
X1899841Y1614556D01*
X1902380Y1617095D01*
X1909998D01*
X1925233Y1622174D02*
X1917615D01*
X1915076Y1619635D01*
Y1614556D01*
X1917615Y1612017D01*
X1925233D01*
X1930311D02*
Y1627252D01*
Y1617095D02*
X1937929Y1622174D01*
X1930311Y1617095D02*
X1937929Y1612017D01*
X1544344Y1563753D02*
X1546884Y1566292D01*
X1551962D01*
X1554501Y1563753D01*
Y1561214D01*
X1551962Y1558675D01*
X1549423D01*
X1551962D01*
X1554501Y1556135D01*
Y1553596D01*
X1551962Y1551057D01*
X1546884D01*
X1544344Y1553596D01*
X1559580Y1551057D02*
Y1553596D01*
X1562119D01*
Y1551057D01*
X1559580D01*
X1582432Y1566292D02*
X1572276D01*
Y1558675D01*
X1577354Y1561214D01*
X1579893D01*
X1582432Y1558675D01*
Y1553596D01*
X1579893Y1551057D01*
X1574815D01*
X1572276Y1553596D01*
X1551962Y1490097D02*
Y1505332D01*
X1544344Y1497715D01*
X1554501D01*
X1559580Y1490097D02*
Y1492636D01*
X1562119D01*
Y1490097D01*
X1559580D01*
X1572276Y1505332D02*
X1582432D01*
Y1502793D01*
X1572276Y1492636D01*
Y1490097D01*
X1595128D02*
Y1505332D01*
X1587511Y1497715D01*
X1597667D01*
X1551962Y1429137D02*
Y1444372D01*
X1544344Y1436755D01*
X1554501D01*
X1559580Y1429137D02*
Y1431676D01*
X1562119D01*
Y1429137D01*
X1559580D01*
X1582432Y1444372D02*
X1577354Y1441833D01*
X1572276Y1436755D01*
Y1431676D01*
X1574815Y1429137D01*
X1579893D01*
X1582432Y1431676D01*
Y1434215D01*
X1579893Y1436755D01*
X1572276D01*
X1551962Y1368177D02*
Y1383412D01*
X1544344Y1375795D01*
X1554501D01*
X1559580Y1368177D02*
Y1370716D01*
X1562119D01*
Y1368177D01*
X1559580D01*
X1572276Y1383412D02*
X1582432D01*
Y1380873D01*
X1572276Y1370716D01*
Y1368177D01*
X1595128D02*
Y1383412D01*
X1587511Y1375795D01*
X1597667D01*
X1544344Y1319913D02*
X1546884Y1322452D01*
X1551962D01*
X1554501Y1319913D01*
Y1317374D01*
X1551962Y1314835D01*
X1549423D01*
X1551962D01*
X1554501Y1312295D01*
Y1309756D01*
X1551962Y1307217D01*
X1546884D01*
X1544344Y1309756D01*
X1559580Y1307217D02*
Y1309756D01*
X1562119D01*
Y1307217D01*
X1559580D01*
X1582432Y1322452D02*
X1572276D01*
Y1314835D01*
X1577354Y1317374D01*
X1579893D01*
X1582432Y1314835D01*
Y1309756D01*
X1579893Y1307217D01*
X1574815D01*
X1572276Y1309756D01*
X1554501Y1624713D02*
X1551962Y1627252D01*
X1546884D01*
X1544344Y1624713D01*
Y1614556D01*
X1546884Y1612017D01*
X1551962D01*
X1554501Y1614556D01*
X1562119Y1612017D02*
X1567197D01*
X1569736Y1614556D01*
Y1619635D01*
X1567197Y1622174D01*
X1562119D01*
X1559580Y1619635D01*
Y1614556D01*
X1562119Y1612017D01*
X1574815D02*
Y1622174D01*
X1582432D01*
X1584971Y1619635D01*
Y1612017D01*
X1590050D02*
X1597667D01*
X1600206Y1614556D01*
X1597667Y1617095D01*
X1592589D01*
X1590050Y1619635D01*
X1592589Y1622174D01*
X1600206D01*
X1607824Y1624713D02*
Y1622174D01*
X1605285D01*
X1610363D01*
X1607824D01*
Y1614556D01*
X1610363Y1612017D01*
X1620520Y1622174D02*
X1625598D01*
X1628137Y1619635D01*
Y1612017D01*
X1620520D01*
X1617981Y1614556D01*
X1620520Y1617095D01*
X1628137D01*
X1633216Y1612017D02*
Y1622174D01*
X1640833D01*
X1643372Y1619635D01*
Y1612017D01*
X1650990Y1624713D02*
Y1622174D01*
X1648451D01*
X1653529D01*
X1650990D01*
Y1614556D01*
X1653529Y1612017D01*
X1379286Y1563753D02*
X1381826Y1566292D01*
X1386904D01*
X1389443Y1563753D01*
Y1553596D01*
X1386904Y1551057D01*
X1381826D01*
X1379286Y1553596D01*
Y1563753D01*
X1394521Y1551057D02*
Y1553596D01*
X1397061D01*
Y1551057D01*
X1394521D01*
X1407217Y1563753D02*
X1409757Y1566292D01*
X1414835D01*
X1417374Y1563753D01*
Y1553596D01*
X1414835Y1551057D01*
X1409757D01*
X1407217Y1553596D01*
Y1563753D01*
X1422453Y1551057D02*
X1427531D01*
X1424992D01*
Y1566292D01*
X1422453Y1563753D01*
X1435148D02*
X1437688Y1566292D01*
X1442766D01*
X1445305Y1563753D01*
Y1561214D01*
X1442766Y1558675D01*
X1445305Y1556135D01*
Y1553596D01*
X1442766Y1551057D01*
X1437688D01*
X1435148Y1553596D01*
Y1556135D01*
X1437688Y1558675D01*
X1435148Y1561214D01*
Y1563753D01*
X1437688Y1558675D02*
X1442766D01*
X1450383Y1551057D02*
Y1561214D01*
X1452923D01*
X1455462Y1558675D01*
Y1551057D01*
Y1558675D01*
X1458001Y1561214D01*
X1460540Y1558675D01*
Y1551057D01*
X1465618D02*
Y1561214D01*
X1468158D01*
X1470697Y1558675D01*
Y1551057D01*
Y1558675D01*
X1473236Y1561214D01*
X1475775Y1558675D01*
Y1551057D01*
X1379286Y1533273D02*
X1381826Y1535812D01*
X1386904D01*
X1389443Y1533273D01*
Y1523116D01*
X1386904Y1520577D01*
X1381826D01*
X1379286Y1523116D01*
Y1533273D01*
X1394521Y1520577D02*
Y1523116D01*
X1397061D01*
Y1520577D01*
X1394521D01*
X1407217Y1533273D02*
X1409757Y1535812D01*
X1414835D01*
X1417374Y1533273D01*
Y1523116D01*
X1414835Y1520577D01*
X1409757D01*
X1407217Y1523116D01*
Y1533273D01*
X1422453Y1520577D02*
X1427531D01*
X1424992D01*
Y1535812D01*
X1422453Y1533273D01*
X1435148D02*
X1437688Y1535812D01*
X1442766D01*
X1445305Y1533273D01*
Y1530734D01*
X1442766Y1528195D01*
X1445305Y1525655D01*
Y1523116D01*
X1442766Y1520577D01*
X1437688D01*
X1435148Y1523116D01*
Y1525655D01*
X1437688Y1528195D01*
X1435148Y1530734D01*
Y1533273D01*
X1437688Y1528195D02*
X1442766D01*
X1450383Y1520577D02*
Y1530734D01*
X1452923D01*
X1455462Y1528195D01*
Y1520577D01*
Y1528195D01*
X1458001Y1530734D01*
X1460540Y1528195D01*
Y1520577D01*
X1465618D02*
Y1530734D01*
X1468158D01*
X1470697Y1528195D01*
Y1520577D01*
Y1528195D01*
X1473236Y1530734D01*
X1475775Y1528195D01*
Y1520577D01*
X1379286Y1502793D02*
X1381826Y1505332D01*
X1386904D01*
X1389443Y1502793D01*
Y1492636D01*
X1386904Y1490097D01*
X1381826D01*
X1379286Y1492636D01*
Y1502793D01*
X1394521Y1490097D02*
Y1492636D01*
X1397061D01*
Y1490097D01*
X1394521D01*
X1407217D02*
X1412296D01*
X1409757D01*
Y1505332D01*
X1407217Y1502793D01*
X1419913Y1492636D02*
X1422453Y1490097D01*
X1427531D01*
X1430070Y1492636D01*
Y1502793D01*
X1427531Y1505332D01*
X1422453D01*
X1419913Y1502793D01*
Y1500254D01*
X1422453Y1497715D01*
X1430070D01*
X1445305Y1505332D02*
X1440227Y1502793D01*
X1435148Y1497715D01*
Y1492636D01*
X1437688Y1490097D01*
X1442766D01*
X1445305Y1492636D01*
Y1495175D01*
X1442766Y1497715D01*
X1435148D01*
X1450383Y1490097D02*
Y1500254D01*
X1452923D01*
X1455462Y1497715D01*
Y1490097D01*
Y1497715D01*
X1458001Y1500254D01*
X1460540Y1497715D01*
Y1490097D01*
X1465618D02*
Y1500254D01*
X1468158D01*
X1470697Y1497715D01*
Y1490097D01*
Y1497715D01*
X1473236Y1500254D01*
X1475775Y1497715D01*
Y1490097D01*
X1379286Y1472313D02*
X1381826Y1474852D01*
X1386904D01*
X1389443Y1472313D01*
Y1462156D01*
X1386904Y1459617D01*
X1381826D01*
X1379286Y1462156D01*
Y1472313D01*
X1394521Y1459617D02*
Y1462156D01*
X1397061D01*
Y1459617D01*
X1394521D01*
X1407217Y1472313D02*
X1409757Y1474852D01*
X1414835D01*
X1417374Y1472313D01*
Y1462156D01*
X1414835Y1459617D01*
X1409757D01*
X1407217Y1462156D01*
Y1472313D01*
X1422453D02*
X1424992Y1474852D01*
X1430070D01*
X1432609Y1472313D01*
Y1469774D01*
X1430070Y1467235D01*
X1427531D01*
X1430070D01*
X1432609Y1464695D01*
Y1462156D01*
X1430070Y1459617D01*
X1424992D01*
X1422453Y1462156D01*
X1447844Y1474852D02*
X1437688D01*
Y1467235D01*
X1442766Y1469774D01*
X1445305D01*
X1447844Y1467235D01*
Y1462156D01*
X1445305Y1459617D01*
X1440227D01*
X1437688Y1462156D01*
X1452923Y1459617D02*
Y1469774D01*
X1455462D01*
X1458001Y1467235D01*
Y1459617D01*
Y1467235D01*
X1460540Y1469774D01*
X1463079Y1467235D01*
Y1459617D01*
X1468158D02*
Y1469774D01*
X1470697D01*
X1473236Y1467235D01*
Y1459617D01*
Y1467235D01*
X1475775Y1469774D01*
X1478314Y1467235D01*
Y1459617D01*
X1379286Y1429137D02*
X1384365D01*
X1381826D01*
Y1444372D01*
X1379286Y1441833D01*
X1391982Y1429137D02*
Y1431676D01*
X1394521D01*
Y1429137D01*
X1391982D01*
X1404678Y1441833D02*
X1407217Y1444372D01*
X1412296D01*
X1414835Y1441833D01*
Y1431676D01*
X1412296Y1429137D01*
X1407217D01*
X1404678Y1431676D01*
Y1441833D01*
X1419913D02*
X1422453Y1444372D01*
X1427531D01*
X1430070Y1441833D01*
Y1439294D01*
X1427531Y1436755D01*
X1424992D01*
X1427531D01*
X1430070Y1434215D01*
Y1431676D01*
X1427531Y1429137D01*
X1422453D01*
X1419913Y1431676D01*
X1435148Y1441833D02*
X1437688Y1444372D01*
X1442766D01*
X1445305Y1441833D01*
Y1431676D01*
X1442766Y1429137D01*
X1437688D01*
X1435148Y1431676D01*
Y1441833D01*
X1450383Y1429137D02*
Y1439294D01*
X1452923D01*
X1455462Y1436755D01*
Y1429137D01*
Y1436755D01*
X1458001Y1439294D01*
X1460540Y1436755D01*
Y1429137D01*
X1465618D02*
Y1439294D01*
X1468158D01*
X1470697Y1436755D01*
Y1429137D01*
Y1436755D01*
X1473236Y1439294D01*
X1475775Y1436755D01*
Y1429137D01*
X1379286Y1411353D02*
X1381826Y1413892D01*
X1386904D01*
X1389443Y1411353D01*
Y1401196D01*
X1386904Y1398657D01*
X1381826D01*
X1379286Y1401196D01*
Y1411353D01*
X1394521Y1398657D02*
Y1401196D01*
X1397061D01*
Y1398657D01*
X1394521D01*
X1407217Y1411353D02*
X1409757Y1413892D01*
X1414835D01*
X1417374Y1411353D01*
Y1401196D01*
X1414835Y1398657D01*
X1409757D01*
X1407217Y1401196D01*
Y1411353D01*
X1422453D02*
X1424992Y1413892D01*
X1430070D01*
X1432609Y1411353D01*
Y1408814D01*
X1430070Y1406275D01*
X1427531D01*
X1430070D01*
X1432609Y1403735D01*
Y1401196D01*
X1430070Y1398657D01*
X1424992D01*
X1422453Y1401196D01*
X1447844Y1413892D02*
X1437688D01*
Y1406275D01*
X1442766Y1408814D01*
X1445305D01*
X1447844Y1406275D01*
Y1401196D01*
X1445305Y1398657D01*
X1440227D01*
X1437688Y1401196D01*
X1452923Y1398657D02*
Y1408814D01*
X1455462D01*
X1458001Y1406275D01*
Y1398657D01*
Y1406275D01*
X1460540Y1408814D01*
X1463079Y1406275D01*
Y1398657D01*
X1468158D02*
Y1408814D01*
X1470697D01*
X1473236Y1406275D01*
Y1398657D01*
Y1406275D01*
X1475775Y1408814D01*
X1478314Y1406275D01*
Y1398657D01*
X1379286Y1380873D02*
X1381826Y1383412D01*
X1386904D01*
X1389443Y1380873D01*
Y1370716D01*
X1386904Y1368177D01*
X1381826D01*
X1379286Y1370716D01*
Y1380873D01*
X1394521Y1368177D02*
Y1370716D01*
X1397061D01*
Y1368177D01*
X1394521D01*
X1407217D02*
X1412296D01*
X1409757D01*
Y1383412D01*
X1407217Y1380873D01*
X1419913Y1370716D02*
X1422453Y1368177D01*
X1427531D01*
X1430070Y1370716D01*
Y1380873D01*
X1427531Y1383412D01*
X1422453D01*
X1419913Y1380873D01*
Y1378334D01*
X1422453Y1375795D01*
X1430070D01*
X1445305Y1383412D02*
X1440227Y1380873D01*
X1435148Y1375795D01*
Y1370716D01*
X1437688Y1368177D01*
X1442766D01*
X1445305Y1370716D01*
Y1373255D01*
X1442766Y1375795D01*
X1435148D01*
X1450383Y1368177D02*
Y1378334D01*
X1452923D01*
X1455462Y1375795D01*
Y1368177D01*
Y1375795D01*
X1458001Y1378334D01*
X1460540Y1375795D01*
Y1368177D01*
X1465618D02*
Y1378334D01*
X1468158D01*
X1470697Y1375795D01*
Y1368177D01*
Y1375795D01*
X1473236Y1378334D01*
X1475775Y1375795D01*
Y1368177D01*
X1379286Y1350393D02*
X1381826Y1352932D01*
X1386904D01*
X1389443Y1350393D01*
Y1340236D01*
X1386904Y1337697D01*
X1381826D01*
X1379286Y1340236D01*
Y1350393D01*
X1394521Y1337697D02*
Y1340236D01*
X1397061D01*
Y1337697D01*
X1394521D01*
X1407217Y1350393D02*
X1409757Y1352932D01*
X1414835D01*
X1417374Y1350393D01*
Y1340236D01*
X1414835Y1337697D01*
X1409757D01*
X1407217Y1340236D01*
Y1350393D01*
X1422453Y1337697D02*
X1427531D01*
X1424992D01*
Y1352932D01*
X1422453Y1350393D01*
X1435148D02*
X1437688Y1352932D01*
X1442766D01*
X1445305Y1350393D01*
Y1347854D01*
X1442766Y1345315D01*
X1445305Y1342775D01*
Y1340236D01*
X1442766Y1337697D01*
X1437688D01*
X1435148Y1340236D01*
Y1342775D01*
X1437688Y1345315D01*
X1435148Y1347854D01*
Y1350393D01*
X1437688Y1345315D02*
X1442766D01*
X1450383Y1337697D02*
Y1347854D01*
X1452923D01*
X1455462Y1345315D01*
Y1337697D01*
Y1345315D01*
X1458001Y1347854D01*
X1460540Y1345315D01*
Y1337697D01*
X1465618D02*
Y1347854D01*
X1468158D01*
X1470697Y1345315D01*
Y1337697D01*
Y1345315D01*
X1473236Y1347854D01*
X1475775Y1345315D01*
Y1337697D01*
X1379286Y1319913D02*
X1381826Y1322452D01*
X1386904D01*
X1389443Y1319913D01*
Y1309756D01*
X1386904Y1307217D01*
X1381826D01*
X1379286Y1309756D01*
Y1319913D01*
X1394521Y1307217D02*
Y1309756D01*
X1397061D01*
Y1307217D01*
X1394521D01*
X1407217Y1319913D02*
X1409757Y1322452D01*
X1414835D01*
X1417374Y1319913D01*
Y1309756D01*
X1414835Y1307217D01*
X1409757D01*
X1407217Y1309756D01*
Y1319913D01*
X1422453Y1307217D02*
X1427531D01*
X1424992D01*
Y1322452D01*
X1422453Y1319913D01*
X1435148D02*
X1437688Y1322452D01*
X1442766D01*
X1445305Y1319913D01*
Y1317374D01*
X1442766Y1314835D01*
X1445305Y1312295D01*
Y1309756D01*
X1442766Y1307217D01*
X1437688D01*
X1435148Y1309756D01*
Y1312295D01*
X1437688Y1314835D01*
X1435148Y1317374D01*
Y1319913D01*
X1437688Y1314835D02*
X1442766D01*
X1450383Y1307217D02*
Y1317374D01*
X1452923D01*
X1455462Y1314835D01*
Y1307217D01*
Y1314835D01*
X1458001Y1317374D01*
X1460540Y1314835D01*
Y1307217D01*
X1465618D02*
Y1317374D01*
X1468158D01*
X1470697Y1314835D01*
Y1307217D01*
Y1314835D01*
X1473236Y1317374D01*
X1475775Y1314835D01*
Y1307217D01*
X1379286Y1627252D02*
X1389443D01*
X1384365D01*
Y1612017D01*
X1394521Y1627252D02*
Y1612017D01*
Y1619635D01*
X1397061Y1622174D01*
X1402139D01*
X1404678Y1619635D01*
Y1612017D01*
X1409757D02*
X1414835D01*
X1412296D01*
Y1622174D01*
X1409757D01*
X1432609D02*
X1424992D01*
X1422453Y1619635D01*
Y1614556D01*
X1424992Y1612017D01*
X1432609D01*
X1437688D02*
Y1627252D01*
Y1617095D02*
X1445305Y1622174D01*
X1437688Y1617095D02*
X1445305Y1612017D01*
X1452923D02*
Y1622174D01*
X1460540D01*
X1463079Y1619635D01*
Y1612017D01*
X1475775D02*
X1470697D01*
X1468158Y1614556D01*
Y1619635D01*
X1470697Y1622174D01*
X1475775D01*
X1478314Y1619635D01*
Y1617095D01*
X1468158D01*
X1483393Y1612017D02*
X1491010D01*
X1493549Y1614556D01*
X1491010Y1617095D01*
X1485932D01*
X1483393Y1619635D01*
X1485932Y1622174D01*
X1493549D01*
X1498628Y1612017D02*
X1506245D01*
X1508784Y1614556D01*
X1506245Y1617095D01*
X1501167D01*
X1498628Y1619635D01*
X1501167Y1622174D01*
X1508784D01*
X1171062Y1563753D02*
X1168523Y1566292D01*
X1163445D01*
X1160906Y1563753D01*
Y1561214D01*
X1163445Y1558675D01*
X1168523D01*
X1171062Y1556135D01*
Y1553596D01*
X1168523Y1551057D01*
X1163445D01*
X1160906Y1553596D01*
X1178680Y1551057D02*
X1183758D01*
X1186297Y1553596D01*
Y1558675D01*
X1183758Y1561214D01*
X1178680D01*
X1176141Y1558675D01*
Y1553596D01*
X1178680Y1551057D01*
X1191376D02*
X1196454D01*
X1193915D01*
Y1566292D01*
X1191376D01*
X1214228D02*
Y1551057D01*
X1206611D01*
X1204072Y1553596D01*
Y1558675D01*
X1206611Y1561214D01*
X1214228D01*
X1226924Y1551057D02*
X1221846D01*
X1219307Y1553596D01*
Y1558675D01*
X1221846Y1561214D01*
X1226924D01*
X1229463Y1558675D01*
Y1556135D01*
X1219307D01*
X1234542Y1561214D02*
Y1551057D01*
Y1556135D01*
X1237081Y1558675D01*
X1239620Y1561214D01*
X1242159D01*
X1265012Y1551057D02*
Y1566292D01*
X1272629D01*
X1275169Y1563753D01*
Y1558675D01*
X1272629Y1556135D01*
X1265012D01*
X1270090D02*
X1275169Y1551057D01*
X1287865D02*
X1282786D01*
X1280247Y1553596D01*
Y1558675D01*
X1282786Y1561214D01*
X1287865D01*
X1290404Y1558675D01*
Y1556135D01*
X1280247D01*
X1295482Y1551057D02*
X1303100D01*
X1305639Y1553596D01*
X1303100Y1556135D01*
X1298021D01*
X1295482Y1558675D01*
X1298021Y1561214D01*
X1305639D01*
X1310717Y1551057D02*
X1315795D01*
X1313256D01*
Y1561214D01*
X1310717D01*
X1323413Y1551057D02*
X1331030D01*
X1333570Y1553596D01*
X1331030Y1556135D01*
X1325952D01*
X1323413Y1558675D01*
X1325952Y1561214D01*
X1333570D01*
X1341187Y1563753D02*
Y1561214D01*
X1338648D01*
X1343726D01*
X1341187D01*
Y1553596D01*
X1343726Y1551057D01*
X1171062Y1533273D02*
X1168523Y1535812D01*
X1163445D01*
X1160906Y1533273D01*
Y1523116D01*
X1163445Y1520577D01*
X1168523D01*
X1171062Y1523116D01*
X1186297Y1535812D02*
X1176141D01*
Y1528195D01*
X1181219D01*
X1176141D01*
Y1520577D01*
X1191376Y1528195D02*
X1201532D01*
X1206611Y1533273D02*
X1209150Y1535812D01*
X1214228D01*
X1216768Y1533273D01*
Y1523116D01*
X1214228Y1520577D01*
X1209150D01*
X1206611Y1523116D01*
Y1533273D01*
X1221846D02*
X1224385Y1535812D01*
X1229463D01*
X1232003Y1533273D01*
Y1523116D01*
X1229463Y1520577D01*
X1224385D01*
X1221846Y1523116D01*
Y1533273D01*
X1244698Y1520577D02*
Y1535812D01*
X1237081Y1528195D01*
X1247238D01*
X1160906Y1490097D02*
Y1505332D01*
X1168523D01*
X1171062Y1502793D01*
Y1497715D01*
X1168523Y1495175D01*
X1160906D01*
X1176141Y1490097D02*
Y1505332D01*
X1183758D01*
X1186297Y1502793D01*
Y1497715D01*
X1183758Y1495175D01*
X1176141D01*
X1191376Y1497715D02*
X1201532D01*
X1206611Y1502793D02*
X1209150Y1505332D01*
X1214228D01*
X1216768Y1502793D01*
Y1492636D01*
X1214228Y1490097D01*
X1209150D01*
X1206611Y1492636D01*
Y1502793D01*
X1221846D02*
X1224385Y1505332D01*
X1229463D01*
X1232003Y1502793D01*
Y1492636D01*
X1229463Y1490097D01*
X1224385D01*
X1221846Y1492636D01*
Y1502793D01*
X1247238Y1505332D02*
X1242159Y1502793D01*
X1237081Y1497715D01*
Y1492636D01*
X1239620Y1490097D01*
X1244698D01*
X1247238Y1492636D01*
Y1495175D01*
X1244698Y1497715D01*
X1237081D01*
X1171062Y1472313D02*
X1168523Y1474852D01*
X1163445D01*
X1160906Y1472313D01*
Y1462156D01*
X1163445Y1459617D01*
X1168523D01*
X1171062Y1462156D01*
X1186297Y1474852D02*
X1176141D01*
Y1467235D01*
X1181219D01*
X1176141D01*
Y1459617D01*
X1191376Y1467235D02*
X1201532D01*
X1206611Y1472313D02*
X1209150Y1474852D01*
X1214228D01*
X1216768Y1472313D01*
Y1462156D01*
X1214228Y1459617D01*
X1209150D01*
X1206611Y1462156D01*
Y1472313D01*
X1221846D02*
X1224385Y1474852D01*
X1229463D01*
X1232003Y1472313D01*
Y1462156D01*
X1229463Y1459617D01*
X1224385D01*
X1221846Y1462156D01*
Y1472313D01*
X1244698Y1459617D02*
Y1474852D01*
X1237081Y1467235D01*
X1247238D01*
X1171062Y1444372D02*
X1160906D01*
Y1436755D01*
X1165984D01*
X1160906D01*
Y1429137D01*
X1176141D02*
Y1444372D01*
X1183758D01*
X1186297Y1441833D01*
Y1436755D01*
X1183758Y1434215D01*
X1176141D01*
X1181219D02*
X1186297Y1429137D01*
X1191376Y1436755D02*
X1201532D01*
X1214228Y1429137D02*
Y1444372D01*
X1206611Y1436755D01*
X1216768D01*
X1171062Y1411353D02*
X1168523Y1413892D01*
X1163445D01*
X1160906Y1411353D01*
Y1401196D01*
X1163445Y1398657D01*
X1168523D01*
X1171062Y1401196D01*
X1186297Y1413892D02*
X1176141D01*
Y1406275D01*
X1181219D01*
X1176141D01*
Y1398657D01*
X1191376Y1406275D02*
X1201532D01*
X1206611Y1411353D02*
X1209150Y1413892D01*
X1214228D01*
X1216768Y1411353D01*
Y1401196D01*
X1214228Y1398657D01*
X1209150D01*
X1206611Y1401196D01*
Y1411353D01*
X1221846D02*
X1224385Y1413892D01*
X1229463D01*
X1232003Y1411353D01*
Y1401196D01*
X1229463Y1398657D01*
X1224385D01*
X1221846Y1401196D01*
Y1411353D01*
X1244698Y1398657D02*
Y1413892D01*
X1237081Y1406275D01*
X1247238D01*
X1160906Y1368177D02*
Y1383412D01*
X1168523D01*
X1171062Y1380873D01*
Y1375795D01*
X1168523Y1373255D01*
X1160906D01*
X1176141Y1368177D02*
Y1383412D01*
X1183758D01*
X1186297Y1380873D01*
Y1375795D01*
X1183758Y1373255D01*
X1176141D01*
X1191376Y1375795D02*
X1201532D01*
X1206611Y1380873D02*
X1209150Y1383412D01*
X1214228D01*
X1216768Y1380873D01*
Y1370716D01*
X1214228Y1368177D01*
X1209150D01*
X1206611Y1370716D01*
Y1380873D01*
X1221846D02*
X1224385Y1383412D01*
X1229463D01*
X1232003Y1380873D01*
Y1370716D01*
X1229463Y1368177D01*
X1224385D01*
X1221846Y1370716D01*
Y1380873D01*
X1247238Y1383412D02*
X1242159Y1380873D01*
X1237081Y1375795D01*
Y1370716D01*
X1239620Y1368177D01*
X1244698D01*
X1247238Y1370716D01*
Y1373255D01*
X1244698Y1375795D01*
X1237081D01*
X1171062Y1350393D02*
X1168523Y1352932D01*
X1163445D01*
X1160906Y1350393D01*
Y1340236D01*
X1163445Y1337697D01*
X1168523D01*
X1171062Y1340236D01*
X1186297Y1352932D02*
X1176141D01*
Y1345315D01*
X1181219D01*
X1176141D01*
Y1337697D01*
X1191376Y1345315D02*
X1201532D01*
X1206611Y1350393D02*
X1209150Y1352932D01*
X1214228D01*
X1216768Y1350393D01*
Y1340236D01*
X1214228Y1337697D01*
X1209150D01*
X1206611Y1340236D01*
Y1350393D01*
X1221846D02*
X1224385Y1352932D01*
X1229463D01*
X1232003Y1350393D01*
Y1340236D01*
X1229463Y1337697D01*
X1224385D01*
X1221846Y1340236D01*
Y1350393D01*
X1244698Y1337697D02*
Y1352932D01*
X1237081Y1345315D01*
X1247238D01*
X1171062Y1319913D02*
X1168523Y1322452D01*
X1163445D01*
X1160906Y1319913D01*
Y1317374D01*
X1163445Y1314835D01*
X1168523D01*
X1171062Y1312295D01*
Y1309756D01*
X1168523Y1307217D01*
X1163445D01*
X1160906Y1309756D01*
X1178680Y1307217D02*
X1183758D01*
X1186297Y1309756D01*
Y1314835D01*
X1183758Y1317374D01*
X1178680D01*
X1176141Y1314835D01*
Y1309756D01*
X1178680Y1307217D01*
X1191376D02*
X1196454D01*
X1193915D01*
Y1322452D01*
X1191376D01*
X1214228D02*
Y1307217D01*
X1206611D01*
X1204072Y1309756D01*
Y1314835D01*
X1206611Y1317374D01*
X1214228D01*
X1226924Y1307217D02*
X1221846D01*
X1219307Y1309756D01*
Y1314835D01*
X1221846Y1317374D01*
X1226924D01*
X1229463Y1314835D01*
Y1312295D01*
X1219307D01*
X1234542Y1317374D02*
Y1307217D01*
Y1312295D01*
X1237081Y1314835D01*
X1239620Y1317374D01*
X1242159D01*
X1265012Y1307217D02*
Y1322452D01*
X1272629D01*
X1275169Y1319913D01*
Y1314835D01*
X1272629Y1312295D01*
X1265012D01*
X1270090D02*
X1275169Y1307217D01*
X1287865D02*
X1282786D01*
X1280247Y1309756D01*
Y1314835D01*
X1282786Y1317374D01*
X1287865D01*
X1290404Y1314835D01*
Y1312295D01*
X1280247D01*
X1295482Y1307217D02*
X1303100D01*
X1305639Y1309756D01*
X1303100Y1312295D01*
X1298021D01*
X1295482Y1314835D01*
X1298021Y1317374D01*
X1305639D01*
X1310717Y1307217D02*
X1315795D01*
X1313256D01*
Y1317374D01*
X1310717D01*
X1323413Y1307217D02*
X1331030D01*
X1333570Y1309756D01*
X1331030Y1312295D01*
X1325952D01*
X1323413Y1314835D01*
X1325952Y1317374D01*
X1333570D01*
X1341187Y1319913D02*
Y1317374D01*
X1338648D01*
X1343726D01*
X1341187D01*
Y1309756D01*
X1343726Y1307217D01*
X1160906Y1612017D02*
Y1627252D01*
X1165984Y1622174D01*
X1171062Y1627252D01*
Y1612017D01*
X1178680Y1622174D02*
X1183758D01*
X1186297Y1619635D01*
Y1612017D01*
X1178680D01*
X1176141Y1614556D01*
X1178680Y1617095D01*
X1186297D01*
X1193915Y1624713D02*
Y1622174D01*
X1191376D01*
X1196454D01*
X1193915D01*
Y1614556D01*
X1196454Y1612017D01*
X1211689D02*
X1206611D01*
X1204072Y1614556D01*
Y1619635D01*
X1206611Y1622174D01*
X1211689D01*
X1214228Y1619635D01*
Y1617095D01*
X1204072D01*
X1219307Y1622174D02*
Y1612017D01*
Y1617095D01*
X1221846Y1619635D01*
X1224385Y1622174D01*
X1226924D01*
X1234542Y1612017D02*
X1239620D01*
X1237081D01*
Y1622174D01*
X1234542D01*
X1249777D02*
X1254855D01*
X1257394Y1619635D01*
Y1612017D01*
X1249777D01*
X1247238Y1614556D01*
X1249777Y1617095D01*
X1257394D01*
X1262473Y1612017D02*
X1267551D01*
X1265012D01*
Y1627252D01*
X1262473D01*
X924751Y1596772D02*
X934907D01*
X929829D01*
Y1581537D01*
X942525D02*
X947603D01*
X950142Y1584076D01*
Y1589155D01*
X947603Y1591694D01*
X942525D01*
X939986Y1589155D01*
Y1584076D01*
X942525Y1581537D01*
X955221Y1576459D02*
Y1591694D01*
X962838D01*
X965377Y1589155D01*
Y1584076D01*
X962838Y1581537D01*
X955221D01*
X993308Y1596772D02*
X988230D01*
X985691Y1594233D01*
Y1584076D01*
X988230Y1581537D01*
X993308D01*
X995847Y1584076D01*
Y1594233D01*
X993308Y1596772D01*
X1000926Y1591694D02*
X1006004Y1581537D01*
X1011083Y1591694D01*
X1023778Y1581537D02*
X1018700D01*
X1016161Y1584076D01*
Y1589155D01*
X1018700Y1591694D01*
X1023778D01*
X1026318Y1589155D01*
Y1586615D01*
X1016161D01*
X1031396Y1591694D02*
Y1581537D01*
Y1586615D01*
X1033935Y1589155D01*
X1036474Y1591694D01*
X1039014D01*
X1046631Y1581537D02*
X1051709D01*
X1049170D01*
Y1596772D01*
X1046631D01*
X1061866Y1591694D02*
X1066945D01*
X1069484Y1589155D01*
Y1581537D01*
X1061866D01*
X1059327Y1584076D01*
X1061866Y1586615D01*
X1069484D01*
X1074562Y1591694D02*
Y1584076D01*
X1077101Y1581537D01*
X1084719D01*
Y1578998D01*
X1082179Y1576459D01*
X1079640D01*
X1084719Y1581537D02*
Y1591694D01*
X924751Y1566292D02*
X934907D01*
X929829D01*
Y1551057D01*
X942525D02*
X947603D01*
X950142Y1553596D01*
Y1558675D01*
X947603Y1561214D01*
X942525D01*
X939986Y1558675D01*
Y1553596D01*
X942525Y1551057D01*
X955221Y1545979D02*
Y1561214D01*
X962838D01*
X965377Y1558675D01*
Y1553596D01*
X962838Y1551057D01*
X955221D01*
X995847Y1563753D02*
X993308Y1566292D01*
X988230D01*
X985691Y1563753D01*
Y1561214D01*
X988230Y1558675D01*
X993308D01*
X995847Y1556135D01*
Y1553596D01*
X993308Y1551057D01*
X988230D01*
X985691Y1553596D01*
X1003465Y1551057D02*
X1008543D01*
X1011083Y1553596D01*
Y1558675D01*
X1008543Y1561214D01*
X1003465D01*
X1000926Y1558675D01*
Y1553596D01*
X1003465Y1551057D01*
X1016161D02*
X1021239D01*
X1018700D01*
Y1566292D01*
X1016161D01*
X1039014D02*
Y1551057D01*
X1031396D01*
X1028857Y1553596D01*
Y1558675D01*
X1031396Y1561214D01*
X1039014D01*
X1051709Y1551057D02*
X1046631D01*
X1044092Y1553596D01*
Y1558675D01*
X1046631Y1561214D01*
X1051709D01*
X1054249Y1558675D01*
Y1556135D01*
X1044092D01*
X1059327Y1561214D02*
Y1551057D01*
Y1556135D01*
X1061866Y1558675D01*
X1064405Y1561214D01*
X1066945D01*
X924751Y1535812D02*
Y1520577D01*
X934907D01*
X939986D02*
X945064D01*
X942525D01*
Y1535812D01*
X939986Y1533273D01*
X924751Y1505332D02*
Y1490097D01*
X932368D01*
X934907Y1492636D01*
Y1502793D01*
X932368Y1505332D01*
X924751D01*
X939986Y1490097D02*
X945064D01*
X942525D01*
Y1500254D01*
X939986D01*
X960299Y1490097D02*
X955221D01*
X952681Y1492636D01*
Y1497715D01*
X955221Y1500254D01*
X960299D01*
X962838Y1497715D01*
Y1495175D01*
X952681D01*
X967916Y1490097D02*
X972995D01*
X970456D01*
Y1505332D01*
X967916D01*
X988230Y1490097D02*
X983152D01*
X980612Y1492636D01*
Y1497715D01*
X983152Y1500254D01*
X988230D01*
X990769Y1497715D01*
Y1495175D01*
X980612D01*
X1006004Y1500254D02*
X998387D01*
X995847Y1497715D01*
Y1492636D01*
X998387Y1490097D01*
X1006004D01*
X1013622Y1502793D02*
Y1500254D01*
X1011083D01*
X1016161D01*
X1013622D01*
Y1492636D01*
X1016161Y1490097D01*
X1023778Y1500254D02*
Y1490097D01*
Y1495175D01*
X1026318Y1497715D01*
X1028857Y1500254D01*
X1031396D01*
X1039014Y1490097D02*
X1044092D01*
X1041553D01*
Y1500254D01*
X1039014D01*
X1061866D02*
X1054249D01*
X1051709Y1497715D01*
Y1492636D01*
X1054249Y1490097D01*
X1061866D01*
X1092336D02*
X1082179D01*
X1092336Y1500254D01*
Y1502793D01*
X1089797Y1505332D01*
X1084719D01*
X1082179Y1502793D01*
X924751Y1474852D02*
Y1459617D01*
X934907D01*
X950142D02*
X939986D01*
X950142Y1469774D01*
Y1472313D01*
X947603Y1474852D01*
X942525D01*
X939986Y1472313D01*
X924751Y1444372D02*
Y1429137D01*
X932368D01*
X934907Y1431676D01*
Y1441833D01*
X932368Y1444372D01*
X924751D01*
X939986Y1429137D02*
X945064D01*
X942525D01*
Y1439294D01*
X939986D01*
X960299Y1429137D02*
X955221D01*
X952681Y1431676D01*
Y1436755D01*
X955221Y1439294D01*
X960299D01*
X962838Y1436755D01*
Y1434215D01*
X952681D01*
X967916Y1429137D02*
X972995D01*
X970456D01*
Y1444372D01*
X967916D01*
X988230Y1429137D02*
X983152D01*
X980612Y1431676D01*
Y1436755D01*
X983152Y1439294D01*
X988230D01*
X990769Y1436755D01*
Y1434215D01*
X980612D01*
X1006004Y1439294D02*
X998387D01*
X995847Y1436755D01*
Y1431676D01*
X998387Y1429137D01*
X1006004D01*
X1013622Y1441833D02*
Y1439294D01*
X1011083D01*
X1016161D01*
X1013622D01*
Y1431676D01*
X1016161Y1429137D01*
X1023778Y1439294D02*
Y1429137D01*
Y1434215D01*
X1026318Y1436755D01*
X1028857Y1439294D01*
X1031396D01*
X1039014Y1429137D02*
X1044092D01*
X1041553D01*
Y1439294D01*
X1039014D01*
X1061866D02*
X1054249D01*
X1051709Y1436755D01*
Y1431676D01*
X1054249Y1429137D01*
X1061866D01*
X1082179D02*
X1087258D01*
X1084719D01*
Y1444372D01*
X1082179Y1441833D01*
X924751Y1413892D02*
Y1398657D01*
X934907D01*
X939986Y1411353D02*
X942525Y1413892D01*
X947603D01*
X950142Y1411353D01*
Y1408814D01*
X947603Y1406275D01*
X945064D01*
X947603D01*
X950142Y1403735D01*
Y1401196D01*
X947603Y1398657D01*
X942525D01*
X939986Y1401196D01*
X924751Y1383412D02*
Y1368177D01*
X932368D01*
X934907Y1370716D01*
Y1380873D01*
X932368Y1383412D01*
X924751D01*
X939986Y1368177D02*
X945064D01*
X942525D01*
Y1378334D01*
X939986D01*
X960299Y1368177D02*
X955221D01*
X952681Y1370716D01*
Y1375795D01*
X955221Y1378334D01*
X960299D01*
X962838Y1375795D01*
Y1373255D01*
X952681D01*
X967916Y1368177D02*
X972995D01*
X970456D01*
Y1383412D01*
X967916D01*
X988230Y1368177D02*
X983152D01*
X980612Y1370716D01*
Y1375795D01*
X983152Y1378334D01*
X988230D01*
X990769Y1375795D01*
Y1373255D01*
X980612D01*
X1006004Y1378334D02*
X998387D01*
X995847Y1375795D01*
Y1370716D01*
X998387Y1368177D01*
X1006004D01*
X1013622Y1380873D02*
Y1378334D01*
X1011083D01*
X1016161D01*
X1013622D01*
Y1370716D01*
X1016161Y1368177D01*
X1023778Y1378334D02*
Y1368177D01*
Y1373255D01*
X1026318Y1375795D01*
X1028857Y1378334D01*
X1031396D01*
X1039014Y1368177D02*
X1044092D01*
X1041553D01*
Y1378334D01*
X1039014D01*
X1061866D02*
X1054249D01*
X1051709Y1375795D01*
Y1370716D01*
X1054249Y1368177D01*
X1061866D01*
X1082179Y1380873D02*
X1084719Y1383412D01*
X1089797D01*
X1092336Y1380873D01*
Y1378334D01*
X1089797Y1375795D01*
X1087258D01*
X1089797D01*
X1092336Y1373255D01*
Y1370716D01*
X1089797Y1368177D01*
X1084719D01*
X1082179Y1370716D01*
X924751Y1352932D02*
Y1337697D01*
X934907D01*
X947603D02*
Y1352932D01*
X939986Y1345315D01*
X950142D01*
X924751Y1322452D02*
Y1307217D01*
X932368D01*
X934907Y1309756D01*
Y1312295D01*
X932368Y1314835D01*
X924751D01*
X932368D01*
X934907Y1317374D01*
Y1319913D01*
X932368Y1322452D01*
X924751D01*
X942525Y1307217D02*
X947603D01*
X950142Y1309756D01*
Y1314835D01*
X947603Y1317374D01*
X942525D01*
X939986Y1314835D01*
Y1309756D01*
X942525Y1307217D01*
X957760Y1319913D02*
Y1317374D01*
X955221D01*
X960299D01*
X957760D01*
Y1309756D01*
X960299Y1307217D01*
X970456Y1319913D02*
Y1317374D01*
X967916D01*
X972995D01*
X970456D01*
Y1309756D01*
X972995Y1307217D01*
X983152D02*
X988230D01*
X990769Y1309756D01*
Y1314835D01*
X988230Y1317374D01*
X983152D01*
X980612Y1314835D01*
Y1309756D01*
X983152Y1307217D01*
X995847D02*
Y1317374D01*
X998387D01*
X1000926Y1314835D01*
Y1307217D01*
Y1314835D01*
X1003465Y1317374D01*
X1006004Y1314835D01*
Y1307217D01*
X1036474Y1319913D02*
X1033935Y1322452D01*
X1028857D01*
X1026318Y1319913D01*
Y1317374D01*
X1028857Y1314835D01*
X1033935D01*
X1036474Y1312295D01*
Y1309756D01*
X1033935Y1307217D01*
X1028857D01*
X1026318Y1309756D01*
X1044092Y1307217D02*
X1049170D01*
X1051709Y1309756D01*
Y1314835D01*
X1049170Y1317374D01*
X1044092D01*
X1041553Y1314835D01*
Y1309756D01*
X1044092Y1307217D01*
X1056788D02*
X1061866D01*
X1059327D01*
Y1322452D01*
X1056788D01*
X1079640D02*
Y1307217D01*
X1072023D01*
X1069484Y1309756D01*
Y1314835D01*
X1072023Y1317374D01*
X1079640D01*
X1092336Y1307217D02*
X1087258D01*
X1084719Y1309756D01*
Y1314835D01*
X1087258Y1317374D01*
X1092336D01*
X1094875Y1314835D01*
Y1312295D01*
X1084719D01*
X1099954Y1317374D02*
Y1307217D01*
Y1312295D01*
X1102493Y1314835D01*
X1105032Y1317374D01*
X1107571D01*
X924751Y1291972D02*
Y1276737D01*
X932368D01*
X934907Y1279276D01*
Y1281815D01*
X932368Y1284355D01*
X924751D01*
X932368D01*
X934907Y1286894D01*
Y1289433D01*
X932368Y1291972D01*
X924751D01*
X942525Y1276737D02*
X947603D01*
X950142Y1279276D01*
Y1284355D01*
X947603Y1286894D01*
X942525D01*
X939986Y1284355D01*
Y1279276D01*
X942525Y1276737D01*
X957760Y1289433D02*
Y1286894D01*
X955221D01*
X960299D01*
X957760D01*
Y1279276D01*
X960299Y1276737D01*
X970456Y1289433D02*
Y1286894D01*
X967916D01*
X972995D01*
X970456D01*
Y1279276D01*
X972995Y1276737D01*
X983152D02*
X988230D01*
X990769Y1279276D01*
Y1284355D01*
X988230Y1286894D01*
X983152D01*
X980612Y1284355D01*
Y1279276D01*
X983152Y1276737D01*
X995847D02*
Y1286894D01*
X998387D01*
X1000926Y1284355D01*
Y1276737D01*
Y1284355D01*
X1003465Y1286894D01*
X1006004Y1284355D01*
Y1276737D01*
X1033935Y1291972D02*
X1028857D01*
X1026318Y1289433D01*
Y1279276D01*
X1028857Y1276737D01*
X1033935D01*
X1036474Y1279276D01*
Y1289433D01*
X1033935Y1291972D01*
X1041553Y1286894D02*
X1046631Y1276737D01*
X1051709Y1286894D01*
X1064405Y1276737D02*
X1059327D01*
X1056788Y1279276D01*
Y1284355D01*
X1059327Y1286894D01*
X1064405D01*
X1066945Y1284355D01*
Y1281815D01*
X1056788D01*
X1072023Y1286894D02*
Y1276737D01*
Y1281815D01*
X1074562Y1284355D01*
X1077101Y1286894D01*
X1079640D01*
X1087258Y1276737D02*
X1092336D01*
X1089797D01*
Y1291972D01*
X1087258D01*
X1102493Y1286894D02*
X1107571D01*
X1110110Y1284355D01*
Y1276737D01*
X1102493D01*
X1099954Y1279276D01*
X1102493Y1281815D01*
X1110110D01*
X1115189Y1286894D02*
Y1279276D01*
X1117728Y1276737D01*
X1125346D01*
Y1274198D01*
X1122806Y1271659D01*
X1120267D01*
X1125346Y1276737D02*
Y1286894D01*
X924751Y1612017D02*
Y1627252D01*
X934907Y1612017D01*
Y1627252D01*
X942525Y1622174D02*
X947603D01*
X950142Y1619635D01*
Y1612017D01*
X942525D01*
X939986Y1614556D01*
X942525Y1617095D01*
X950142D01*
X955221Y1612017D02*
Y1622174D01*
X957760D01*
X960299Y1619635D01*
Y1612017D01*
Y1619635D01*
X962838Y1622174D01*
X965377Y1619635D01*
Y1612017D01*
X978073D02*
X972995D01*
X970456Y1614556D01*
Y1619635D01*
X972995Y1622174D01*
X978073D01*
X980612Y1619635D01*
Y1617095D01*
X970456D01*
X820633Y1520577D02*
X825711D01*
X823172D01*
Y1535812D01*
X820633Y1533273D01*
X830789Y1459617D02*
X820633D01*
X830789Y1469774D01*
Y1472313D01*
X828250Y1474852D01*
X823172D01*
X820633Y1472313D01*
Y1411353D02*
X823172Y1413892D01*
X828250D01*
X830789Y1411353D01*
Y1408814D01*
X828250Y1406275D01*
X825711D01*
X828250D01*
X830789Y1403735D01*
Y1401196D01*
X828250Y1398657D01*
X823172D01*
X820633Y1401196D01*
X828250Y1337697D02*
Y1352932D01*
X820633Y1345315D01*
X830789D01*
X820633Y1627252D02*
Y1612017D01*
X830789D01*
X838407Y1622174D02*
X843485D01*
X846024Y1619635D01*
Y1612017D01*
X838407D01*
X835868Y1614556D01*
X838407Y1617095D01*
X846024D01*
X851103Y1622174D02*
Y1614556D01*
X853642Y1612017D01*
X861260D01*
Y1609478D01*
X858720Y1606939D01*
X856181D01*
X861260Y1612017D02*
Y1622174D01*
X873955Y1612017D02*
X868877D01*
X866338Y1614556D01*
Y1619635D01*
X868877Y1622174D01*
X873955D01*
X876495Y1619635D01*
Y1617095D01*
X866338D01*
X881573Y1622174D02*
Y1612017D01*
Y1617095D01*
X884112Y1619635D01*
X886651Y1622174D01*
X889191D01*
X1060318Y2136352D02*
Y2151347D01*
X1065317Y2146348D01*
X1070315Y2151347D01*
Y2136352D01*
X1075313D02*
X1080312D01*
X1077812D01*
Y2146348D01*
X1075313D01*
X1087809Y2136352D02*
Y2146348D01*
X1095307D01*
X1097806Y2143849D01*
Y2136352D01*
X1102804D02*
X1107803D01*
X1105304D01*
Y2146348D01*
X1102804D01*
X1115300Y2136352D02*
Y2146348D01*
X1117800D01*
X1120299Y2143849D01*
Y2136352D01*
Y2143849D01*
X1122798Y2146348D01*
X1125297Y2143849D01*
Y2136352D01*
X1130296Y2146348D02*
Y2138851D01*
X1132795Y2136352D01*
X1140292D01*
Y2146348D01*
X1145291Y2136352D02*
Y2146348D01*
X1147790D01*
X1150289Y2143849D01*
Y2136352D01*
Y2143849D01*
X1152788Y2146348D01*
X1155287Y2143849D01*
Y2136352D01*
X1175281Y2151347D02*
X1185278D01*
X1180279D01*
Y2136352D01*
X1190276Y2146348D02*
Y2136352D01*
Y2141350D01*
X1192775Y2143849D01*
X1195275Y2146348D01*
X1197774D01*
X1207770D02*
X1212769D01*
X1215268Y2143849D01*
Y2136352D01*
X1207770D01*
X1205271Y2138851D01*
X1207770Y2141350D01*
X1215268D01*
X1230263Y2146348D02*
X1222766D01*
X1220266Y2143849D01*
Y2138851D01*
X1222766Y2136352D01*
X1230263D01*
X1235262D02*
Y2151347D01*
Y2141350D02*
X1242759Y2146348D01*
X1235262Y2141350D02*
X1242759Y2136352D01*
X1250257Y2146348D02*
X1252756D01*
Y2143849D01*
X1250257D01*
Y2146348D01*
Y2138851D02*
X1252756D01*
Y2136352D01*
X1250257D01*
Y2138851D01*
X1277748Y2148848D02*
X1280247Y2151347D01*
X1285245D01*
X1287745Y2148848D01*
Y2138851D01*
X1285245Y2136352D01*
X1280247D01*
X1277748Y2138851D01*
Y2148848D01*
X1292743Y2136352D02*
Y2138851D01*
X1295242D01*
Y2136352D01*
X1292743D01*
X1305239D02*
X1310237D01*
X1307738D01*
Y2151347D01*
X1305239Y2148848D01*
X1327732Y2151347D02*
X1317735D01*
Y2143849D01*
X1322733Y2146348D01*
X1325233D01*
X1327732Y2143849D01*
Y2138851D01*
X1325233Y2136352D01*
X1320234D01*
X1317735Y2138851D01*
X1332730Y2136352D02*
Y2146348D01*
X1335229D01*
X1337728Y2143849D01*
Y2136352D01*
Y2143849D01*
X1340228Y2146348D01*
X1342727Y2143849D01*
Y2136352D01*
X1347725D02*
Y2146348D01*
X1350224D01*
X1352724Y2143849D01*
Y2136352D01*
Y2143849D01*
X1355223Y2146348D01*
X1357722Y2143849D01*
Y2136352D01*
X1382714D02*
X1377715Y2141350D01*
Y2146348D01*
X1382714Y2151347D01*
X1400208D02*
X1390211D01*
Y2143849D01*
X1395210Y2146348D01*
X1397709D01*
X1400208Y2143849D01*
Y2138851D01*
X1397709Y2136352D01*
X1392711D01*
X1390211Y2138851D01*
X1405207D02*
X1407706Y2136352D01*
X1412704D01*
X1415203Y2138851D01*
Y2148848D01*
X1412704Y2151347D01*
X1407706D01*
X1405207Y2148848D01*
Y2146348D01*
X1407706Y2143849D01*
X1415203D01*
X1420202Y2148848D02*
X1422701Y2151347D01*
X1427699D01*
X1430199Y2148848D01*
Y2138851D01*
X1427699Y2136352D01*
X1422701D01*
X1420202Y2138851D01*
Y2148848D01*
X1435197Y2136352D02*
Y2138851D01*
X1437696D01*
Y2136352D01*
X1435197D01*
X1457690Y2151347D02*
X1447693D01*
Y2143849D01*
X1452691Y2146348D01*
X1455190D01*
X1457690Y2143849D01*
Y2138851D01*
X1455190Y2136352D01*
X1450192D01*
X1447693Y2138851D01*
X1472685Y2151347D02*
X1462688D01*
Y2143849D01*
X1467686Y2146348D01*
X1470186D01*
X1472685Y2143849D01*
Y2138851D01*
X1470186Y2136352D01*
X1465187D01*
X1462688Y2138851D01*
X1477683Y2136352D02*
X1482681D01*
X1480182D01*
Y2151347D01*
X1477683Y2148848D01*
X1500176Y2136352D02*
X1490179D01*
X1500176Y2146348D01*
Y2148848D01*
X1497677Y2151347D01*
X1492678D01*
X1490179Y2148848D01*
X1505174Y2136352D02*
Y2146348D01*
X1507673D01*
X1510173Y2143849D01*
Y2136352D01*
Y2143849D01*
X1512672Y2146348D01*
X1515171Y2143849D01*
Y2136352D01*
X1520169D02*
X1525168D01*
X1522668D01*
Y2146348D01*
X1520169D01*
X1532665Y2136352D02*
X1537664D01*
X1535164D01*
Y2151347D01*
X1532665D01*
X1545161Y2136352D02*
X1550160Y2141350D01*
Y2146348D01*
X1545161Y2151347D01*
X832296Y1199273D02*
X822300D01*
Y1184278D01*
X832296D01*
X822300Y1191776D02*
X827298D01*
X847292Y1199273D02*
Y1184278D01*
X839794D01*
X837295Y1186777D01*
Y1191776D01*
X839794Y1194275D01*
X847292D01*
X857288Y1179280D02*
X859788D01*
X862287Y1181779D01*
Y1194275D01*
X854789D01*
X852290Y1191776D01*
Y1186777D01*
X854789Y1184278D01*
X862287D01*
X874783D02*
X869784D01*
X867285Y1186777D01*
Y1191776D01*
X869784Y1194275D01*
X874783D01*
X877282Y1191776D01*
Y1189277D01*
X867285D01*
X897275Y1199273D02*
Y1184278D01*
X907272D01*
X914770D02*
X919768D01*
X922267Y1186777D01*
Y1191776D01*
X919768Y1194275D01*
X914770D01*
X912271Y1191776D01*
Y1186777D01*
X914770Y1184278D01*
X932264Y1179280D02*
X934763D01*
X937262Y1181779D01*
Y1194275D01*
X929765D01*
X927266Y1191776D01*
Y1186777D01*
X929765Y1184278D01*
X937262D01*
X942261D02*
X947259D01*
X944760D01*
Y1194275D01*
X942261D01*
X964753D02*
X957256D01*
X954757Y1191776D01*
Y1186777D01*
X957256Y1184278D01*
X964753D01*
X984747D02*
Y1194275D01*
X989745Y1199273D01*
X994744Y1194275D01*
Y1184278D01*
Y1191776D01*
X984747D01*
X999742Y1184278D02*
Y1194275D01*
X1007240D01*
X1009739Y1191776D01*
Y1184278D01*
X1017236Y1194275D02*
X1022235D01*
X1024734Y1191776D01*
Y1184278D01*
X1017236D01*
X1014737Y1186777D01*
X1017236Y1189277D01*
X1024734D01*
X1029733Y1184278D02*
X1034731D01*
X1032232D01*
Y1199273D01*
X1029733D01*
X1042228Y1194275D02*
Y1186777D01*
X1044728Y1184278D01*
X1052225D01*
Y1181779D01*
X1049726Y1179280D01*
X1047227D01*
X1052225Y1184278D02*
Y1194275D01*
X1057224D02*
X1067220D01*
X1057224Y1184278D01*
X1067220D01*
X1079716D02*
X1074718D01*
X1072219Y1186777D01*
Y1191776D01*
X1074718Y1194275D01*
X1079716D01*
X1082215Y1191776D01*
Y1189277D01*
X1072219D01*
X1087214Y1194275D02*
Y1184278D01*
Y1189277D01*
X1089713Y1191776D01*
X1092212Y1194275D01*
X1094712D01*
X1162300Y1184278D02*
Y1199273D01*
X1169797D01*
X1172296Y1196774D01*
Y1191776D01*
X1169797Y1189277D01*
X1162300D01*
X1177295Y1184278D02*
X1182293D01*
X1179794D01*
Y1199273D01*
X1177295Y1196774D01*
X836432Y1160940D02*
X826435D01*
Y1145945D01*
X836432D01*
X826435Y1153442D02*
X831433D01*
X851427Y1160940D02*
Y1145945D01*
X843930D01*
X841430Y1148444D01*
Y1153442D01*
X843930Y1155941D01*
X851427D01*
X861424Y1140946D02*
X863923D01*
X866422Y1143445D01*
Y1155941D01*
X858925D01*
X856425Y1153442D01*
Y1148444D01*
X858925Y1145945D01*
X866422D01*
X878918D02*
X873920D01*
X871421Y1148444D01*
Y1153442D01*
X873920Y1155941D01*
X878918D01*
X881417Y1153442D01*
Y1150943D01*
X871421D01*
X825661Y1107206D02*
X820663D01*
Y1122202D01*
X825661D01*
X833159Y1107206D02*
Y1122202D01*
X843155Y1107206D01*
Y1122202D01*
X850653Y1107206D02*
X855651D01*
X858150Y1109706D01*
Y1114704D01*
X855651Y1117203D01*
X850653D01*
X848154Y1114704D01*
Y1109706D01*
X850653Y1107206D01*
X878144Y1122202D02*
Y1112205D01*
X883142Y1107206D01*
X888141Y1112205D01*
Y1122202D01*
X895638Y1117203D02*
X900637D01*
X903136Y1114704D01*
Y1107206D01*
X895638D01*
X893139Y1109706D01*
X895638Y1112205D01*
X903136D01*
X908134Y1117203D02*
Y1107206D01*
Y1112205D01*
X910633Y1114704D01*
X913133Y1117203D01*
X915632D01*
X923129Y1107206D02*
X928128D01*
X925629D01*
Y1117203D01*
X923129D01*
X938125D02*
X943123D01*
X945622Y1114704D01*
Y1107206D01*
X938125D01*
X935625Y1109706D01*
X938125Y1112205D01*
X945622D01*
X953120Y1119702D02*
Y1117203D01*
X950621D01*
X955619D01*
X953120D01*
Y1109706D01*
X955619Y1107206D01*
X963117D02*
X968115D01*
X965616D01*
Y1117203D01*
X963117D01*
X978112Y1107206D02*
X983110D01*
X985609Y1109706D01*
Y1114704D01*
X983110Y1117203D01*
X978112D01*
X975612Y1114704D01*
Y1109706D01*
X978112Y1107206D01*
X990608D02*
Y1117203D01*
X998105D01*
X1000604Y1114704D01*
Y1107206D01*
X1005603D02*
X1013100D01*
X1015600Y1109706D01*
X1013100Y1112205D01*
X1008102D01*
X1005603Y1114704D01*
X1008102Y1117203D01*
X1015600D01*
X1020598Y1107206D02*
X1025596D01*
Y1122202D01*
X1020598D01*
X1060318Y2055512D02*
Y2070507D01*
X1065317Y2065508D01*
X1070315Y2070507D01*
Y2055512D01*
X1075313D02*
X1080312D01*
X1077812D01*
Y2065508D01*
X1075313D01*
X1087809Y2055512D02*
Y2065508D01*
X1095307D01*
X1097806Y2063009D01*
Y2055512D01*
X1102804D02*
X1107803D01*
X1105304D01*
Y2065508D01*
X1102804D01*
X1115300Y2055512D02*
Y2065508D01*
X1117800D01*
X1120299Y2063009D01*
Y2055512D01*
Y2063009D01*
X1122798Y2065508D01*
X1125297Y2063009D01*
Y2055512D01*
X1130296Y2065508D02*
Y2058011D01*
X1132795Y2055512D01*
X1140292D01*
Y2065508D01*
X1145291Y2055512D02*
Y2065508D01*
X1147790D01*
X1150289Y2063009D01*
Y2055512D01*
Y2063009D01*
X1152788Y2065508D01*
X1155287Y2063009D01*
Y2055512D01*
X1175281Y2070507D02*
X1185278D01*
X1180279D01*
Y2055512D01*
X1190276Y2070507D02*
Y2055512D01*
Y2063009D01*
X1192775Y2065508D01*
X1197774D01*
X1200273Y2063009D01*
Y2055512D01*
X1205271Y2065508D02*
Y2055512D01*
Y2060510D01*
X1207770Y2063009D01*
X1210270Y2065508D01*
X1212769D01*
X1222766Y2055512D02*
X1227764D01*
X1230263Y2058011D01*
Y2063009D01*
X1227764Y2065508D01*
X1222766D01*
X1220266Y2063009D01*
Y2058011D01*
X1222766Y2055512D01*
X1235262Y2065508D02*
Y2058011D01*
X1237761Y2055512D01*
X1245258D01*
Y2065508D01*
X1255255Y2050513D02*
X1257754D01*
X1260254Y2053012D01*
Y2065508D01*
X1252756D01*
X1250257Y2063009D01*
Y2058011D01*
X1252756Y2055512D01*
X1260254D01*
X1265252Y2070507D02*
Y2055512D01*
Y2063009D01*
X1267751Y2065508D01*
X1272749D01*
X1275249Y2063009D01*
Y2055512D01*
X1295242Y2070507D02*
Y2055512D01*
Y2063009D01*
X1305239D01*
Y2070507D01*
Y2055512D01*
X1312737D02*
X1317735D01*
X1320234Y2058011D01*
Y2063009D01*
X1317735Y2065508D01*
X1312737D01*
X1310237Y2063009D01*
Y2058011D01*
X1312737Y2055512D01*
X1325232D02*
X1330231D01*
X1327732D01*
Y2070507D01*
X1325232D01*
X1345226Y2055512D02*
X1340228D01*
X1337728Y2058011D01*
Y2063009D01*
X1340228Y2065508D01*
X1345226D01*
X1347725Y2063009D01*
Y2060510D01*
X1337728D01*
X1367719Y2070507D02*
Y2060510D01*
X1372717Y2055512D01*
X1377715Y2060510D01*
Y2070507D01*
X1382714D02*
X1387712D01*
X1385213D01*
Y2055512D01*
X1382714D01*
X1387712D01*
X1395210D02*
Y2065508D01*
X1400208Y2070507D01*
X1405206Y2065508D01*
Y2055512D01*
Y2063009D01*
X1395210D01*
X1410205Y2065508D02*
X1412704D01*
Y2063009D01*
X1410205D01*
Y2065508D01*
Y2058011D02*
X1412704D01*
Y2055512D01*
X1410205D01*
Y2058011D01*
X1437696Y2068008D02*
X1440195Y2070507D01*
X1445194D01*
X1447693Y2068008D01*
Y2058011D01*
X1445194Y2055512D01*
X1440195D01*
X1437696Y2058011D01*
Y2068008D01*
X1452691Y2055512D02*
Y2058011D01*
X1455190D01*
Y2055512D01*
X1452691D01*
X1475184Y2070507D02*
X1470186Y2068008D01*
X1465187Y2063009D01*
Y2058011D01*
X1467686Y2055512D01*
X1472685D01*
X1475184Y2058011D01*
Y2060510D01*
X1472685Y2063009D01*
X1465187D01*
X1480182Y2055512D02*
Y2065508D01*
X1482681D01*
X1485181Y2063009D01*
Y2055512D01*
Y2063009D01*
X1487680Y2065508D01*
X1490179Y2063009D01*
Y2055512D01*
X1495177D02*
Y2065508D01*
X1497677D01*
X1500176Y2063009D01*
Y2055512D01*
Y2063009D01*
X1502675Y2065508D01*
X1505174Y2063009D01*
Y2055512D01*
X1530166D02*
X1525168Y2060510D01*
Y2065508D01*
X1530166Y2070507D01*
X1547660Y2055512D02*
X1537664D01*
X1547660Y2065508D01*
Y2068008D01*
X1545161Y2070507D01*
X1540163D01*
X1537664Y2068008D01*
X1552659D02*
X1555158Y2070507D01*
X1560156D01*
X1562656Y2068008D01*
Y2065508D01*
X1560156Y2063009D01*
X1557657D01*
X1560156D01*
X1562656Y2060510D01*
Y2058011D01*
X1560156Y2055512D01*
X1555158D01*
X1552659Y2058011D01*
X1567654Y2055512D02*
Y2058011D01*
X1570153D01*
Y2055512D01*
X1567654D01*
X1590147Y2070507D02*
X1585148Y2068008D01*
X1580150Y2063009D01*
Y2058011D01*
X1582649Y2055512D01*
X1587648D01*
X1590147Y2058011D01*
Y2060510D01*
X1587648Y2063009D01*
X1580150D01*
X1605142Y2055512D02*
X1595145D01*
X1605142Y2065508D01*
Y2068008D01*
X1602643Y2070507D01*
X1597644D01*
X1595145Y2068008D01*
X1610140Y2055512D02*
Y2065508D01*
X1612639D01*
X1615139Y2063009D01*
Y2055512D01*
Y2063009D01*
X1617638Y2065508D01*
X1620137Y2063009D01*
Y2055512D01*
X1625135D02*
X1630134D01*
X1627634D01*
Y2065508D01*
X1625135D01*
X1637631Y2055512D02*
X1642630D01*
X1640130D01*
Y2070507D01*
X1637631D01*
X1650127Y2055512D02*
X1655126Y2060510D01*
Y2065508D01*
X1650127Y2070507D01*
X1682617Y2055512D02*
X1677618Y2060510D01*
Y2065508D01*
X1682617Y2070507D01*
X1690114Y2050513D02*
Y2065508D01*
X1697612D01*
X1700111Y2063009D01*
Y2058011D01*
X1697612Y2055512D01*
X1690114D01*
X1707609Y2065508D02*
X1712607D01*
X1715106Y2063009D01*
Y2055512D01*
X1707609D01*
X1705110Y2058011D01*
X1707609Y2060510D01*
X1715106D01*
X1730101Y2070507D02*
Y2055512D01*
X1722604D01*
X1720105Y2058011D01*
Y2063009D01*
X1722604Y2065508D01*
X1730101D01*
X1735100Y2055512D02*
X1740098Y2060510D01*
Y2065508D01*
X1735100Y2070507D01*
X1762591Y2055512D02*
X1772588Y2065508D01*
X1792581Y2068008D02*
X1795080Y2070507D01*
X1800079D01*
X1802578Y2068008D01*
Y2058011D01*
X1800079Y2055512D01*
X1795080D01*
X1792581Y2058011D01*
Y2068008D01*
X1807576Y2055512D02*
Y2058011D01*
X1810076D01*
Y2055512D01*
X1807576D01*
X1820072Y2068008D02*
X1822572Y2070507D01*
X1827570D01*
X1830069Y2068008D01*
Y2065508D01*
X1827570Y2063009D01*
X1825071D01*
X1827570D01*
X1830069Y2060510D01*
Y2058011D01*
X1827570Y2055512D01*
X1822572D01*
X1820072Y2058011D01*
X1835067Y2055512D02*
Y2065508D01*
X1837567D01*
X1840066Y2063009D01*
Y2055512D01*
Y2063009D01*
X1842565Y2065508D01*
X1845064Y2063009D01*
Y2055512D01*
X1850063D02*
Y2065508D01*
X1852562D01*
X1855061Y2063009D01*
Y2055512D01*
Y2063009D01*
X1857560Y2065508D01*
X1860059Y2063009D01*
Y2055512D01*
X1885051D02*
X1880053Y2060510D01*
Y2065508D01*
X1885051Y2070507D01*
X1892549Y2055512D02*
X1897547D01*
X1895048D01*
Y2070507D01*
X1892549Y2068008D01*
X1905045Y2055512D02*
X1910043D01*
X1907544D01*
Y2070507D01*
X1905045Y2068008D01*
X1917541Y2055512D02*
Y2058011D01*
X1920040D01*
Y2055512D01*
X1917541D01*
X1930037Y2068008D02*
X1932536Y2070507D01*
X1937534D01*
X1940034Y2068008D01*
Y2065508D01*
X1937534Y2063009D01*
X1940034Y2060510D01*
Y2058011D01*
X1937534Y2055512D01*
X1932536D01*
X1930037Y2058011D01*
Y2060510D01*
X1932536Y2063009D01*
X1930037Y2065508D01*
Y2068008D01*
X1932536Y2063009D02*
X1937534D01*
X1945032Y2055512D02*
Y2065508D01*
X1947531D01*
X1950030Y2063009D01*
Y2055512D01*
Y2063009D01*
X1952529Y2065508D01*
X1955029Y2063009D01*
Y2055512D01*
X1960027D02*
X1965025D01*
X1962526D01*
Y2065508D01*
X1960027D01*
X1972523Y2055512D02*
X1977521D01*
X1975022D01*
Y2070507D01*
X1972523D01*
X1985019Y2055512D02*
X1990017Y2060510D01*
Y2065508D01*
X1985019Y2070507D01*
X2017508Y2055512D02*
X2012510Y2060510D01*
Y2065508D01*
X2017508Y2070507D01*
X2025006D02*
Y2055512D01*
X2032504D01*
X2035003Y2058011D01*
Y2068008D01*
X2032504Y2070507D01*
X2025006D01*
X2040001Y2065508D02*
Y2055512D01*
Y2060510D01*
X2042500Y2063009D01*
X2045000Y2065508D01*
X2047499D01*
X2054996Y2055512D02*
X2059995D01*
X2057496D01*
Y2065508D01*
X2054996D01*
X2067492Y2055512D02*
X2072491D01*
X2069991D01*
Y2070507D01*
X2067492D01*
X2079988Y2055512D02*
X2084987D01*
X2082487D01*
Y2070507D01*
X2079988D01*
X2092484Y2055512D02*
X2097482Y2060510D01*
Y2065508D01*
X2092484Y2070507D01*
X1060318Y2096352D02*
Y2111347D01*
X1065317Y2106348D01*
X1070315Y2111347D01*
Y2096352D01*
X1075313D02*
X1080312D01*
X1077812D01*
Y2106348D01*
X1075313D01*
X1087809Y2096352D02*
Y2106348D01*
X1095307D01*
X1097806Y2103849D01*
Y2096352D01*
X1102804D02*
X1107803D01*
X1105304D01*
Y2106348D01*
X1102804D01*
X1115300Y2096352D02*
Y2106348D01*
X1117800D01*
X1120299Y2103849D01*
Y2096352D01*
Y2103849D01*
X1122798Y2106348D01*
X1125297Y2103849D01*
Y2096352D01*
X1130296Y2106348D02*
Y2098851D01*
X1132795Y2096352D01*
X1140292D01*
Y2106348D01*
X1145291Y2096352D02*
Y2106348D01*
X1147790D01*
X1150289Y2103849D01*
Y2096352D01*
Y2103849D01*
X1152788Y2106348D01*
X1155287Y2103849D01*
Y2096352D01*
X1185278Y2108848D02*
X1182779Y2111347D01*
X1177780D01*
X1175281Y2108848D01*
Y2098851D01*
X1177780Y2096352D01*
X1182779D01*
X1185278Y2098851D01*
X1190276Y2096352D02*
X1195275D01*
X1192775D01*
Y2111347D01*
X1190276D01*
X1210270Y2096352D02*
X1205271D01*
X1202772Y2098851D01*
Y2103849D01*
X1205271Y2106348D01*
X1210270D01*
X1212769Y2103849D01*
Y2101350D01*
X1202772D01*
X1220266Y2106348D02*
X1225265D01*
X1227764Y2103849D01*
Y2096352D01*
X1220266D01*
X1217767Y2098851D01*
X1220266Y2101350D01*
X1227764D01*
X1232762Y2106348D02*
Y2096352D01*
Y2101350D01*
X1235262Y2103849D01*
X1237761Y2106348D01*
X1240260D01*
X1250257D02*
X1255255D01*
X1257754Y2103849D01*
Y2096352D01*
X1250257D01*
X1247757Y2098851D01*
X1250257Y2101350D01*
X1257754D01*
X1262753Y2096352D02*
Y2106348D01*
X1270250D01*
X1272749Y2103849D01*
Y2096352D01*
X1287745Y2106348D02*
X1280247D01*
X1277748Y2103849D01*
Y2098851D01*
X1280247Y2096352D01*
X1287745D01*
X1300240D02*
X1295242D01*
X1292743Y2098851D01*
Y2103849D01*
X1295242Y2106348D01*
X1300240D01*
X1302740Y2103849D01*
Y2101350D01*
X1292743D01*
X1307738Y2106348D02*
X1310237D01*
Y2103849D01*
X1307738D01*
Y2106348D01*
Y2098851D02*
X1310237D01*
Y2096352D01*
X1307738D01*
Y2098851D01*
X1335229Y2108848D02*
X1337728Y2111347D01*
X1342727D01*
X1345226Y2108848D01*
Y2098851D01*
X1342727Y2096352D01*
X1337728D01*
X1335229Y2098851D01*
Y2108848D01*
X1350224Y2096352D02*
Y2098851D01*
X1352724D01*
Y2096352D01*
X1350224D01*
X1362720D02*
X1367719D01*
X1365220D01*
Y2111347D01*
X1362720Y2108848D01*
X1385213Y2111347D02*
X1380215Y2108848D01*
X1375216Y2103849D01*
Y2098851D01*
X1377715Y2096352D01*
X1382714D01*
X1385213Y2098851D01*
Y2101350D01*
X1382714Y2103849D01*
X1375216D01*
X1390211Y2096352D02*
Y2106348D01*
X1392711D01*
X1395210Y2103849D01*
Y2096352D01*
Y2103849D01*
X1397709Y2106348D01*
X1400208Y2103849D01*
Y2096352D01*
X1405207D02*
Y2106348D01*
X1407706D01*
X1410205Y2103849D01*
Y2096352D01*
Y2103849D01*
X1412704Y2106348D01*
X1415203Y2103849D01*
Y2096352D01*
X1440195D02*
X1435197Y2101350D01*
Y2106348D01*
X1440195Y2111347D01*
X1457690D02*
X1452691Y2108848D01*
X1447693Y2103849D01*
Y2098851D01*
X1450192Y2096352D01*
X1455190D01*
X1457690Y2098851D01*
Y2101350D01*
X1455190Y2103849D01*
X1447693D01*
X1472685Y2096352D02*
X1462688D01*
X1472685Y2106348D01*
Y2108848D01*
X1470186Y2111347D01*
X1465187D01*
X1462688Y2108848D01*
X1477683Y2098851D02*
X1480182Y2096352D01*
X1485181D01*
X1487680Y2098851D01*
Y2108848D01*
X1485181Y2111347D01*
X1480182D01*
X1477683Y2108848D01*
Y2106348D01*
X1480182Y2103849D01*
X1487680D01*
X1492678Y2096352D02*
Y2098851D01*
X1495177D01*
Y2096352D01*
X1492678D01*
X1505174Y2098851D02*
X1507673Y2096352D01*
X1512672D01*
X1515171Y2098851D01*
Y2108848D01*
X1512672Y2111347D01*
X1507673D01*
X1505174Y2108848D01*
Y2106348D01*
X1507673Y2103849D01*
X1515171D01*
X1530166Y2096352D02*
X1520169D01*
X1530166Y2106348D01*
Y2108848D01*
X1527667Y2111347D01*
X1522668D01*
X1520169Y2108848D01*
X1535164Y2096352D02*
X1540163D01*
X1537664D01*
Y2111347D01*
X1535164Y2108848D01*
X1547661D02*
X1550160Y2111347D01*
X1555158D01*
X1557657Y2108848D01*
Y2106348D01*
X1555158Y2103849D01*
X1552659D01*
X1555158D01*
X1557657Y2101350D01*
Y2098851D01*
X1555158Y2096352D01*
X1550160D01*
X1547661Y2098851D01*
X1562656Y2096352D02*
Y2106348D01*
X1565155D01*
X1567654Y2103849D01*
Y2096352D01*
Y2103849D01*
X1570153Y2106348D01*
X1572652Y2103849D01*
Y2096352D01*
X1577651D02*
X1582649D01*
X1580150D01*
Y2106348D01*
X1577651D01*
X1590147Y2096352D02*
X1595145D01*
X1592646D01*
Y2111347D01*
X1590147D01*
X1602643Y2096352D02*
X1607641Y2101350D01*
Y2106348D01*
X1602643Y2111347D01*
X580315Y2128848D02*
X577816Y2131347D01*
X572817D01*
X570318Y2128848D01*
Y2118851D01*
X572817Y2116352D01*
X577816D01*
X580315Y2118851D01*
Y2123849D01*
X575317D01*
X585313Y2131347D02*
X595310D01*
X590312D01*
Y2116352D01*
X600308D02*
Y2131347D01*
X607806D01*
X610305Y2128848D01*
Y2123849D01*
X607806Y2121350D01*
X600308D01*
X630299Y2123849D02*
X640295D01*
X660289Y2131347D02*
X670286D01*
X665287D01*
Y2116352D01*
X677783D02*
X682782D01*
X685281Y2118851D01*
Y2123849D01*
X682782Y2126348D01*
X677783D01*
X675284Y2123849D01*
Y2118851D01*
X677783Y2116352D01*
X690279Y2111353D02*
Y2126348D01*
X697777D01*
X700276Y2123849D01*
Y2118851D01*
X697777Y2116352D01*
X690279D01*
X720270D02*
Y2131347D01*
X727767D01*
X730266Y2128848D01*
Y2123849D01*
X727767Y2121350D01*
X720270D01*
X737764Y2126348D02*
X742762D01*
X745262Y2123849D01*
Y2116352D01*
X737764D01*
X735265Y2118851D01*
X737764Y2121350D01*
X745262D01*
X750260Y2116352D02*
X757757D01*
X760257Y2118851D01*
X757757Y2121350D01*
X752759D01*
X750260Y2123849D01*
X752759Y2126348D01*
X760257D01*
X767754Y2128848D02*
Y2126348D01*
X765255D01*
X770254D01*
X767754D01*
Y2118851D01*
X770254Y2116352D01*
X785249D02*
X780250D01*
X777751Y2118851D01*
Y2123849D01*
X780250Y2126348D01*
X785249D01*
X787748Y2123849D01*
Y2121350D01*
X777751D01*
X580315Y2098848D02*
X577816Y2101347D01*
X572817D01*
X570318Y2098848D01*
Y2088851D01*
X572817Y2086352D01*
X577816D01*
X580315Y2088851D01*
Y2093849D01*
X575317D01*
X585313Y2101347D02*
X595310D01*
X590312D01*
Y2086352D01*
X610305Y2098848D02*
X607806Y2101347D01*
X602808D01*
X600308Y2098848D01*
Y2096348D01*
X602808Y2093849D01*
X607806D01*
X610305Y2091350D01*
Y2088851D01*
X607806Y2086352D01*
X602808D01*
X600308Y2088851D01*
X630299Y2093849D02*
X640295D01*
X660289Y2101347D02*
X670286D01*
X665287D01*
Y2086352D01*
X677783D02*
X682782D01*
X685281Y2088851D01*
Y2093849D01*
X682782Y2096348D01*
X677783D01*
X675284Y2093849D01*
Y2088851D01*
X677783Y2086352D01*
X690279Y2081353D02*
Y2096348D01*
X697777D01*
X700276Y2093849D01*
Y2088851D01*
X697777Y2086352D01*
X690279D01*
X730266Y2098848D02*
X727767Y2101347D01*
X722769D01*
X720270Y2098848D01*
Y2096348D01*
X722769Y2093849D01*
X727767D01*
X730266Y2091350D01*
Y2088851D01*
X727767Y2086352D01*
X722769D01*
X720270Y2088851D01*
X737764Y2086352D02*
X742762D01*
X745262Y2088851D01*
Y2093849D01*
X742762Y2096348D01*
X737764D01*
X735265Y2093849D01*
Y2088851D01*
X737764Y2086352D01*
X750260D02*
X755258D01*
X752759D01*
Y2101347D01*
X750260D01*
X772753D02*
Y2086352D01*
X765255D01*
X762756Y2088851D01*
Y2093849D01*
X765255Y2096348D01*
X772753D01*
X785249Y2086352D02*
X780250D01*
X777751Y2088851D01*
Y2093849D01*
X780250Y2096348D01*
X785249D01*
X787748Y2093849D01*
Y2091350D01*
X777751D01*
X792746Y2096348D02*
Y2086352D01*
Y2091350D01*
X795245Y2093849D01*
X797745Y2096348D01*
X800244D01*
X580315Y2157972D02*
X577816Y2160471D01*
X572817D01*
X570318Y2157972D01*
Y2147975D01*
X572817Y2145476D01*
X577816D01*
X580315Y2147975D01*
Y2152973D01*
X575317D01*
X585313Y2160471D02*
X595310D01*
X590312D01*
Y2145476D01*
X607806Y2160471D02*
X602808D01*
X600308Y2157972D01*
Y2147975D01*
X602808Y2145476D01*
X607806D01*
X610305Y2147975D01*
Y2157972D01*
X607806Y2160471D01*
X630299Y2152973D02*
X640295D01*
X660289Y2160471D02*
X670286D01*
X665287D01*
Y2145476D01*
X677783D02*
X682782D01*
X685281Y2147975D01*
Y2152973D01*
X682782Y2155472D01*
X677783D01*
X675284Y2152973D01*
Y2147975D01*
X677783Y2145476D01*
X690279Y2140477D02*
Y2155472D01*
X697777D01*
X700276Y2152973D01*
Y2147975D01*
X697777Y2145476D01*
X690279D01*
X727767Y2160471D02*
X722769D01*
X720270Y2157972D01*
Y2147975D01*
X722769Y2145476D01*
X727767D01*
X730266Y2147975D01*
Y2157972D01*
X727767Y2160471D01*
X735265Y2155472D02*
X740263Y2145476D01*
X745262Y2155472D01*
X757757Y2145476D02*
X752759D01*
X750260Y2147975D01*
Y2152973D01*
X752759Y2155472D01*
X757757D01*
X760257Y2152973D01*
Y2150474D01*
X750260D01*
X765255Y2155472D02*
Y2145476D01*
Y2150474D01*
X767754Y2152973D01*
X770254Y2155472D01*
X772753D01*
X780250Y2145476D02*
X785249D01*
X782749D01*
Y2160471D01*
X780250D01*
X795245Y2155472D02*
X800244D01*
X802743Y2152973D01*
Y2145476D01*
X795245D01*
X792746Y2147975D01*
X795245Y2150474D01*
X802743D01*
X807741Y2155472D02*
Y2147975D01*
X810240Y2145476D01*
X817738D01*
Y2142977D01*
X815239Y2140477D01*
X812740D01*
X817738Y2145476D02*
Y2155472D01*
X580315Y1918848D02*
X577816Y1921347D01*
X572817D01*
X570318Y1918848D01*
Y1908851D01*
X572817Y1906352D01*
X577816D01*
X580315Y1908851D01*
Y1913849D01*
X575317D01*
X585313Y1921347D02*
Y1906352D01*
X592811D01*
X595310Y1908851D01*
Y1911350D01*
X592811Y1913849D01*
X585313D01*
X592811D01*
X595310Y1916348D01*
Y1918848D01*
X592811Y1921347D01*
X585313D01*
X600308Y1906352D02*
Y1921347D01*
X607806D01*
X610305Y1918848D01*
Y1913849D01*
X607806Y1911350D01*
X600308D01*
X630299Y1913849D02*
X640295D01*
X660289Y1921347D02*
Y1906352D01*
X667787D01*
X670286Y1908851D01*
Y1911350D01*
X667787Y1913849D01*
X660289D01*
X667787D01*
X670286Y1916348D01*
Y1918848D01*
X667787Y1921347D01*
X660289D01*
X677783Y1906352D02*
X682782D01*
X685281Y1908851D01*
Y1913849D01*
X682782Y1916348D01*
X677783D01*
X675284Y1913849D01*
Y1908851D01*
X677783Y1906352D01*
X692778Y1918848D02*
Y1916348D01*
X690279D01*
X695278D01*
X692778D01*
Y1908851D01*
X695278Y1906352D01*
X705275Y1918848D02*
Y1916348D01*
X702775D01*
X707774D01*
X705275D01*
Y1908851D01*
X707774Y1906352D01*
X717770D02*
X722769D01*
X725268Y1908851D01*
Y1913849D01*
X722769Y1916348D01*
X717770D01*
X715271Y1913849D01*
Y1908851D01*
X717770Y1906352D01*
X730266D02*
Y1916348D01*
X732766D01*
X735265Y1913849D01*
Y1906352D01*
Y1913849D01*
X737764Y1916348D01*
X740263Y1913849D01*
Y1906352D01*
X760257D02*
Y1921347D01*
X767754D01*
X770254Y1918848D01*
Y1913849D01*
X767754Y1911350D01*
X760257D01*
X777751Y1916348D02*
X782749D01*
X785249Y1913849D01*
Y1906352D01*
X777751D01*
X775252Y1908851D01*
X777751Y1911350D01*
X785249D01*
X790247Y1906352D02*
X797745D01*
X800244Y1908851D01*
X797745Y1911350D01*
X792746D01*
X790247Y1913849D01*
X792746Y1916348D01*
X800244D01*
X807741Y1918848D02*
Y1916348D01*
X805242D01*
X810240D01*
X807741D01*
Y1908851D01*
X810240Y1906352D01*
X825236D02*
X820237D01*
X817738Y1908851D01*
Y1913849D01*
X820237Y1916348D01*
X825236D01*
X827735Y1913849D01*
Y1911350D01*
X817738D01*
X580315Y2038848D02*
X577816Y2041347D01*
X572817D01*
X570318Y2038848D01*
Y2028851D01*
X572817Y2026352D01*
X577816D01*
X580315Y2028851D01*
Y2033849D01*
X575317D01*
X585313Y2026352D02*
X590312D01*
X587812D01*
Y2041347D01*
X585313Y2038848D01*
X627800Y2033849D02*
X637796D01*
X657790Y2041347D02*
Y2026352D01*
X667787D01*
X682782D02*
X672785D01*
X682782Y2036348D01*
Y2038848D01*
X680283Y2041347D01*
X675284D01*
X672785Y2038848D01*
X707774Y2026352D02*
X702775Y2031350D01*
Y2036348D01*
X707774Y2041347D01*
X715271Y2026352D02*
Y2041347D01*
X722769D01*
X725268Y2038848D01*
Y2033849D01*
X722769Y2031350D01*
X715271D01*
X732766Y2026352D02*
X737764D01*
X740263Y2028851D01*
Y2033849D01*
X737764Y2036348D01*
X732766D01*
X730266Y2033849D01*
Y2028851D01*
X732766Y2026352D01*
X745262D02*
X752759D01*
X755258Y2028851D01*
X752759Y2031350D01*
X747761D01*
X745262Y2033849D01*
X747761Y2036348D01*
X755258D01*
X760257Y2026352D02*
X765255D01*
X762756D01*
Y2036348D01*
X760257D01*
X775252Y2038848D02*
Y2036348D01*
X772753D01*
X777751D01*
X775252D01*
Y2028851D01*
X777751Y2026352D01*
X785249D02*
X790247D01*
X787748D01*
Y2036348D01*
X785249D01*
X797745D02*
X802743Y2026352D01*
X807741Y2036348D01*
X820237Y2026352D02*
X815239D01*
X812740Y2028851D01*
Y2033849D01*
X815239Y2036348D01*
X820237D01*
X822737Y2033849D01*
Y2031350D01*
X812740D01*
X827735Y2026352D02*
X832733Y2031350D01*
Y2036348D01*
X827735Y2041347D01*
X580315Y2068848D02*
X577816Y2071347D01*
X572817D01*
X570318Y2068848D01*
Y2058851D01*
X572817Y2056352D01*
X577816D01*
X580315Y2058851D01*
Y2063849D01*
X575317D01*
X585313Y2071347D02*
X595310D01*
X590312D01*
Y2056352D01*
X600308Y2071347D02*
Y2056352D01*
X610305D01*
X630299Y2063849D02*
X640295D01*
X660289Y2071347D02*
Y2056352D01*
X670286D01*
X675284D02*
X680283D01*
X677783D01*
Y2071347D01*
X675284Y2068848D01*
X707774Y2056352D02*
X702775Y2061350D01*
Y2066348D01*
X707774Y2071347D01*
X715271Y2056352D02*
Y2071347D01*
X722769D01*
X725268Y2068848D01*
Y2063849D01*
X722769Y2061350D01*
X715271D01*
X732766Y2056352D02*
X737764D01*
X740263Y2058851D01*
Y2063849D01*
X737764Y2066348D01*
X732766D01*
X730266Y2063849D01*
Y2058851D01*
X732766Y2056352D01*
X745262D02*
X752759D01*
X755258Y2058851D01*
X752759Y2061350D01*
X747761D01*
X745262Y2063849D01*
X747761Y2066348D01*
X755258D01*
X760257Y2056352D02*
X765255D01*
X762756D01*
Y2066348D01*
X760257D01*
X775252Y2068848D02*
Y2066348D01*
X772753D01*
X777751D01*
X775252D01*
Y2058851D01*
X777751Y2056352D01*
X785249D02*
X790247D01*
X787748D01*
Y2066348D01*
X785249D01*
X797745D02*
X802743Y2056352D01*
X807741Y2066348D01*
X820237Y2056352D02*
X815239D01*
X812740Y2058851D01*
Y2063849D01*
X815239Y2066348D01*
X820237D01*
X822737Y2063849D01*
Y2061350D01*
X812740D01*
X827735Y2056352D02*
X832733Y2061350D01*
Y2066348D01*
X827735Y2071347D01*
X580315Y1978848D02*
X577816Y1981347D01*
X572817D01*
X570318Y1978848D01*
Y1968851D01*
X572817Y1966352D01*
X577816D01*
X580315Y1968851D01*
Y1973849D01*
X575317D01*
X585313Y1981347D02*
Y1966352D01*
X592811D01*
X595310Y1968851D01*
Y1971350D01*
X592811Y1973849D01*
X585313D01*
X592811D01*
X595310Y1976348D01*
Y1978848D01*
X592811Y1981347D01*
X585313D01*
X600308D02*
Y1966352D01*
X610305D01*
X630299Y1973849D02*
X640295D01*
X660289Y1981347D02*
Y1966352D01*
X670286D01*
X682782D02*
Y1981347D01*
X675284Y1973849D01*
X685281D01*
X710273Y1966352D02*
X705275Y1971350D01*
Y1976348D01*
X710273Y1981347D01*
X717770Y1966352D02*
Y1981347D01*
X725268D01*
X727767Y1978848D01*
Y1973849D01*
X725268Y1971350D01*
X717770D01*
X735265Y1966352D02*
X740263D01*
X742762Y1968851D01*
Y1973849D01*
X740263Y1976348D01*
X735265D01*
X732766Y1973849D01*
Y1968851D01*
X735265Y1966352D01*
X747761D02*
X755258D01*
X757757Y1968851D01*
X755258Y1971350D01*
X750260D01*
X747761Y1973849D01*
X750260Y1976348D01*
X757757D01*
X762756Y1966352D02*
X767754D01*
X765255D01*
Y1976348D01*
X762756D01*
X777751Y1978848D02*
Y1976348D01*
X775252D01*
X780250D01*
X777751D01*
Y1968851D01*
X780250Y1966352D01*
X787748D02*
X792746D01*
X790247D01*
Y1976348D01*
X787748D01*
X800244D02*
X805242Y1966352D01*
X810240Y1976348D01*
X822737Y1966352D02*
X817738D01*
X815239Y1968851D01*
Y1973849D01*
X817738Y1976348D01*
X822737D01*
X825236Y1973849D01*
Y1971350D01*
X815239D01*
X830234Y1966352D02*
X835232Y1971350D01*
Y1976348D01*
X830234Y1981347D01*
X580315Y2008848D02*
X577816Y2011347D01*
X572817D01*
X570318Y2008848D01*
Y1998851D01*
X572817Y1996352D01*
X577816D01*
X580315Y1998851D01*
Y2003849D01*
X575317D01*
X595310Y1996352D02*
X585313D01*
X595310Y2006348D01*
Y2008848D01*
X592811Y2011347D01*
X587812D01*
X585313Y2008848D01*
X630299Y2003849D02*
X640295D01*
X660289Y2011347D02*
Y1996352D01*
X670286D01*
X675284Y2008848D02*
X677783Y2011347D01*
X682782D01*
X685281Y2008848D01*
Y2006348D01*
X682782Y2003849D01*
X680283D01*
X682782D01*
X685281Y2001350D01*
Y1998851D01*
X682782Y1996352D01*
X677783D01*
X675284Y1998851D01*
X710273Y1996352D02*
X705275Y2001350D01*
Y2006348D01*
X710273Y2011347D01*
X717770Y1996352D02*
Y2011347D01*
X725268D01*
X727767Y2008848D01*
Y2003849D01*
X725268Y2001350D01*
X717770D01*
X735265Y1996352D02*
X740263D01*
X742762Y1998851D01*
Y2003849D01*
X740263Y2006348D01*
X735265D01*
X732766Y2003849D01*
Y1998851D01*
X735265Y1996352D01*
X747761D02*
X755258D01*
X757757Y1998851D01*
X755258Y2001350D01*
X750260D01*
X747761Y2003849D01*
X750260Y2006348D01*
X757757D01*
X762756Y1996352D02*
X767754D01*
X765255D01*
Y2006348D01*
X762756D01*
X777751Y2008848D02*
Y2006348D01*
X775252D01*
X780250D01*
X777751D01*
Y1998851D01*
X780250Y1996352D01*
X787748D02*
X792746D01*
X790247D01*
Y2006348D01*
X787748D01*
X800244D02*
X805242Y1996352D01*
X810240Y2006348D01*
X822737Y1996352D02*
X817738D01*
X815239Y1998851D01*
Y2003849D01*
X817738Y2006348D01*
X822737D01*
X825236Y2003849D01*
Y2001350D01*
X815239D01*
X830234Y1996352D02*
X835232Y2001350D01*
Y2006348D01*
X830234Y2011347D01*
X580315Y1948848D02*
X577816Y1951347D01*
X572817D01*
X570318Y1948848D01*
Y1938851D01*
X572817Y1936352D01*
X577816D01*
X580315Y1938851D01*
Y1943849D01*
X575317D01*
X585313Y1951347D02*
Y1936352D01*
X592811D01*
X595310Y1938851D01*
Y1941350D01*
X592811Y1943849D01*
X585313D01*
X592811D01*
X595310Y1946348D01*
Y1948848D01*
X592811Y1951347D01*
X585313D01*
X610305Y1948848D02*
X607806Y1951347D01*
X602808D01*
X600308Y1948848D01*
Y1946348D01*
X602808Y1943849D01*
X607806D01*
X610305Y1941350D01*
Y1938851D01*
X607806Y1936352D01*
X602808D01*
X600308Y1938851D01*
X630299Y1943849D02*
X640295D01*
X660289Y1951347D02*
Y1936352D01*
X667787D01*
X670286Y1938851D01*
Y1941350D01*
X667787Y1943849D01*
X660289D01*
X667787D01*
X670286Y1946348D01*
Y1948848D01*
X667787Y1951347D01*
X660289D01*
X677783Y1936352D02*
X682782D01*
X685281Y1938851D01*
Y1943849D01*
X682782Y1946348D01*
X677783D01*
X675284Y1943849D01*
Y1938851D01*
X677783Y1936352D01*
X692778Y1948848D02*
Y1946348D01*
X690279D01*
X695278D01*
X692778D01*
Y1938851D01*
X695278Y1936352D01*
X705275Y1948848D02*
Y1946348D01*
X702775D01*
X707774D01*
X705275D01*
Y1938851D01*
X707774Y1936352D01*
X717770D02*
X722769D01*
X725268Y1938851D01*
Y1943849D01*
X722769Y1946348D01*
X717770D01*
X715271Y1943849D01*
Y1938851D01*
X717770Y1936352D01*
X730266D02*
Y1946348D01*
X732766D01*
X735265Y1943849D01*
Y1936352D01*
Y1943849D01*
X737764Y1946348D01*
X740263Y1943849D01*
Y1936352D01*
X770254Y1948848D02*
X767754Y1951347D01*
X762756D01*
X760257Y1948848D01*
Y1946348D01*
X762756Y1943849D01*
X767754D01*
X770254Y1941350D01*
Y1938851D01*
X767754Y1936352D01*
X762756D01*
X760257Y1938851D01*
X777751Y1936352D02*
X782749D01*
X785249Y1938851D01*
Y1943849D01*
X782749Y1946348D01*
X777751D01*
X775252Y1943849D01*
Y1938851D01*
X777751Y1936352D01*
X790247D02*
X795245D01*
X792746D01*
Y1951347D01*
X790247D01*
X812740D02*
Y1936352D01*
X805242D01*
X802743Y1938851D01*
Y1943849D01*
X805242Y1946348D01*
X812740D01*
X825236Y1936352D02*
X820237D01*
X817738Y1938851D01*
Y1943849D01*
X820237Y1946348D01*
X825236D01*
X827735Y1943849D01*
Y1941350D01*
X817738D01*
X832733Y1946348D02*
Y1936352D01*
Y1941350D01*
X835232Y1943849D01*
X837732Y1946348D01*
X840231D01*
X580315Y1828008D02*
X577816Y1830507D01*
X572817D01*
X570318Y1828008D01*
Y1818011D01*
X572817Y1815512D01*
X577816D01*
X580315Y1818011D01*
Y1823009D01*
X575317D01*
X585313Y1815512D02*
Y1830507D01*
X590312Y1825508D01*
X595310Y1830507D01*
Y1815512D01*
X610305D02*
X600308D01*
X610305Y1825508D01*
Y1828008D01*
X607806Y1830507D01*
X602808D01*
X600308Y1828008D01*
X615304D02*
X617803Y1830507D01*
X622801D01*
X625300Y1828008D01*
Y1825508D01*
X622801Y1823009D01*
X625300Y1820510D01*
Y1818011D01*
X622801Y1815512D01*
X617803D01*
X615304Y1818011D01*
Y1820510D01*
X617803Y1823009D01*
X615304Y1825508D01*
Y1828008D01*
X617803Y1823009D02*
X622801D01*
X645294D02*
X655291D01*
X675284Y1830507D02*
Y1815512D01*
X682782D01*
X685281Y1818011D01*
Y1820510D01*
X682782Y1823009D01*
X675284D01*
X682782D01*
X685281Y1825508D01*
Y1828008D01*
X682782Y1830507D01*
X675284D01*
X692778Y1815512D02*
X697777D01*
X700276Y1818011D01*
Y1823009D01*
X697777Y1825508D01*
X692778D01*
X690279Y1823009D01*
Y1818011D01*
X692778Y1815512D01*
X707774Y1825508D02*
X712772D01*
X715271Y1823009D01*
Y1815512D01*
X707774D01*
X705275Y1818011D01*
X707774Y1820510D01*
X715271D01*
X720270Y1825508D02*
Y1815512D01*
Y1820510D01*
X722769Y1823009D01*
X725268Y1825508D01*
X727767D01*
X745262Y1830507D02*
Y1815512D01*
X737764D01*
X735265Y1818011D01*
Y1823009D01*
X737764Y1825508D01*
X745262D01*
X772753Y1830507D02*
X767754D01*
X765255Y1828008D01*
Y1818011D01*
X767754Y1815512D01*
X772753D01*
X775252Y1818011D01*
Y1828008D01*
X772753Y1830507D01*
X780250Y1825508D02*
Y1818011D01*
X782749Y1815512D01*
X790247D01*
Y1825508D01*
X797745Y1828008D02*
Y1825508D01*
X795245D01*
X800244D01*
X797745D01*
Y1818011D01*
X800244Y1815512D01*
X807741D02*
X812740D01*
X810240D01*
Y1830507D01*
X807741D01*
X820237Y1815512D02*
X825236D01*
X822737D01*
Y1825508D01*
X820237D01*
X832733Y1815512D02*
Y1825508D01*
X840231D01*
X842730Y1823009D01*
Y1815512D01*
X855226D02*
X850228D01*
X847728Y1818011D01*
Y1823009D01*
X850228Y1825508D01*
X855226D01*
X857725Y1823009D01*
Y1820510D01*
X847728D01*
X580315Y1888008D02*
X577816Y1890507D01*
X572817D01*
X570318Y1888008D01*
Y1878011D01*
X572817Y1875512D01*
X577816D01*
X580315Y1878011D01*
Y1883009D01*
X575317D01*
X585313Y1890507D02*
Y1875512D01*
X592811D01*
X595310Y1878011D01*
Y1880510D01*
X592811Y1883009D01*
X585313D01*
X592811D01*
X595310Y1885508D01*
Y1888008D01*
X592811Y1890507D01*
X585313D01*
X607806D02*
X602808D01*
X600308Y1888008D01*
Y1878011D01*
X602808Y1875512D01*
X607806D01*
X610305Y1878011D01*
Y1888008D01*
X607806Y1890507D01*
X630299Y1883009D02*
X640295D01*
X660289Y1890507D02*
Y1875512D01*
X667787D01*
X670286Y1878011D01*
Y1880510D01*
X667787Y1883009D01*
X660289D01*
X667787D01*
X670286Y1885508D01*
Y1888008D01*
X667787Y1890507D01*
X660289D01*
X677783Y1875512D02*
X682782D01*
X685281Y1878011D01*
Y1883009D01*
X682782Y1885508D01*
X677783D01*
X675284Y1883009D01*
Y1878011D01*
X677783Y1875512D01*
X692778Y1888008D02*
Y1885508D01*
X690279D01*
X695278D01*
X692778D01*
Y1878011D01*
X695278Y1875512D01*
X705275Y1888008D02*
Y1885508D01*
X702775D01*
X707774D01*
X705275D01*
Y1878011D01*
X707774Y1875512D01*
X717770D02*
X722769D01*
X725268Y1878011D01*
Y1883009D01*
X722769Y1885508D01*
X717770D01*
X715271Y1883009D01*
Y1878011D01*
X717770Y1875512D01*
X730266D02*
Y1885508D01*
X732766D01*
X735265Y1883009D01*
Y1875512D01*
Y1883009D01*
X737764Y1885508D01*
X740263Y1883009D01*
Y1875512D01*
X767754Y1890507D02*
X762756D01*
X760257Y1888008D01*
Y1878011D01*
X762756Y1875512D01*
X767754D01*
X770254Y1878011D01*
Y1888008D01*
X767754Y1890507D01*
X775252Y1885508D02*
X780250Y1875512D01*
X785249Y1885508D01*
X797745Y1875512D02*
X792746D01*
X790247Y1878011D01*
Y1883009D01*
X792746Y1885508D01*
X797745D01*
X800244Y1883009D01*
Y1880510D01*
X790247D01*
X805242Y1885508D02*
Y1875512D01*
Y1880510D01*
X807741Y1883009D01*
X810240Y1885508D01*
X812740D01*
X820237Y1875512D02*
X825236D01*
X822737D01*
Y1890507D01*
X820237D01*
X835232Y1885508D02*
X840231D01*
X842730Y1883009D01*
Y1875512D01*
X835232D01*
X832733Y1878011D01*
X835232Y1880510D01*
X842730D01*
X847728Y1885508D02*
Y1878011D01*
X850228Y1875512D01*
X857725D01*
Y1873012D01*
X855226Y1870513D01*
X852727D01*
X857725Y1875512D02*
Y1885508D01*
X580315Y1858008D02*
X577816Y1860507D01*
X572817D01*
X570318Y1858008D01*
Y1848011D01*
X572817Y1845512D01*
X577816D01*
X580315Y1848011D01*
Y1853009D01*
X575317D01*
X585313Y1845512D02*
Y1860507D01*
X590312Y1855508D01*
X595310Y1860507D01*
Y1845512D01*
X600308Y1858008D02*
X602808Y1860507D01*
X607806D01*
X610305Y1858008D01*
Y1855508D01*
X607806Y1853009D01*
X605307D01*
X607806D01*
X610305Y1850510D01*
Y1848011D01*
X607806Y1845512D01*
X602808D01*
X600308Y1848011D01*
X630299Y1853009D02*
X640295D01*
X660289Y1845512D02*
Y1860507D01*
X665287Y1855508D01*
X670286Y1860507D01*
Y1845512D01*
X677783Y1855508D02*
X682782D01*
X685281Y1853009D01*
Y1845512D01*
X677783D01*
X675284Y1848011D01*
X677783Y1850510D01*
X685281D01*
X690279Y1845512D02*
Y1855508D01*
X697777D01*
X700276Y1853009D01*
Y1845512D01*
X705275Y1855508D02*
Y1848011D01*
X707774Y1845512D01*
X715271D01*
Y1855508D01*
X722769Y1845512D02*
Y1858008D01*
Y1853009D01*
X720270D01*
X725268D01*
X722769D01*
Y1858008D01*
X725268Y1860507D01*
X735265Y1855508D02*
X740263D01*
X742762Y1853009D01*
Y1845512D01*
X735265D01*
X732766Y1848011D01*
X735265Y1850510D01*
X742762D01*
X757757Y1855508D02*
X750260D01*
X747761Y1853009D01*
Y1848011D01*
X750260Y1845512D01*
X757757D01*
X765255Y1858008D02*
Y1855508D01*
X762756D01*
X767754D01*
X765255D01*
Y1848011D01*
X767754Y1845512D01*
X775252Y1855508D02*
Y1848011D01*
X777751Y1845512D01*
X785249D01*
Y1855508D01*
X790247D02*
Y1845512D01*
Y1850510D01*
X792746Y1853009D01*
X795245Y1855508D01*
X797745D01*
X805242Y1845512D02*
X810240D01*
X807741D01*
Y1855508D01*
X805242D01*
X817738Y1845512D02*
Y1855508D01*
X825236D01*
X827735Y1853009D01*
Y1845512D01*
X837732Y1840513D02*
X840231D01*
X842730Y1843012D01*
Y1855508D01*
X835232D01*
X832733Y1853009D01*
Y1848011D01*
X835232Y1845512D01*
X842730D01*
X862723D02*
Y1860507D01*
X872720Y1845512D01*
Y1860507D01*
X880218Y1845512D02*
X885216D01*
X887715Y1848011D01*
Y1853009D01*
X885216Y1855508D01*
X880218D01*
X877719Y1853009D01*
Y1848011D01*
X880218Y1845512D01*
X895213Y1858008D02*
Y1855508D01*
X892714D01*
X897712D01*
X895213D01*
Y1848011D01*
X897712Y1845512D01*
X912707D02*
X907709D01*
X905210Y1848011D01*
Y1853009D01*
X907709Y1855508D01*
X912707D01*
X915207Y1853009D01*
Y1850510D01*
X905210D01*
X920205Y1845512D02*
X927702D01*
X930202Y1848011D01*
X927702Y1850510D01*
X922704D01*
X920205Y1853009D01*
X922704Y1855508D01*
X930202D01*
X1060318Y2031347D02*
Y2016352D01*
X1067816D01*
X1070315Y2018851D01*
Y2028848D01*
X1067816Y2031347D01*
X1060318D01*
X1075313Y2026348D02*
Y2016352D01*
Y2021350D01*
X1077812Y2023849D01*
X1080312Y2026348D01*
X1082811D01*
X1090309Y2016352D02*
X1095307D01*
X1092808D01*
Y2026348D01*
X1090309D01*
X1102804Y2016352D02*
X1107803D01*
X1105304D01*
Y2031347D01*
X1102804D01*
X1115300Y2016352D02*
X1120299D01*
X1117800D01*
Y2031347D01*
X1115300D01*
X1127796Y2016352D02*
X1132795D01*
X1130296D01*
Y2026348D01*
X1127796D01*
X1140292Y2016352D02*
Y2026348D01*
X1147790D01*
X1150289Y2023849D01*
Y2016352D01*
X1160286Y2011353D02*
X1162785D01*
X1165284Y2013853D01*
Y2026348D01*
X1157787D01*
X1155287Y2023849D01*
Y2018851D01*
X1157787Y2016352D01*
X1165284D01*
X1170283Y2026348D02*
X1172782D01*
Y2023849D01*
X1170283D01*
Y2026348D01*
Y2018851D02*
X1172782D01*
Y2016352D01*
X1170283D01*
Y2018851D01*
X1197774Y2031347D02*
Y2016352D01*
X1207770D01*
X1212769D02*
X1217767D01*
X1215268D01*
Y2031347D01*
X1212769Y2028848D01*
X1225265Y2023849D02*
X1235262D01*
X1240260Y2031347D02*
Y2016352D01*
X1250257D01*
X1262753D02*
Y2031347D01*
X1255255Y2023849D01*
X1265252D01*
D112*
X1955709Y1269117D02*
Y1634877D01*
X1671309Y1573917D02*
X1955709D01*
X1671309Y1543437D02*
X1955709D01*
X1671309Y1512957D02*
X1955709D01*
X1671309Y1482477D02*
X1955709D01*
X1671309Y1451997D02*
X1955709D01*
X1671309Y1421517D02*
X1955709D01*
X1671309Y1391037D02*
X1955709D01*
X1671309Y1360557D02*
X1955709D01*
X1671309Y1330077D02*
X1955709D01*
X1671309Y1299597D02*
X1955709D01*
X1671309Y1269117D02*
X1955709D01*
X1671309D02*
Y1634877D01*
X1526564Y1573917D02*
X1671309D01*
X1526564Y1543437D02*
X1671309D01*
X1526564Y1512957D02*
X1671309D01*
X1526564Y1482477D02*
X1671309D01*
X1526564Y1451997D02*
X1671309D01*
X1526564Y1421517D02*
X1671309D01*
X1526564Y1391037D02*
X1671309D01*
X1526564Y1360557D02*
X1671309D01*
X1526564Y1330077D02*
X1671309D01*
X1526564Y1299597D02*
X1671309D01*
X1526564Y1269117D02*
X1671309D01*
X1526564D02*
Y1634877D01*
X1361506Y1573917D02*
X1526564D01*
X1361506Y1543437D02*
X1526564D01*
X1361506Y1512957D02*
X1526564D01*
X1361506Y1482477D02*
X1526564D01*
X1361506Y1451997D02*
X1526564D01*
X1361506Y1421517D02*
X1526564D01*
X1361506Y1391037D02*
X1526564D01*
X1361506Y1360557D02*
X1526564D01*
X1361506Y1330077D02*
X1526564D01*
X1361506Y1299597D02*
X1526564D01*
X1361506Y1269117D02*
X1526564D01*
X1361506D02*
Y1634877D01*
X1143126Y1573917D02*
X1361506D01*
X1143126Y1543437D02*
X1361506D01*
X1143126Y1512957D02*
X1361506D01*
X1143126Y1482477D02*
X1361506D01*
X1143126Y1451997D02*
X1361506D01*
X1143126Y1421517D02*
X1361506D01*
X1143126Y1391037D02*
X1361506D01*
X1143126Y1360557D02*
X1361506D01*
X1143126Y1330077D02*
X1361506D01*
X1143126Y1299597D02*
X1361506D01*
X1143126Y1269117D02*
X1361506D01*
X1143126D02*
Y1634877D01*
X906971Y1573917D02*
X1143126D01*
X906971Y1543437D02*
X1143126D01*
X906971Y1512957D02*
X1143126D01*
X906971Y1482477D02*
X1143126D01*
X906971Y1451997D02*
X1143126D01*
X906971Y1421517D02*
X1143126D01*
X906971Y1391037D02*
X1143126D01*
X906971Y1360557D02*
X1143126D01*
X906971Y1330077D02*
X1143126D01*
X906971Y1299597D02*
X1143126D01*
X906971Y1269117D02*
X1143126D01*
X906971D02*
Y1634877D01*
X802853Y1573917D02*
X906971D01*
X802853Y1543437D02*
X906971D01*
X802853Y1512957D02*
X906971D01*
X802853Y1482477D02*
X906971D01*
X802853Y1451997D02*
X906971D01*
X802853Y1421517D02*
X906971D01*
X802853Y1391037D02*
X906971D01*
X802853Y1360557D02*
X906971D01*
X802853Y1330077D02*
X906971D01*
X802853Y1299597D02*
X906971D01*
X802853Y1269117D02*
X906971D01*
X802853D02*
Y1634877D01*
X1955709D01*
X802853Y1604397D02*
X1955709D01*
D113*
X1671309Y1594318D02*
X1681389Y1604397D01*
X1671309Y1579078D02*
X1696629Y1604397D01*
X1681389Y1573917D02*
X1711869Y1604397D01*
X1696629Y1573917D02*
X1727109Y1604397D01*
X1711869Y1573917D02*
X1742349Y1604397D01*
X1727109Y1573917D02*
X1757589Y1604397D01*
X1742349Y1573917D02*
X1772829Y1604397D01*
X1757589Y1573917D02*
X1788069Y1604397D01*
X1772829Y1573917D02*
X1803309Y1604397D01*
X1788069Y1573917D02*
X1818549Y1604397D01*
X1803309Y1573917D02*
X1833789Y1604397D01*
X1818549Y1573917D02*
X1849029Y1604397D01*
X1833789Y1573917D02*
X1864269Y1604397D01*
X1849029Y1573917D02*
X1879509Y1604397D01*
X1864269Y1573917D02*
X1894749Y1604397D01*
X1879509Y1573917D02*
X1909989Y1604397D01*
X1894749Y1573917D02*
X1925229Y1604397D01*
X1909989Y1573917D02*
X1940469Y1604397D01*
X1925229Y1573917D02*
X1955709Y1604397D01*
X1940469Y1573917D02*
X1955709Y1589157D01*
X1671309Y1563838D02*
X1681389Y1573917D01*
X1671309Y1548598D02*
X1696629Y1573917D01*
X1681389Y1543437D02*
X1711869Y1573917D01*
X1696629Y1543437D02*
X1727109Y1573917D01*
X1711869Y1543437D02*
X1742349Y1573917D01*
X1727109Y1543437D02*
X1757589Y1573917D01*
X1742349Y1543437D02*
X1772829Y1573917D01*
X1757589Y1543437D02*
X1788069Y1573917D01*
X1772829Y1543437D02*
X1803309Y1573917D01*
X1788069Y1543437D02*
X1818549Y1573917D01*
X1803309Y1543437D02*
X1833789Y1573917D01*
X1818549Y1543437D02*
X1849029Y1573917D01*
X1833789Y1543437D02*
X1864269Y1573917D01*
X1849029Y1543437D02*
X1879509Y1573917D01*
X1864269Y1543437D02*
X1894749Y1573917D01*
X1879509Y1543437D02*
X1909989Y1573917D01*
X1894749Y1543437D02*
X1925229Y1573917D01*
X1909989Y1543437D02*
X1940469Y1573917D01*
X1925229Y1543437D02*
X1955709Y1573917D01*
X1940469Y1543437D02*
X1955709Y1558677D01*
X1671309Y1533358D02*
X1681389Y1543437D01*
X1671309Y1518118D02*
X1696629Y1543437D01*
X1681389Y1512957D02*
X1711869Y1543437D01*
X1696629Y1512957D02*
X1727109Y1543437D01*
X1711869Y1512957D02*
X1742349Y1543437D01*
X1727109Y1512957D02*
X1757589Y1543437D01*
X1742349Y1512957D02*
X1772829Y1543437D01*
X1757589Y1512957D02*
X1788069Y1543437D01*
X1772829Y1512957D02*
X1803309Y1543437D01*
X1788069Y1512957D02*
X1818549Y1543437D01*
X1803309Y1512957D02*
X1833789Y1543437D01*
X1818549Y1512957D02*
X1849029Y1543437D01*
X1833789Y1512957D02*
X1864269Y1543437D01*
X1849029Y1512957D02*
X1879509Y1543437D01*
X1864269Y1512957D02*
X1894749Y1543437D01*
X1879509Y1512957D02*
X1909989Y1543437D01*
X1894749Y1512957D02*
X1925229Y1543437D01*
X1909989Y1512957D02*
X1940469Y1543437D01*
X1925229Y1512957D02*
X1955709Y1543437D01*
X1940469Y1512957D02*
X1955709Y1528197D01*
X1671309Y1502878D02*
X1681389Y1512957D01*
X1671309Y1487638D02*
X1696629Y1512957D01*
X1681389Y1482477D02*
X1711869Y1512957D01*
X1696629Y1482477D02*
X1727109Y1512957D01*
X1711869Y1482477D02*
X1742349Y1512957D01*
X1727109Y1482477D02*
X1757589Y1512957D01*
X1742349Y1482477D02*
X1772829Y1512957D01*
X1757589Y1482477D02*
X1788069Y1512957D01*
X1772829Y1482477D02*
X1803309Y1512957D01*
X1788069Y1482477D02*
X1818549Y1512957D01*
X1803309Y1482477D02*
X1833789Y1512957D01*
X1818549Y1482477D02*
X1849029Y1512957D01*
X1833789Y1482477D02*
X1864269Y1512957D01*
X1849029Y1482477D02*
X1879509Y1512957D01*
X1864269Y1482477D02*
X1894749Y1512957D01*
X1879509Y1482477D02*
X1909989Y1512957D01*
X1894749Y1482477D02*
X1925229Y1512957D01*
X1909989Y1482477D02*
X1940469Y1512957D01*
X1925229Y1482477D02*
X1955709Y1512957D01*
X1940469Y1482477D02*
X1955709Y1497717D01*
X1671309Y1472398D02*
X1681389Y1482477D01*
X1671309Y1457158D02*
X1696629Y1482477D01*
X1681389Y1451997D02*
X1711869Y1482477D01*
X1696629Y1451997D02*
X1727109Y1482477D01*
X1711869Y1451997D02*
X1742349Y1482477D01*
X1727109Y1451997D02*
X1757589Y1482477D01*
X1742349Y1451997D02*
X1772829Y1482477D01*
X1757589Y1451997D02*
X1788069Y1482477D01*
X1772829Y1451997D02*
X1803309Y1482477D01*
X1788069Y1451997D02*
X1818549Y1482477D01*
X1803309Y1451997D02*
X1833789Y1482477D01*
X1818549Y1451997D02*
X1849029Y1482477D01*
X1833789Y1451997D02*
X1864269Y1482477D01*
X1849029Y1451997D02*
X1879509Y1482477D01*
X1864269Y1451997D02*
X1894749Y1482477D01*
X1879509Y1451997D02*
X1909989Y1482477D01*
X1894749Y1451997D02*
X1925229Y1482477D01*
X1909989Y1451997D02*
X1940469Y1482477D01*
X1925229Y1451997D02*
X1955709Y1482477D01*
X1940469Y1451997D02*
X1955709Y1467237D01*
X1671309Y1441918D02*
X1681389Y1451997D01*
X1671309Y1426678D02*
X1696629Y1451997D01*
X1681389Y1421517D02*
X1711869Y1451997D01*
X1696629Y1421517D02*
X1727109Y1451997D01*
X1711869Y1421517D02*
X1742349Y1451997D01*
X1727109Y1421517D02*
X1757589Y1451997D01*
X1742349Y1421517D02*
X1772829Y1451997D01*
X1757589Y1421517D02*
X1788069Y1451997D01*
X1772829Y1421517D02*
X1803309Y1451997D01*
X1788069Y1421517D02*
X1818549Y1451997D01*
X1803309Y1421517D02*
X1833789Y1451997D01*
X1818549Y1421517D02*
X1849029Y1451997D01*
X1833789Y1421517D02*
X1864269Y1451997D01*
X1849029Y1421517D02*
X1879509Y1451997D01*
X1864269Y1421517D02*
X1894749Y1451997D01*
X1879509Y1421517D02*
X1909989Y1451997D01*
X1894749Y1421517D02*
X1925229Y1451997D01*
X1909989Y1421517D02*
X1940469Y1451997D01*
X1925229Y1421517D02*
X1955709Y1451997D01*
X1940469Y1421517D02*
X1955709Y1436757D01*
X1671309Y1411438D02*
X1681389Y1421517D01*
X1671309Y1396198D02*
X1696629Y1421517D01*
X1681389Y1391037D02*
X1711869Y1421517D01*
X1696629Y1391037D02*
X1727109Y1421517D01*
X1711869Y1391037D02*
X1742349Y1421517D01*
X1727109Y1391037D02*
X1757589Y1421517D01*
X1742349Y1391037D02*
X1772829Y1421517D01*
X1757589Y1391037D02*
X1788069Y1421517D01*
X1772829Y1391037D02*
X1803309Y1421517D01*
X1788069Y1391037D02*
X1818549Y1421517D01*
X1803309Y1391037D02*
X1833789Y1421517D01*
X1818549Y1391037D02*
X1849029Y1421517D01*
X1833789Y1391037D02*
X1864269Y1421517D01*
X1849029Y1391037D02*
X1879509Y1421517D01*
X1864269Y1391037D02*
X1894749Y1421517D01*
X1879509Y1391037D02*
X1909989Y1421517D01*
X1894749Y1391037D02*
X1925229Y1421517D01*
X1909989Y1391037D02*
X1940469Y1421517D01*
X1925229Y1391037D02*
X1955709Y1421517D01*
X1940469Y1391037D02*
X1955709Y1406277D01*
X1671309Y1380958D02*
X1681389Y1391037D01*
X1671309Y1365718D02*
X1696629Y1391037D01*
X1681389Y1360557D02*
X1711869Y1391037D01*
X1696629Y1360557D02*
X1727109Y1391037D01*
X1711869Y1360557D02*
X1742349Y1391037D01*
X1727109Y1360557D02*
X1757589Y1391037D01*
X1742349Y1360557D02*
X1772829Y1391037D01*
X1757589Y1360557D02*
X1788069Y1391037D01*
X1772829Y1360557D02*
X1803309Y1391037D01*
X1788069Y1360557D02*
X1818549Y1391037D01*
X1803309Y1360557D02*
X1833789Y1391037D01*
X1818549Y1360557D02*
X1849029Y1391037D01*
X1833789Y1360557D02*
X1864269Y1391037D01*
X1849029Y1360557D02*
X1879509Y1391037D01*
X1864269Y1360557D02*
X1894749Y1391037D01*
X1879509Y1360557D02*
X1909989Y1391037D01*
X1894749Y1360557D02*
X1925229Y1391037D01*
X1909989Y1360557D02*
X1940469Y1391037D01*
X1925229Y1360557D02*
X1955709Y1391037D01*
X1940469Y1360557D02*
X1955709Y1375797D01*
X1671309Y1350478D02*
X1681389Y1360557D01*
X1671309Y1335238D02*
X1696629Y1360557D01*
X1681389Y1330077D02*
X1711869Y1360557D01*
X1696629Y1330077D02*
X1727109Y1360557D01*
X1711869Y1330077D02*
X1742349Y1360557D01*
X1727109Y1330077D02*
X1757589Y1360557D01*
X1742349Y1330077D02*
X1772829Y1360557D01*
X1757589Y1330077D02*
X1788069Y1360557D01*
X1772829Y1330077D02*
X1803309Y1360557D01*
X1788069Y1330077D02*
X1818549Y1360557D01*
X1803309Y1330077D02*
X1833789Y1360557D01*
X1818549Y1330077D02*
X1849029Y1360557D01*
X1833789Y1330077D02*
X1864269Y1360557D01*
X1849029Y1330077D02*
X1879509Y1360557D01*
X1864269Y1330077D02*
X1894749Y1360557D01*
X1879509Y1330077D02*
X1909989Y1360557D01*
X1894749Y1330077D02*
X1925229Y1360557D01*
X1909989Y1330077D02*
X1940469Y1360557D01*
X1925229Y1330077D02*
X1955709Y1360557D01*
X1940469Y1330077D02*
X1955709Y1345317D01*
X1671309Y1319998D02*
X1681389Y1330077D01*
X1671309Y1304758D02*
X1696629Y1330077D01*
X1681389Y1299597D02*
X1711869Y1330077D01*
X1696629Y1299597D02*
X1727109Y1330077D01*
X1711869Y1299597D02*
X1742349Y1330077D01*
X1727109Y1299597D02*
X1757589Y1330077D01*
X1742349Y1299597D02*
X1772829Y1330077D01*
X1757589Y1299597D02*
X1788069Y1330077D01*
X1772829Y1299597D02*
X1803309Y1330077D01*
X1788069Y1299597D02*
X1818549Y1330077D01*
X1803309Y1299597D02*
X1833789Y1330077D01*
X1818549Y1299597D02*
X1849029Y1330077D01*
X1833789Y1299597D02*
X1864269Y1330077D01*
X1849029Y1299597D02*
X1879509Y1330077D01*
X1864269Y1299597D02*
X1894749Y1330077D01*
X1879509Y1299597D02*
X1909989Y1330077D01*
X1894749Y1299597D02*
X1925229Y1330077D01*
X1909989Y1299597D02*
X1940469Y1330077D01*
X1925229Y1299597D02*
X1955709Y1330077D01*
X1940469Y1299597D02*
X1955709Y1314837D01*
X1671309Y1289518D02*
X1681389Y1299597D01*
X1671309Y1274278D02*
X1696629Y1299597D01*
X1681389Y1269117D02*
X1711869Y1299597D01*
X1696629Y1269117D02*
X1727109Y1299597D01*
X1711869Y1269117D02*
X1742349Y1299597D01*
X1727109Y1269117D02*
X1757589Y1299597D01*
X1742349Y1269117D02*
X1772829Y1299597D01*
X1757589Y1269117D02*
X1788069Y1299597D01*
X1772829Y1269117D02*
X1803309Y1299597D01*
X1788069Y1269117D02*
X1818549Y1299597D01*
X1803309Y1269117D02*
X1833789Y1299597D01*
X1818549Y1269117D02*
X1849029Y1299597D01*
X1833789Y1269117D02*
X1864269Y1299597D01*
X1849029Y1269117D02*
X1879509Y1299597D01*
X1864269Y1269117D02*
X1894749Y1299597D01*
X1879509Y1269117D02*
X1909989Y1299597D01*
X1894749Y1269117D02*
X1925229Y1299597D01*
X1909989Y1269117D02*
X1940469Y1299597D01*
X1925229Y1269117D02*
X1955709Y1299597D01*
X1940469Y1269117D02*
X1955709Y1284357D01*
D114*
X569318Y2264512D02*
Y2294502D01*
X579315Y2284505D01*
X589312Y2294502D01*
Y2264512D01*
X599309D02*
Y2284505D01*
X609305Y2294502D01*
X619302Y2284505D01*
Y2264512D01*
Y2279507D01*
X599309D01*
X629299Y2264512D02*
Y2294502D01*
X649292Y2264512D01*
Y2294502D01*
X659289D02*
Y2269510D01*
X664287Y2264512D01*
X674284D01*
X679283Y2269510D01*
Y2294502D01*
X709273D02*
X689279D01*
Y2279507D01*
X699276D01*
X689279D01*
Y2264512D01*
X719270D02*
Y2284505D01*
X729266Y2294502D01*
X739263Y2284505D01*
Y2264512D01*
Y2279507D01*
X719270D01*
X769253Y2289503D02*
X764255Y2294502D01*
X754258D01*
X749260Y2289503D01*
Y2269510D01*
X754258Y2264512D01*
X764255D01*
X769253Y2269510D01*
X779250Y2294502D02*
X799244D01*
X789247D01*
Y2264512D01*
X809240Y2294502D02*
Y2269510D01*
X814239Y2264512D01*
X824236D01*
X829234Y2269510D01*
Y2294502D01*
X839231Y2264512D02*
Y2294502D01*
X854226D01*
X859224Y2289503D01*
Y2279507D01*
X854226Y2274508D01*
X839231D01*
X849228D02*
X859224Y2264512D01*
X869221Y2294502D02*
X879218D01*
X874219D01*
Y2264512D01*
X869221D01*
X879218D01*
X894213D02*
Y2294502D01*
X914206Y2264512D01*
Y2294502D01*
X944197Y2289503D02*
X939198Y2294502D01*
X929202D01*
X924203Y2289503D01*
Y2269510D01*
X929202Y2264512D01*
X939198D01*
X944197Y2269510D01*
Y2279507D01*
X934200D01*
X984184Y2264512D02*
Y2294502D01*
X1004177Y2264512D01*
Y2294502D01*
X1029169D02*
X1019173D01*
X1014174Y2289503D01*
Y2269510D01*
X1019173Y2264512D01*
X1029169D01*
X1034168Y2269510D01*
Y2289503D01*
X1029169Y2294502D01*
X1044164D02*
X1064158D01*
X1054161D01*
Y2264512D01*
X1094148Y2294502D02*
X1074155D01*
Y2264512D01*
X1094148D01*
X1074155Y2279507D02*
X1084152D01*
X1124138Y2289503D02*
X1119140Y2294502D01*
X1109143D01*
X1104145Y2289503D01*
Y2284505D01*
X1109143Y2279507D01*
X1119140D01*
X1124138Y2274508D01*
Y2269510D01*
X1119140Y2264512D01*
X1109143D01*
X1104145Y2269510D01*
D115*
X811517Y1695536D02*
X807352Y1699702D01*
X799022D01*
X794856Y1695536D01*
Y1691371D01*
X799022Y1687206D01*
X807352D01*
X811517Y1683040D01*
Y1678875D01*
X807352Y1674710D01*
X799022D01*
X794856Y1678875D01*
X819848Y1699702D02*
X836509D01*
X828179D01*
Y1674710D01*
X844840D02*
Y1691371D01*
X853171Y1699702D01*
X861501Y1691371D01*
Y1674710D01*
Y1687206D01*
X844840D01*
X886493Y1695536D02*
X882328Y1699702D01*
X873997D01*
X869832Y1695536D01*
Y1678875D01*
X873997Y1674710D01*
X882328D01*
X886493Y1678875D01*
X894824Y1699702D02*
Y1674710D01*
Y1683040D01*
X911485Y1699702D01*
X898989Y1687206D01*
X911485Y1674710D01*
X919816Y1699702D02*
Y1678875D01*
X923981Y1674710D01*
X932312D01*
X936477Y1678875D01*
Y1699702D01*
X944808Y1674710D02*
Y1699702D01*
X957304D01*
X961469Y1695536D01*
Y1687206D01*
X957304Y1683040D01*
X944808D01*
X994792Y1699702D02*
Y1674710D01*
X1007288D01*
X1011453Y1678875D01*
Y1683040D01*
X1007288Y1687206D01*
X994792D01*
X1007288D01*
X1011453Y1691371D01*
Y1695536D01*
X1007288Y1699702D01*
X994792D01*
X1032280D02*
X1023949D01*
X1019783Y1695536D01*
Y1678875D01*
X1023949Y1674710D01*
X1032280D01*
X1036445Y1678875D01*
Y1695536D01*
X1032280Y1699702D01*
X1044775Y1674710D02*
Y1691371D01*
X1053106Y1699702D01*
X1061437Y1691371D01*
Y1674710D01*
Y1687206D01*
X1044775D01*
X1069767Y1674710D02*
Y1699702D01*
X1082263D01*
X1086429Y1695536D01*
Y1687206D01*
X1082263Y1683040D01*
X1069767D01*
X1078098D02*
X1086429Y1674710D01*
X1094759Y1699702D02*
Y1674710D01*
X1107255D01*
X1111421Y1678875D01*
Y1695536D01*
X1107255Y1699702D01*
X1094759D01*
M02*
