G04*
G04 #@! TF.GenerationSoftware,Altium Limited,Altium Designer,26.10.1 (5)*
G04*
G04 Layer_Color=8421504*
G04 Board_Origin=80872512|74071984*
%FSLAX44Y44*%
%MOMM*%
G71*
G04*
G04 #@! TF.SameCoordinates,5802A6DE-2B60-438B-A6B9-6B7F125FFCDA*
G04*
G04*
G04 #@! TF.FilePolarity,Positive*
G04*
G01*
G75*
%ADD18R,0.5000X0.5000*%
%ADD19R,0.4500X1.5000*%
%ADD20R,1.4750X0.4500*%
%ADD21R,1.0500X1.3000*%
%ADD22R,0.5000X0.5000*%
%ADD23R,0.5000X0.6000*%
%ADD24R,1.0000X0.7000*%
%ADD25R,0.3200X0.9000*%
%ADD26R,0.8500X0.8500*%
%ADD27R,0.6000X0.5000*%
%ADD28R,0.6500X1.5280*%
%ADD29R,3.4000X3.4000*%
%ADD30R,1.0000X0.4000*%
%ADD31R,0.8000X0.8000*%
%ADD32R,1.2000X0.4500*%
%ADD33R,0.4000X0.7000*%
%ADD34R,0.2200X0.7800*%
G04:AMPARAMS|DCode=35|XSize=0.975mm|YSize=1.7mm|CornerRadius=0.0731mm|HoleSize=0mm|Usage=FLASHONLY|Rotation=180.000|XOffset=0mm|YOffset=0mm|HoleType=Round|Shape=RoundedRectangle|*
%AMROUNDEDRECTD35*
21,1,0.9750,1.5538,0,0,180.0*
21,1,0.8288,1.7000,0,0,180.0*
1,1,0.1463,-0.4144,0.7769*
1,1,0.1463,0.4144,0.7769*
1,1,0.1463,0.4144,-0.7769*
1,1,0.1463,-0.4144,-0.7769*
%
%ADD35ROUNDEDRECTD35*%
G04:AMPARAMS|DCode=36|XSize=0.6mm|YSize=1.1mm|CornerRadius=0.045mm|HoleSize=0mm|Usage=FLASHONLY|Rotation=90.000|XOffset=0mm|YOffset=0mm|HoleType=Round|Shape=RoundedRectangle|*
%AMROUNDEDRECTD36*
21,1,0.6000,1.0100,0,0,90.0*
21,1,0.5100,1.1000,0,0,90.0*
1,1,0.0900,0.5050,0.2550*
1,1,0.0900,0.5050,-0.2550*
1,1,0.0900,-0.5050,-0.2550*
1,1,0.0900,-0.5050,0.2550*
%
%ADD36ROUNDEDRECTD36*%
%ADD37R,1.0000X0.6000*%
%ADD38R,1.7000X0.3000*%
%ADD39R,0.7800X0.2200*%
%ADD40R,0.9000X0.9000*%
%ADD41R,1.6000X1.0000*%
%ADD42R,0.9000X0.9000*%
D18*
X572336Y323876D02*
D03*
X521467Y322953D02*
D03*
X485764Y363621D02*
D03*
X410273Y440888D02*
D03*
X427763Y363621D02*
D03*
X416814Y279103D02*
D03*
X408578Y252691D02*
D03*
X377763Y326121D02*
D03*
X571256Y223933D02*
D03*
X403536Y216623D02*
D03*
X378764Y197121D02*
D03*
X239848Y272062D02*
D03*
X120756Y418705D02*
D03*
X283652Y195191D02*
D03*
X292878Y63689D02*
D03*
X243030Y219217D02*
D03*
X302878Y63689D02*
D03*
X393536Y216623D02*
D03*
X367763Y326121D02*
D03*
X406814Y279103D02*
D03*
X249848Y272062D02*
D03*
X253030Y219217D02*
D03*
X368763Y197121D02*
D03*
X293652Y195191D02*
D03*
X398578Y252691D02*
D03*
X110756Y418705D02*
D03*
X475764Y363621D02*
D03*
X437763D02*
D03*
X461217Y363820D02*
D03*
X451217D02*
D03*
X428264Y350121D02*
D03*
X438264D02*
D03*
X420273Y440888D02*
D03*
X561256Y223933D02*
D03*
X562336Y323876D02*
D03*
X511467Y322953D02*
D03*
D19*
X437927Y438115D02*
D03*
X476927Y380115D02*
D03*
X431427D02*
D03*
X437927D02*
D03*
X444427D02*
D03*
X450927D02*
D03*
X457427D02*
D03*
X463927D02*
D03*
X470427D02*
D03*
X431427Y438115D02*
D03*
X444427D02*
D03*
X450927D02*
D03*
X457427D02*
D03*
X463927D02*
D03*
X470427D02*
D03*
X476927D02*
D03*
D20*
X563708Y297192D02*
D03*
X504948Y245191D02*
D03*
Y303692D02*
D03*
X563708Y238692D02*
D03*
X504948D02*
D03*
X503949Y204795D02*
D03*
X562709Y198295D02*
D03*
X503949Y146294D02*
D03*
X562709Y139795D02*
D03*
X503949D02*
D03*
X563708Y245191D02*
D03*
Y277691D02*
D03*
Y271192D02*
D03*
Y290692D02*
D03*
Y258192D02*
D03*
Y264692D02*
D03*
Y284191D02*
D03*
X562709Y191794D02*
D03*
X563708Y310191D02*
D03*
Y303692D02*
D03*
Y251691D02*
D03*
X504948D02*
D03*
Y258192D02*
D03*
Y264692D02*
D03*
Y271192D02*
D03*
Y277691D02*
D03*
Y284191D02*
D03*
Y290692D02*
D03*
Y297192D02*
D03*
Y310191D02*
D03*
X562709Y172295D02*
D03*
X503949Y211294D02*
D03*
Y198295D02*
D03*
Y191794D02*
D03*
Y185294D02*
D03*
Y178794D02*
D03*
Y172295D02*
D03*
Y165795D02*
D03*
Y159295D02*
D03*
Y152795D02*
D03*
X562709Y146294D02*
D03*
Y152795D02*
D03*
Y159295D02*
D03*
Y165795D02*
D03*
Y178794D02*
D03*
Y185294D02*
D03*
Y204795D02*
D03*
Y211294D02*
D03*
D21*
X362106Y391185D02*
D03*
X344606Y368185D02*
D03*
X362106D02*
D03*
X344606Y391185D02*
D03*
D22*
X377158Y388563D02*
D03*
X341120Y344220D02*
D03*
X484868Y223811D02*
D03*
X421840Y132614D02*
D03*
X408840D02*
D03*
X357763Y83121D02*
D03*
X329599Y400557D02*
D03*
X317963Y340482D02*
D03*
X253764Y314121D02*
D03*
X243764Y248121D02*
D03*
X182447Y438961D02*
D03*
X168118Y438915D02*
D03*
X35336Y492781D02*
D03*
X143369Y384651D02*
D03*
X314764Y185121D02*
D03*
X277402Y153441D02*
D03*
X221529Y209427D02*
D03*
X229896Y155853D02*
D03*
X243764Y258121D02*
D03*
X357763Y73121D02*
D03*
X341120Y334220D02*
D03*
X253764Y304121D02*
D03*
X314764Y195121D02*
D03*
X229896Y165853D02*
D03*
X277402Y163441D02*
D03*
X317963Y330482D02*
D03*
X221529Y219427D02*
D03*
X377158Y378563D02*
D03*
X329599Y390557D02*
D03*
X408840Y142614D02*
D03*
X421840D02*
D03*
X143369Y394651D02*
D03*
X35336Y482781D02*
D03*
X182447Y428961D02*
D03*
X168118Y428915D02*
D03*
X484868Y213811D02*
D03*
D23*
X600828Y86712D02*
D03*
X534328Y85712D02*
D03*
X121763Y368120D02*
D03*
X189412Y92628D02*
D03*
X249838Y328753D02*
D03*
X259838D02*
D03*
X199412Y92628D02*
D03*
X123828Y70712D02*
D03*
X133828D02*
D03*
X216771Y165218D02*
D03*
X206771D02*
D03*
X99763Y117121D02*
D03*
X109763D02*
D03*
X153091Y409194D02*
D03*
X143091D02*
D03*
X214457Y428826D02*
D03*
X204457D02*
D03*
X111763Y368120D02*
D03*
X590828Y86712D02*
D03*
X524328Y85712D02*
D03*
D24*
X482967Y76146D02*
D03*
X437967D02*
D03*
Y97646D02*
D03*
X482967D02*
D03*
D25*
X382340Y171364D02*
D03*
X397340D02*
D03*
X392340D02*
D03*
X387340D02*
D03*
X382340Y141864D02*
D03*
X387340D02*
D03*
X392340D02*
D03*
X397340D02*
D03*
D26*
X277169Y470322D02*
D03*
X286670Y450322D02*
D03*
X267670D02*
D03*
D27*
X244383Y383421D02*
D03*
X289917Y24811D02*
D03*
X133920Y240956D02*
D03*
Y207956D02*
D03*
Y172956D02*
D03*
X289917Y34811D02*
D03*
X316328Y168692D02*
D03*
Y158692D02*
D03*
X302328Y168692D02*
D03*
Y158692D02*
D03*
X133920Y197956D02*
D03*
Y230956D02*
D03*
X19393Y492716D02*
D03*
Y482716D02*
D03*
X51601Y492716D02*
D03*
Y482716D02*
D03*
X189908Y339649D02*
D03*
Y329649D02*
D03*
X244383Y373421D02*
D03*
X590828Y60712D02*
D03*
Y70712D02*
D03*
X525328Y60712D02*
D03*
Y70712D02*
D03*
X133920Y162956D02*
D03*
D28*
X227731Y411551D02*
D03*
X189631D02*
D03*
X202331D02*
D03*
X215031D02*
D03*
X227731Y357331D02*
D03*
X215031D02*
D03*
X202331D02*
D03*
X189631D02*
D03*
D29*
X322331Y261747D02*
D03*
D30*
X138782Y460493D02*
D03*
X116781Y466993D02*
D03*
Y453993D02*
D03*
D31*
X215036Y308275D02*
D03*
X123385Y42103D02*
D03*
Y57103D02*
D03*
X215036Y323275D02*
D03*
D32*
X129393Y391239D02*
D03*
Y404239D02*
D03*
Y397739D02*
D03*
Y384739D02*
D03*
X103893D02*
D03*
Y391239D02*
D03*
Y397739D02*
D03*
Y404239D02*
D03*
D33*
X319828Y146441D02*
D03*
X299000D02*
D03*
X306000D02*
D03*
X312828D02*
D03*
D34*
X288331Y212782D02*
D03*
X316331Y310712D02*
D03*
X300331Y212782D02*
D03*
X292331D02*
D03*
X332331Y310712D02*
D03*
X348331D02*
D03*
X356331D02*
D03*
X344331D02*
D03*
X352331D02*
D03*
X340331D02*
D03*
X336331D02*
D03*
X360331D02*
D03*
X328331D02*
D03*
X320331D02*
D03*
X296331D02*
D03*
X304331D02*
D03*
X300331D02*
D03*
X284331D02*
D03*
X288331D02*
D03*
X292331D02*
D03*
X312331D02*
D03*
X308331D02*
D03*
X324331D02*
D03*
X320331Y212782D02*
D03*
X304331D02*
D03*
X308331D02*
D03*
X316331D02*
D03*
X312331D02*
D03*
X284331D02*
D03*
X296331D02*
D03*
X324331D02*
D03*
X340331D02*
D03*
X336331D02*
D03*
X332331D02*
D03*
X344331D02*
D03*
X356331D02*
D03*
X360331D02*
D03*
X328331D02*
D03*
X352331D02*
D03*
X348331D02*
D03*
D35*
X330328Y63712D02*
D03*
D36*
X316828D02*
D03*
Y73212D02*
D03*
Y54212D02*
D03*
X342828D02*
D03*
Y73212D02*
D03*
D37*
X160981Y82866D02*
D03*
Y70866D02*
D03*
D38*
X389840Y156614D02*
D03*
D39*
X273366Y259752D02*
D03*
X371296Y259752D02*
D03*
Y223752D02*
D03*
X273366Y275752D02*
D03*
Y263752D02*
D03*
Y227750D02*
D03*
Y243752D02*
D03*
Y247752D02*
D03*
Y267752D02*
D03*
Y255752D02*
D03*
Y251752D02*
D03*
Y235752D02*
D03*
Y287752D02*
D03*
Y283752D02*
D03*
Y299752D02*
D03*
Y291752D02*
D03*
Y279752D02*
D03*
Y223752D02*
D03*
Y239752D02*
D03*
Y295752D02*
D03*
Y231748D02*
D03*
Y271752D02*
D03*
X371296Y291752D02*
D03*
Y295752D02*
D03*
Y243752D02*
D03*
Y247752D02*
D03*
Y251752D02*
D03*
Y255752D02*
D03*
Y263752D02*
D03*
Y267752D02*
D03*
Y271752D02*
D03*
Y275752D02*
D03*
Y279752D02*
D03*
Y283752D02*
D03*
Y287752D02*
D03*
Y299752D02*
D03*
Y231752D02*
D03*
Y235752D02*
D03*
Y239752D02*
D03*
Y227752D02*
D03*
D40*
X417578Y179493D02*
D03*
Y161493D02*
D03*
X420737Y87591D02*
D03*
Y105591D02*
D03*
X313505Y389910D02*
D03*
Y371910D02*
D03*
D41*
X267152Y177441D02*
D03*
Y197441D02*
D03*
D42*
X99933Y135433D02*
D03*
X117933D02*
D03*
X518764Y393120D02*
D03*
X536763D02*
D03*
X536763Y447121D02*
D03*
X518764D02*
D03*
X117477Y197600D02*
D03*
X99477D02*
D03*
X117477Y231600D02*
D03*
X99477D02*
D03*
X303808Y433132D02*
D03*
X285808D02*
D03*
X249778Y433260D02*
D03*
X267778D02*
D03*
X98920Y162956D02*
D03*
X116920D02*
D03*
M02*
