G04*
G04 #@! TF.GenerationSoftware,Altium Limited,Altium Designer,26.10.1 (5)*
G04*
G04 Layer_Color=16711935*
G04 Board_Origin=80872512|74071984*
%FSLAX44Y44*%
%MOMM*%
G71*
G04*
G04 #@! TF.SameCoordinates,5802A6DE-2B60-438B-A6B9-6B7F125FFCDA*
G04*
G04*
G04 #@! TF.FilePolarity,Negative*
G04*
G01*
G75*
%ADD68C,1.9282*%
%ADD69R,1.9282X1.9282*%
%ADD70C,1.8532*%
%ADD71C,2.3932*%
%ADD72C,2.0782*%
%ADD73C,0.7460*%
%ADD74O,1.1032X2.6032*%
%ADD75O,1.1032X1.9032*%
%ADD76C,1.7232*%
%ADD77C,0.2032*%
%ADD78R,1.7232X1.7232*%
%ADD79C,1.5402*%
%ADD80R,1.5402X1.5402*%
%ADD81R,1.8532X1.8532*%
%ADD82C,1.7032*%
%ADD83R,1.8532X1.8532*%
%ADD84C,1.5032*%
%ADD85C,2.2032*%
%ADD111C,1.2032*%
D68*
X685000Y149000D02*
D03*
X710400Y199800D02*
D03*
X685000D02*
D03*
X710400Y250600D02*
D03*
X685000Y276000D02*
D03*
Y326800D02*
D03*
X710400D02*
D03*
Y149000D02*
D03*
Y174400D02*
D03*
X685000D02*
D03*
X710400Y225200D02*
D03*
X685000D02*
D03*
Y250600D02*
D03*
X710400Y276000D02*
D03*
Y301400D02*
D03*
X685000D02*
D03*
X710400Y352200D02*
D03*
X685000D02*
D03*
X710400Y377600D02*
D03*
D69*
X685000D02*
D03*
D70*
X560140Y421023D02*
D03*
X518764Y499120D02*
D03*
X379763D02*
D03*
X354763D02*
D03*
X560140Y446423D02*
D03*
X493764Y499120D02*
D03*
D71*
X627828Y24441D02*
D03*
X484828D02*
D03*
D72*
X34264Y436120D02*
D03*
Y336120D02*
D03*
D73*
X249328Y50441D02*
D03*
X189828Y63941D02*
D03*
X249328D02*
D03*
X189828Y50441D02*
D03*
X198328Y63941D02*
D03*
X206828D02*
D03*
X215328D02*
D03*
X223828D02*
D03*
X232328D02*
D03*
X240828D02*
D03*
Y50441D02*
D03*
X232328D02*
D03*
X223828D02*
D03*
X215328D02*
D03*
X206828D02*
D03*
X198328D02*
D03*
D74*
X262828Y54142D02*
D03*
X176328D02*
D03*
D75*
X262828Y20341D02*
D03*
X176328D02*
D03*
D76*
X35362Y239272D02*
D03*
Y188472D02*
D03*
Y213873D02*
D03*
Y163072D02*
D03*
X60762Y188472D02*
D03*
Y213873D02*
D03*
Y239272D02*
D03*
D77*
X684000Y43008D02*
D03*
X52000Y78008D02*
D03*
X708000Y488008D02*
D03*
X39000Y287008D02*
D03*
D78*
X60762Y163072D02*
D03*
D79*
X606328Y24441D02*
D03*
X586328D02*
D03*
X566328D02*
D03*
X546328D02*
D03*
X526328D02*
D03*
D80*
X506328D02*
D03*
D81*
X404763Y499120D02*
D03*
X543764D02*
D03*
D82*
X265763Y519121D02*
D03*
X240763D02*
D03*
X127764D02*
D03*
X102764D02*
D03*
D83*
X560140Y395623D02*
D03*
D84*
X21764Y366121D02*
D03*
Y386120D02*
D03*
Y406120D02*
D03*
X46764Y366121D02*
D03*
Y386120D02*
D03*
Y406120D02*
D03*
D85*
X657000Y522000D02*
D03*
X606000Y523000D02*
D03*
D111*
X289161Y168675D02*
D03*
X500343Y110000D02*
D03*
X140000Y430000D02*
D03*
X418000Y423000D02*
D03*
X477351Y467091D02*
D03*
X230121Y321616D02*
D03*
X294232Y328686D02*
D03*
M02*
