M48
;Layer_Color=9474304
;FILE_FORMAT=4:4
METRIC,LZ
;TYPE=PLATED
T01F00S00C0.3000
T02F00S00C0.4000
T04F00S00C0.7800
T05F00S00C0.8000
T06F00S00C1.0000
T07F00S00C1.0200
T08F00S00C1.1000
T09F00S00C1.1500
T10F00S00C1.2500
T11F00S00C1.4600
T12F00S00C2.0000
T13F00S00C3.5000
%
T01
X00015838Y00023571
X00030838
X00045838
X00060837
X00075837
X00090837
X00105837
Y00038571
Y00053571
Y00068571
Y00083571
X00120837
X00135837
Y00098571
X00120837
X00105837
X00090837
Y00083571
Y00068571
Y00053571
Y00038571
X00075837
Y00053571
X00060837Y00038571
X00045838
X00030838
Y00053571
X00015838
Y00068571
Y00083571
Y00098571
Y00038571
X00045838Y00008571
X00060837
X00075837
X00090837
X00105837
X00120837
X00135837
X00150837
X00165837
X00195837
X00210837
X00225837
X00240837
Y00023571
X00225837
X00210837
X00195837
X00165837Y00038571
X00150837
Y00053571
X00135837
Y00038571
Y00023571
X00150837
X00123523Y00029901
X00150227Y00090429
X00189216Y00081834
X00210837Y00083571
Y00098571
X00225837
X00285984Y00054663
X00274906Y00035691
X00275374Y00027835
X00290108Y00016616
X00300837Y00008571
X00315837
Y00023571
X00300837Y00038571
X00330838Y00008571
X00375838Y00023571
X00390837
X00405837
X00420837
X00435837
X00450837
X00465837
Y00053571
X00480837
X00495837
Y00068571
X00507Y00068
X00507412Y00060878
X00484097Y0006537
X00465837Y00068571
Y00083571
X00450837
Y00068571
Y00053571
X00435837
X00437534Y00064914
X00420837Y00068571
Y00053571
X00405837
Y00068571
Y00083571
Y00098571
X00357738Y00089524
X00330036Y00077094
X00342019Y00063443
X00495837Y00083571
Y00098571
X00510779Y00092853
X00528534Y0009523
X00585837Y00098571
X00600837
X00615837
X00630837
X00645837
X00660837
X00675837
X00690837
X00705837
X00720837
Y00083571
Y00068571
Y00053571
X00705837Y00068571
Y00083571
X00690837
X00675837
X00660837
Y00068571
X00645837
Y00083571
X00630837
Y00068571
Y00053571
X00645837
Y00038571
Y00008571
X00660837
X00675837
X00690837
X00705837
X00720837
X00615837
X00600837
X00585837
Y00038571
Y00053571
X00615837
Y00068571
X00610511Y00085993
X00735837Y00083571
Y00098571
Y00068571
Y00053571
Y00113571
Y00128571
Y00143571
Y00158571
Y00173571
Y00188571
Y00203571
Y00218571
Y00233571
Y00248571
Y00263571
Y00278571
Y00293571
Y00308571
Y00323571
Y00338571
Y00353571
Y00368571
Y00383571
Y00398571
Y00413571
Y00428571
Y00443571
Y00458571
Y00473571
X00720837Y00458571
Y00443571
Y00428571
Y00413571
Y00398571
X00705837
Y00413571
Y00428571
Y00443571
X00690837
Y00458571
X00675837
Y00473571
Y00488571
X00660837
Y00473571
Y00458571
Y00443571
X00675837
Y00428571
X00690837
Y00413571
Y00398571
X00675837
Y00413571
X00660837
Y00428571
X00645837
Y00443571
Y00458571
Y00473571
Y00488571
X00630837
Y00473571
Y00458571
Y00443571
Y00428571
Y00413571
X00645837
Y00398571
X00660837
X00645837Y00383571
Y00368571
X00630837
Y00383571
Y00398571
X00615837
Y00413571
Y00428571
Y00443571
Y00458571
Y00473571
Y00488571
X00600837
Y00473571
Y00458571
Y00443571
Y00428571
Y00413571
Y00398571
Y00383571
X00615837
Y00368571
Y00353571
X00630837
X00615837Y00338571
X00600837
Y00353571
Y00368571
X00585837
Y00383571
Y00398571
Y00413571
Y00428571
Y00443571
Y00458571
Y00473571
Y00488571
X00570837
Y00473571
Y00458571
X00555837Y00473571
X00540837
Y00458571
X00525837
Y00473571
X00510837
Y00458571
X00510154Y00446856
X00510837Y00428571
X00525837
X00540837
Y00413571
X00525837
X00510837
X00510341Y00392695
X00510837Y00383571
X00525837
X00540837
Y00368571
X00555837
X00570837
Y00353571
X00585837
Y00338571
X00570837
X00555837
Y00353571
X00540837
X00525837
Y00368571
X00510837
Y00353571
Y00338571
X00495837
X00480837
Y00323571
X00465837
Y00338571
Y00353571
X00450837
Y00338571
Y00323571
X00435837
Y00338571
X00420837
Y00323571
X00405837
X00385595Y00325862
X00375838Y00308571
X00361224Y0026752
X00362459Y00259359
X00328521Y00252508
X0032954Y00268392
X00341415Y00351657
X0033379Y00363909
X0033867Y00403096
X00345838Y00413571
Y00428571
X00360838
X00375838
Y00443571
X00390837
Y00458571
X00405837
Y00473571
X00420837
X00390837
X00375838
Y00458571
X00360838
Y00473571
X00345838
Y00488571
X00330838
Y00473571
Y00458571
X00345838
Y00443571
X00360838
X00330838
Y00428571
Y00413571
X00362202Y00410979
X00377368Y00401981
X00390837Y00398571
Y00413571
X00405837
X00402448Y00425624
X00445684Y00421395
X0043724Y00450622
X00477047Y00452701
X00465837Y00473571
Y00488571
X00480837
X00450837
X00480837Y00413571
X00495837Y00383571
X00493758Y00363798
X00488613Y00313537
X00544606Y00310419
X00549541Y0030578
X0054866Y00316569
X00533549Y00331789
X00581334Y00323895
X00600837Y00323571
X00585837Y00308571
X00576535Y00297164
X00615837Y00293571
X00630837Y00308571
X00645837Y00323571
X00660837Y00338571
Y00263571
Y00218571
Y00203571
X00645837
Y00218571
Y00233571
X00630837
X00615837
Y00218571
X00600837
Y00233571
X00577924Y0023642
X00577762Y00224009
X00581346Y0020498
X00600837Y00203571
X00630837
Y00143571
X00645837
X00660837
Y00128571
X00675837
X00690837
X00705837
X00720837
Y00113571
X00705837
X00690837
X00675837
X00660837
X00645837
Y00128571
X00630837
Y00113571
X00615837
Y00128571
Y00143571
X00600837
Y00128571
Y00113571
X00585837
Y00128571
X00572994Y00130497
X00570837Y00113571
X00585837Y00143571
Y00158571
X00550551Y00217572
X00553326Y0022379
X00546858Y002244
X00483444Y00238281
X00483513Y0024616
X0047605Y00233582
X00488255Y00204009
X00480837Y00158571
X00465837
Y00173571
X00450837
Y00188571
X00435837
Y00203571
X00420837
X00405837
Y00188571
X00386886Y00197252
X00360838Y00203571
X00373815Y00173306
X00345838Y00143571
Y00128571
X00330838
Y00113571
X0032902Y00145911
X00330838Y00158571
X00408711Y00124655
X00421769Y00125233
X00435837Y00113571
X00450837
X00465837
Y00128571
X00480837
X00495837
X00487177Y00139249
X00486942Y00145724
X00465837Y00143571
X00450837
Y00158571
Y00128571
X00489007Y00114533
X00510837Y00113571
X00411172Y00216632
X00416578Y00253192
X00426011Y00279492
X00424574Y00370663
X00420837Y00383571
X00405837Y00368571
Y00353571
X00390837
X00720837Y00368571
Y00263571
Y00233571
Y00158571
X00318995Y00177489
X00289161Y00179039
X00280982Y00179232
X00284696Y00187321
X00288491Y00220379
X00286028Y0024887
X00286575Y00256575
X0031521Y00252026
X0031568Y00268392
X0031591Y00302814
X00308234Y0030198
X00302313Y00320605
X00303265Y00352448
X00303544Y00360105
X00289922Y00359611
X00289844Y00351692
X00317997Y00347357
X00300837Y00383571
Y00398571
Y00413571
X00315837
Y00428571
Y00443571
Y00458571
Y00473571
Y00488571
X00300837
Y00473571
Y00458571
Y00443571
X00255837
Y00458571
Y00473571
Y00488571
X00240837
Y00473571
Y00458571
Y00443571
X00225837
Y00458571
Y00473571
Y00488571
X00210837
Y00473571
Y00458571
Y00443571
X00195837
Y00458571
X00182851Y00459206
Y0044981
X00168013
Y00459206
X00165837Y00473571
X00180837
X00195837
Y00488571
X00180837
X00165837
X00150837
Y00473571
X00147903Y00460629
X00150837Y00443571
X00135837
X00120837
X00105837
Y00473571
Y00488571
X00090837
Y00473571
Y00458571
X00045838
Y00473571
X00030838
Y00458571
X00015838
Y00473571
Y00443571
Y00428571
X00030838Y00413571
Y00398571
X00060837
Y00368571
X00075837
X00090837
Y00383571
Y00353571
X00105837
X00120837
X00135837
Y00338571
Y00323571
X00120837
Y00338571
X00105837
Y00323571
X00090837
Y00338571
X00075837
Y00353571
X00060837
Y00338571
Y00323571
X00075837
Y00263571
X00090837
Y00248571
X00105837
X00120837
X00134012Y00248547
X00134168Y00215354
X00120837Y00218571
X00105837
X00090837
X00075837
Y00248571
X00060837Y00263571
X00015838
Y00248571
Y00233571
Y00218571
Y00203571
Y00188571
Y00173571
Y00158571
Y00143571
X00030838
X00045838
X00060837
Y00128571
X00075837
X00090837
Y00143571
Y00173571
X00105837
X00120837
X00134275Y00180005
X00105837Y00188571
X00090837
X00075837
Y00158571
Y00113571
X00090837
X00060837
X00045838
Y00128571
X00030838
Y00113571
X00015838
Y00128571
X00180837Y00143571
X00195837
Y00158571
X00180837
X0020804Y00180919
X00215926Y00181005
X00215059Y0018889
X00207954Y00189064
X00229051Y00210197
X00232955Y00218348
X00225837Y00248571
X00210837
Y00263571
Y00278571
Y00293571
X00225837
X00240837
X00255837
Y00278571
X00232442Y00271767
X00251274Y00248232
X00195837Y00248571
Y00263571
Y00278571
Y00293571
Y00308571
X00223909Y00308542
X00240837Y00308571
X00261907Y00313988
X00230551Y00333302
X00225837Y00383571
X00210837
X00195837
Y00368571
X00173936Y00336027
X0017738Y00328939
X00169501Y0032949
X00130883Y00367337
X00137694Y00374643
X00150214Y00394524
X00141864Y00418453
X00129814Y00418937
X00117589Y00391238
X00045838Y00353571
X00030838
X00015838
Y00338571
Y00323571
X00244659Y00390149
X00255837Y00383571
X00270837
X00285837
Y00398571
X00270837Y00413571
X00255837
X0023838Y00411222
X00270837Y00368571
X00277252Y00479707
X00277208Y00144269
X00291776Y0014552
X00285837Y00128571
X00311601Y00116664
X00319339Y00116748
X00319744Y00107927
X00311862Y00108042
X00255837Y00143571
X00240837
X00238144Y00155581
X00240837Y00173571
X00225837Y00143571
Y00503571
X00240837
Y00533571
X00255837
X00270837
X00285837
X00300837
X00315837
Y00518571
Y00503571
X00300837
Y00518571
X00285837
Y00503571
X00225837Y00518571
Y00533571
X00210837
Y00518571
Y00503571
X00195837
Y00518571
Y00533571
X00180837
Y00518571
Y00503571
X00165837
Y00518571
Y00533571
X00150837
Y00518571
Y00503571
X00135837
Y00533571
X00105837Y00503571
X00090837
X00060837
Y00518571
Y00533571
X00045838
Y00518571
X00035092Y00501222
X00015838Y00503571
X00330838
Y00518571
X00345838
Y00533571
X00360838
X00375838Y00518571
X00390837
X00435837Y00503571
X00450837
X00465837
X00480837
X00495837Y00533571
X00510837
X00525837
X00540837
X00555837
X00570837
Y00518571
Y00503571
X00585837
X00630837
Y00518571
Y00533571
X00690837
X00705837
X00720837
Y00518571
X00705837
X00690837
X00675837Y00503571
X00555837Y00518571
X00330838Y00533571
X00735837
Y00518571
Y00503571
T02
X00189828Y00050441
X00198328
X00206828
X00215328
X00223828
X00232328
X00240828
X00249328
Y00063941
X00240828
X00232328
X00223828
X00215328
X00206828
X00198328
X00189828
T04
X00506328Y00024441
X00526328
X00546328
X00566328
X00586328
X00606328
T05
X00021764Y00366121
Y0038612
Y0040612
X00046764
Y0038612
Y00366121
T06
X00102764Y00519121
X00127764
X00240763
X00265763
T07
X00035362Y00163072
Y00188472
Y00213873
Y00239272
X00060762
Y00213873
Y00188472
Y00163072
T08
X00354763Y0049912
X00379763
X00404763
X00493764
X00518764
X00543764
X0056014Y00446423
Y00421023
Y00395623
T09
X00685Y00149
X007104
Y001744
Y001998
X00685
Y001744
Y002252
X007104
Y002506
X00685
Y00276
X007104
Y003014
Y003268
X00685
Y003014
Y003522
Y003776
X007104
Y003522
T10
X00034264Y0033612
Y0043612
T11
X00484828Y00024441
X00627828
T12
X00606Y00523
X00657Y00522
T13
X00052Y00078008
X00684Y00043008
X00708Y00488008
X00039Y00287008
M30
